<svg width="20" height="20" viewBox="0 0 20 20" fill="none" xmlns="http://www.w3.org/2000/svg">
<path d="M11.3357 14.0909C11.1312 14.11 10.9259 14.0639 10.7493 13.9591C10.6856 13.8937 10.6374 13.8148 10.6083 13.7283C10.5792 13.6417 10.5699 13.5497 10.5811 13.4591C10.5859 13.3063 10.6041 13.1542 10.6357 13.0046C10.6662 12.8329 10.7056 12.663 10.7538 12.4955L11.2902 10.65C11.3455 10.4678 11.3821 10.2805 11.3993 10.0909C11.3993 9.88638 11.4266 9.74544 11.4266 9.66364C11.4322 9.48368 11.3971 9.30477 11.3239 9.14027C11.2507 8.97577 11.1413 8.82993 11.0038 8.71364C10.6613 8.45068 10.2347 8.32142 9.80383 8.35001C9.49503 8.35466 9.18865 8.40521 8.89473 8.50001C8.57352 8.60001 8.23563 8.7197 7.88109 8.85911L7.72656 9.45911C7.83109 9.42275 7.9584 9.38185 8.10383 9.33638C8.24257 9.29527 8.3864 9.27385 8.53109 9.27275C8.73407 9.25075 8.93834 9.3006 9.10836 9.41364C9.1655 9.48183 9.20825 9.56089 9.23403 9.64604C9.25981 9.73119 9.26809 9.82068 9.25836 9.90911C9.25785 10.062 9.24109 10.2143 9.20836 10.3636C9.17652 10.5227 9.13563 10.6909 9.08563 10.8682L8.54473 12.7227C8.50113 12.8951 8.46625 13.0696 8.4402 13.2454C8.41895 13.396 8.40831 13.5479 8.40836 13.7C8.40726 13.8811 8.44766 14.0601 8.52645 14.2232C8.60524 14.3863 8.72033 14.5291 8.86289 14.6409C9.21072 14.9079 9.64334 15.0403 10.0811 15.0136C10.3893 15.0199 10.6964 14.9754 10.9902 14.8818C11.2477 14.7939 11.5917 14.6681 12.022 14.5045L12.1675 13.9318C12.0509 13.9801 11.9309 14.0196 11.8084 14.0499C11.6534 14.0853 11.4944 14.0991 11.3357 14.0909ZM11.9038 5.34095C11.6564 5.11376 11.3305 4.99153 10.9947 5.00005C10.6591 4.99248 10.3335 5.11458 10.0856 5.34095C9.63125 5.73275 9.58051 6.41872 9.97234 6.87314C10.0073 6.91364 10.0451 6.9515 10.0856 6.98642C10.6033 7.44943 11.3862 7.44943 11.9038 6.98642C12.3582 6.59075 12.4058 5.90169 12.0101 5.44732C11.9772 5.40944 11.9417 5.3739 11.9038 5.34095Z" fill="black"/>
<path d="M10 0C4.47715 0 0 4.47715 0 10C0 15.5229 4.47715 20 10 20C15.5229 20 20 15.5229 20 10C20 4.47715 15.5229 0 10 0ZM10 19.0909C4.97922 19.0909 0.909102 15.0208 0.909102 10C0.909102 4.97922 4.97922 0.909102 10 0.909102C15.0208 0.909102 19.0909 4.97922 19.0909 10C19.0909 15.0208 15.0208 19.0909 10 19.0909Z" fill="black"/>
</svg>
