<svg width="361" height="272" viewBox="0 0 361 272" fill="none" xmlns="http://www.w3.org/2000/svg">
<mask id="path-1-inside-1_85_501" fill="white">
<path fill-rule="evenodd" clip-rule="evenodd" d="M0 12C0 5.37258 5.37258 0 12 0H349C355.627 0 361 5.37258 361 12V164C347.745 164 337 174.745 337 188C337 201.255 347.745 212 361 212V260C361 266.627 355.627 272 349 272H12C5.37257 272 0 266.627 0 260V211.98C12.7912 211.455 23.0002 200.92 23.0002 188C23.0002 175.08 12.7912 164.545 0 164.02V12Z"/>
</mask>
<path fill-rule="evenodd" clip-rule="evenodd" d="M0 12C0 5.37258 5.37258 0 12 0H349C355.627 0 361 5.37258 361 12V164C347.745 164 337 174.745 337 188C337 201.255 347.745 212 361 212V260C361 266.627 355.627 272 349 272H12C5.37257 272 0 266.627 0 260V211.98C12.7912 211.455 23.0002 200.92 23.0002 188C23.0002 175.08 12.7912 164.545 0 164.02V12Z" fill="white"/>
<path d="M361 164L361 165L362 165V164H361ZM361 212H362V211L361 211L361 212ZM0 211.98L-0.0409422 210.98L-1 211.02V211.98H0ZM0 164.02H-1V164.98L-0.0409422 165.02L0 164.02ZM12 -1C4.8203 -1 -1 4.82029 -1 12H1C1 5.92486 5.92487 1 12 1V-1ZM349 -1H12V1H349V-1ZM362 12C362 4.8203 356.18 -1 349 -1V1C355.075 1 360 5.92487 360 12H362ZM362 164V12H360V164H362ZM338 188C338 175.298 348.298 165 361 165L361 163C347.193 163 336 174.193 336 188H338ZM361 211C348.298 211 338 200.702 338 188H336C336 201.807 347.193 213 361 213L361 211ZM362 260V212H360V260H362ZM349 273C356.18 273 362 267.18 362 260H360C360 266.075 355.075 271 349 271V273ZM12 273H349V271H12V273ZM-1 260C-1 267.18 4.82029 273 12 273V271C5.92486 271 1 266.075 1 260H-1ZM-1 211.98V260H1V211.98H-1ZM22.0002 188C22.0002 200.381 12.2166 210.478 -0.0409422 210.98L0.0409422 212.979C13.3658 212.433 24.0002 201.459 24.0002 188H22.0002ZM-0.0409422 165.02C12.2166 165.522 22.0002 175.619 22.0002 188H24.0002C24.0002 174.541 13.3658 163.567 0.0409422 163.021L-0.0409422 165.02ZM-1 12V164.02H1V12H-1Z" fill="#D6D6E0" mask="url(#path-1-inside-1_85_501)"/>
<line x1="36" y1="187" x2="324" y2="187" stroke="#D6D6E0" stroke-width="2" stroke-linecap="round" stroke-dasharray="4 8"/>
</svg>
