<svg width="16" height="16" viewBox="0 0 16 16" fill="none" xmlns="http://www.w3.org/2000/svg">
<path d="M5.33333 3.83325C5.06 3.83325 4.83333 3.60659 4.83333 3.33325V1.33325C4.83333 1.05992 5.06 0.833252 5.33333 0.833252C5.60667 0.833252 5.83333 1.05992 5.83333 1.33325V3.33325C5.83333 3.60659 5.60667 3.83325 5.33333 3.83325Z" fill="#9E968F"/>
<path d="M10.6667 3.83325C10.3933 3.83325 10.1667 3.60659 10.1667 3.33325V1.33325C10.1667 1.05992 10.3933 0.833252 10.6667 0.833252C10.94 0.833252 11.1667 1.05992 11.1667 1.33325V3.33325C11.1667 3.60659 10.94 3.83325 10.6667 3.83325Z" fill="#9E968F"/>
<path d="M5.66667 9.66659C5.58 9.66659 5.49333 9.6466 5.41333 9.61327C5.32667 9.57993 5.26 9.53325 5.19333 9.47325C5.07333 9.34658 5 9.17992 5 8.99992C5 8.91326 5.02 8.82659 5.05333 8.74659C5.08667 8.66659 5.13333 8.59326 5.19333 8.5266C5.26 8.4666 5.32667 8.41991 5.41333 8.38658C5.65333 8.28658 5.95333 8.33993 6.14 8.5266C6.26 8.65326 6.33333 8.82659 6.33333 8.99992C6.33333 9.03992 6.32667 9.0866 6.32 9.13326C6.31333 9.17326 6.3 9.21326 6.28 9.25326C6.26667 9.29326 6.24667 9.33325 6.22 9.37325C6.2 9.40659 6.16667 9.43992 6.14 9.47325C6.01333 9.59325 5.84 9.66659 5.66667 9.66659Z" fill="#9E968F"/>
<path d="M8 9.66658C7.91333 9.66658 7.82667 9.64659 7.74667 9.61326C7.66 9.57992 7.59333 9.53324 7.52667 9.47324C7.40667 9.34658 7.33333 9.17992 7.33333 8.99992C7.33333 8.91325 7.35333 8.82658 7.38667 8.74658C7.42 8.66658 7.46667 8.59325 7.52667 8.52659C7.59333 8.46659 7.66 8.41991 7.74667 8.38657C7.98667 8.27991 8.28667 8.33992 8.47333 8.52659C8.59333 8.65325 8.66667 8.82658 8.66667 8.99992C8.66667 9.03992 8.66 9.08659 8.65333 9.13326C8.64667 9.17326 8.63333 9.21325 8.61333 9.25325C8.6 9.29325 8.58 9.33325 8.55333 9.37325C8.53333 9.40658 8.5 9.43991 8.47333 9.47324C8.34667 9.59324 8.17333 9.66658 8 9.66658Z" fill="#9E968F"/>
<path d="M10.3333 9.66658C10.2467 9.66658 10.16 9.64659 10.08 9.61326C9.99333 9.57992 9.92667 9.53324 9.86 9.47324C9.83333 9.43991 9.80667 9.40658 9.78 9.37325C9.75333 9.33325 9.73333 9.29325 9.72 9.25325C9.7 9.21325 9.68667 9.17326 9.68 9.13326C9.67333 9.08659 9.66667 9.03992 9.66667 8.99992C9.66667 8.82658 9.74 8.65325 9.86 8.52659C9.92667 8.46659 9.99333 8.41991 10.08 8.38657C10.3267 8.27991 10.62 8.33992 10.8067 8.52659C10.9267 8.65325 11 8.82658 11 8.99992C11 9.03992 10.9933 9.08659 10.9867 9.13326C10.98 9.17326 10.9667 9.21325 10.9467 9.25325C10.9333 9.29325 10.9133 9.33325 10.8867 9.37325C10.8667 9.40658 10.8333 9.43991 10.8067 9.47324C10.68 9.59324 10.5067 9.66658 10.3333 9.66658Z" fill="#9E968F"/>
<path d="M5.66667 11.9999C5.58 11.9999 5.49333 11.9799 5.41333 11.9466C5.33333 11.9133 5.26 11.8666 5.19333 11.8066C5.07333 11.6799 5 11.5066 5 11.3333C5 11.2466 5.02 11.1599 5.05333 11.0799C5.08667 10.9933 5.13333 10.9199 5.19333 10.8599C5.44 10.6133 5.89333 10.6133 6.14 10.8599C6.26 10.9866 6.33333 11.1599 6.33333 11.3333C6.33333 11.5066 6.26 11.6799 6.14 11.8066C6.01333 11.9266 5.84 11.9999 5.66667 11.9999Z" fill="#9E968F"/>
<path d="M8 11.9999C7.82667 11.9999 7.65333 11.9266 7.52667 11.8066C7.40667 11.6799 7.33333 11.5066 7.33333 11.3333C7.33333 11.2466 7.35333 11.1599 7.38667 11.0799C7.42 10.9933 7.46667 10.9199 7.52667 10.8599C7.77333 10.6133 8.22667 10.6133 8.47333 10.8599C8.53333 10.9199 8.58 10.9933 8.61333 11.0799C8.64667 11.1599 8.66667 11.2466 8.66667 11.3333C8.66667 11.5066 8.59333 11.6799 8.47333 11.8066C8.34667 11.9266 8.17333 11.9999 8 11.9999Z" fill="#9E968F"/>
<path d="M10.3333 11.9999C10.16 11.9999 9.98667 11.9266 9.86 11.8066C9.8 11.7466 9.75333 11.6733 9.72 11.5866C9.68667 11.5066 9.66667 11.4199 9.66667 11.3333C9.66667 11.2466 9.68667 11.1599 9.72 11.0799C9.75333 10.9933 9.8 10.9199 9.86 10.8599C10.0133 10.7066 10.2467 10.6333 10.46 10.6799C10.5067 10.6866 10.5467 10.6999 10.5867 10.7199C10.6267 10.7333 10.6667 10.7533 10.7067 10.78C10.74 10.8 10.7733 10.8333 10.8067 10.8599C10.9267 10.9866 11 11.1599 11 11.3333C11 11.5066 10.9267 11.6799 10.8067 11.8066C10.68 11.9266 10.5067 11.9999 10.3333 11.9999Z" fill="#9E968F"/>
<path d="M13.6667 6.5599H2.33333C2.06 6.5599 1.83333 6.33323 1.83333 6.0599C1.83333 5.78656 2.06 5.5599 2.33333 5.5599H13.6667C13.94 5.5599 14.1667 5.78656 14.1667 6.0599C14.1667 6.33323 13.94 6.5599 13.6667 6.5599Z" fill="#9E968F"/>
<path d="M10.6667 15.1666H5.33333C2.9 15.1666 1.5 13.7666 1.5 11.3333V5.66659C1.5 3.23325 2.9 1.83325 5.33333 1.83325H10.6667C13.1 1.83325 14.5 3.23325 14.5 5.66659V11.3333C14.5 13.7666 13.1 15.1666 10.6667 15.1666ZM5.33333 2.83325C3.42667 2.83325 2.5 3.75992 2.5 5.66659V11.3333C2.5 13.2399 3.42667 14.1666 5.33333 14.1666H10.6667C12.5733 14.1666 13.5 13.2399 13.5 11.3333V5.66659C13.5 3.75992 12.5733 2.83325 10.6667 2.83325H5.33333Z" fill="#9E968F"/>
</svg>
