<svg width="20" height="20" viewBox="0 0 20 20" fill="none" xmlns="http://www.w3.org/2000/svg">
<g clip-path="url(#clip0_1568_13366)">
<path d="M11.3364 14.0908C11.1319 14.1099 10.9267 14.0637 10.75 13.959C10.6863 13.8936 10.6381 13.8147 10.609 13.7281C10.5799 13.6416 10.5706 13.5496 10.5819 13.459C10.5866 13.3062 10.6049 13.1541 10.6364 13.0045C10.6669 12.8328 10.7063 12.6629 10.7546 12.4954L11.2909 10.6499C11.3462 10.4677 11.3828 10.2804 11.4 10.0908C11.4 9.88626 11.4273 9.74532 11.4273 9.66352C11.4329 9.48356 11.3978 9.30465 11.3246 9.14015C11.2514 8.97565 11.142 8.82981 11.0046 8.71352C10.662 8.45055 10.2355 8.32129 9.80456 8.34989C9.49577 8.35453 9.18938 8.40509 8.89546 8.49989C8.57425 8.59989 8.23636 8.71958 7.88183 8.85899L7.72729 9.45899C7.83183 9.42262 7.95913 9.38173 8.10456 9.33626C8.2433 9.29515 8.38713 9.27373 8.53183 9.27262C8.73481 9.25062 8.93907 9.30048 9.10909 9.41352C9.16624 9.48171 9.20899 9.56076 9.23477 9.64592C9.26054 9.73107 9.26882 9.82056 9.25909 9.90899C9.25859 10.0618 9.24183 10.2142 9.20909 10.3635C9.17726 10.5226 9.13636 10.6908 9.08636 10.8681L8.54546 12.7226C8.50187 12.895 8.46698 13.0694 8.44093 13.2453C8.41969 13.3959 8.40905 13.5478 8.40909 13.6999C8.408 13.881 8.44839 14.0599 8.52718 14.223C8.60597 14.3861 8.72106 14.529 8.86362 14.6407C9.21145 14.9078 9.64407 15.0402 10.0818 15.0135C10.39 15.0198 10.6972 14.9753 10.9909 14.8816C11.2485 14.7938 11.5924 14.668 12.0227 14.5044L12.1682 13.9316C12.0516 13.98 11.9316 14.0195 11.8091 14.0498C11.6542 14.0852 11.4951 14.099 11.3364 14.0908ZM11.9046 5.34083C11.6572 5.11364 11.3312 4.99141 10.9955 4.99993C10.6599 4.99236 10.3342 5.11446 10.0864 5.34083C9.63198 5.73262 9.58124 6.4186 9.97308 6.87302C10.008 6.91352 10.0459 6.95138 10.0864 6.9863C10.604 7.4493 11.3869 7.4493 11.9045 6.9863C12.3589 6.59063 12.4065 5.90157 12.0108 5.44719C11.9779 5.40932 11.9424 5.37378 11.9046 5.34083Z" fill="black"/>
<path d="M10 0C4.47715 0 0 4.47715 0 10C0 15.5229 4.47715 20 10 20C15.5229 20 20 15.5229 20 10C20 4.47715 15.5229 0 10 0ZM10 19.0909C4.97922 19.0909 0.909102 15.0208 0.909102 10C0.909102 4.97922 4.97922 0.909102 10 0.909102C15.0208 0.909102 19.0909 4.97922 19.0909 10C19.0909 15.0208 15.0208 19.0909 10 19.0909Z" fill="black"/>
</g>
<defs>
<clipPath id="clip0_1568_13366">
<rect width="20" height="20" fill="white"/>
</clipPath>
</defs>
</svg>
