<svg width="16" height="16" viewBox="0 0 16 16" fill="none" xmlns="http://www.w3.org/2000/svg">
<path d="M11 5.75334C10.7267 5.75334 10.5 5.52667 10.5 5.25334V4.33334C10.5 3.63334 10.2 2.95334 9.68 2.48001C9.15333 2.00001 8.47333 1.78001 7.75333 1.84667C6.55333 1.96001 5.5 3.18667 5.5 4.46667V5.11334C5.5 5.38667 5.27333 5.61334 5 5.61334C4.72667 5.61334 4.5 5.38667 4.5 5.11334V4.46001C4.5 2.66667 5.94667 1.01334 7.66 0.846673C8.66 0.753339 9.62 1.06667 10.3533 1.74001C11.08 2.40001 11.5 3.34667 11.5 4.33334V5.25334C11.5 5.52667 11.2733 5.75334 11 5.75334Z" fill="white"/>
<path d="M9.99988 15.1667H5.99988C2.91988 15.1667 2.34655 13.7333 2.19988 12.34L1.69988 8.34666C1.62655 7.62666 1.59988 6.59333 2.29988 5.81999C2.89988 5.15333 3.89321 4.83333 5.33321 4.83333H10.6665C12.1132 4.83333 13.1065 5.15999 13.6999 5.81999C14.3932 6.59333 14.3732 7.62666 14.2999 8.33333L13.7999 12.34C13.6532 13.7333 13.0799 15.1667 9.99988 15.1667ZM5.33321 5.83333C4.20655 5.83333 3.43321 6.05333 3.03988 6.49333C2.71321 6.85333 2.60655 7.40666 2.69321 8.23333L3.19321 12.2267C3.30655 13.2933 3.59988 14.1733 5.99988 14.1733H9.99988C12.3999 14.1733 12.6932 13.3 12.8065 12.24L13.3065 8.23333C13.3932 7.42 13.2865 6.86666 12.9599 6.49999C12.5665 6.05333 11.7932 5.83333 10.6665 5.83333H5.33321Z" fill="white"/>
<path d="M10.2788 8.76667C9.90547 8.76667 9.60547 8.46667 9.60547 8.1C9.60547 7.73333 9.90547 7.43333 10.2721 7.43333C10.6388 7.43333 10.9388 7.73333 10.9388 8.1C10.9388 8.46667 10.6455 8.76667 10.2788 8.76667Z" fill="white"/>
<path d="M5.61474 8.76667C5.24141 8.76667 4.94141 8.46667 4.94141 8.1C4.94141 7.73333 5.24141 7.43333 5.60807 7.43333C5.97474 7.43333 6.27474 7.73333 6.27474 8.1C6.27474 8.46667 5.98141 8.76667 5.61474 8.76667Z" fill="white"/>
</svg>
