<svg width="64" height="64" viewBox="0 0 64 64" fill="none" xmlns="http://www.w3.org/2000/svg">
<path fill-rule="evenodd" clip-rule="evenodd" d="M9.9565 58.08H53.3316L53.3268 56.6332V47.68V47.1345L53.2873 45.1022C53.3199 32.1299 44.3304 28.269 31.9118 28.4888C19.798 28.7032 9.91469 31.9134 9.97473 45.102L9.97164 47.252L9.94531 47.2518L9.95856 56.6332L9.9565 58.08Z" fill="#FFDE03"/>
<path d="M9.93111 58.08H53.3063L53.3014 56.6332L53.2691 47.52V47.2518L53.2619 45.1022C53.2946 32.1299 44.305 28.269 31.8864 28.4888C19.7726 28.7032 9.8893 31.9134 9.94934 45.102L9.94625 47.252L9.91992 47.2518L9.93317 56.6332L9.93111 58.08Z" fill="url(#paint0_linear_675_7509)"/>
<path fill-rule="evenodd" clip-rule="evenodd" d="M53.3112 45.784C53.4397 36.9599 49.5997 31.6799 43.6797 30.3999C47.6797 32.6399 48.9849 37.3027 48.9673 43.8477L48.9753 46.0188L48.9673 46.7199L49.0099 55.4943L49.0227 59.0665H53.3537V57.4305L53.3112 45.784Z" fill="#DEC100"/>
<path fill-rule="evenodd" clip-rule="evenodd" d="M55.3343 58.0798C55.3343 58.625 54.7192 59.0667 53.9602 59.0667H10.3348C9.57604 59.0667 8.96094 58.625 8.96094 58.0798V57.0934C8.96094 56.5485 9.57604 56.1067 10.3348 56.1067H53.9602C54.7192 56.1067 55.3343 56.5485 55.3343 57.0934V58.0798Z" fill="#DEC100"/>
<path fill-rule="evenodd" clip-rule="evenodd" d="M37.2271 29.4667H24.4004V22.5601H37.2271V29.4667Z" fill="#A5A4A0"/>
<path fill-rule="evenodd" clip-rule="evenodd" d="M31.2276 10.72H31.0907H19.8125C19.8125 10.72 20.7552 15.8185 22.2527 16.7294C24.1193 17.8648 30.436 17.6132 31.1592 17.5804C31.8822 17.6132 38.1989 17.8648 40.0655 16.7294C41.5629 15.8185 42.5058 10.72 42.5058 10.72H31.2276Z" fill="#A5A4A0"/>
<path fill-rule="evenodd" clip-rule="evenodd" d="M39.9017 10.72C39.5573 12.2125 38.7446 15.1967 37.623 15.873C35.7403 17.0084 29.3695 16.757 28.6403 16.7242C28.0958 16.7487 24.4055 16.8949 21.7871 16.4947C21.8823 16.5894 21.9801 16.6689 22.0804 16.7294C23.963 17.8648 30.3338 17.6132 31.0632 17.5804C31.7922 17.6132 38.1632 17.8648 40.0459 16.7294C41.5561 15.8185 42.5071 10.72 42.5071 10.72H39.9017Z" fill="#777775"/>
<path fill-rule="evenodd" clip-rule="evenodd" d="M32.1959 17.6267H22.2204C22.1679 17.6267 22.1154 17.6175 22.0659 17.5998C21.8408 17.5186 16.5355 15.5837 15.142 13.1968C13.8944 11.0594 13.5889 6.27506 14.1907 5.20259C14.3677 4.88734 14.6162 4.82737 14.7482 4.81985C15.507 4.77661 23.9466 4.81741 24.3059 4.8191C24.5507 4.82041 24.7479 5.01385 24.7467 5.25109C24.7456 5.48777 24.5472 5.67877 24.3035 5.67877C24.3028 5.67877 24.302 5.67877 24.3012 5.67877C21.4339 5.66467 16.0105 5.64662 14.9398 5.67294C14.8186 5.97786 14.692 7.00145 14.8424 8.6204C15.0032 10.3469 15.4033 11.8995 15.9136 12.7734C17.0688 14.7524 21.6658 16.5287 22.3023 16.7672H32.1959C32.4409 16.7672 32.6392 16.9595 32.6392 17.197C32.6392 17.4344 32.4409 17.6267 32.1959 17.6267Z" fill="#777775"/>
<path fill-rule="evenodd" clip-rule="evenodd" d="M32.0489 17.6267H40.9743C41.0213 17.6267 41.0683 17.6175 41.1125 17.5998C41.3139 17.5186 46.0608 15.5837 47.3077 13.1968C48.4239 11.0594 48.6974 6.27506 48.159 5.20259C48.0005 4.88734 47.7781 4.82737 47.66 4.81985C46.981 4.77661 39.4298 4.81741 39.1085 4.8191C38.8895 4.82041 38.7129 5.01385 38.7137 5.25109C38.715 5.48777 38.8924 5.67877 39.1104 5.67877C39.111 5.67877 39.1118 5.67877 39.1125 5.67877C41.678 5.66467 46.5306 5.64662 47.4886 5.67294C47.5968 5.97786 47.7103 7.00145 47.5757 8.6204C47.4319 10.3469 47.0738 11.8995 46.6173 12.7734C45.5836 14.7524 41.4706 16.5287 40.9011 16.7672H32.0489C31.8298 16.7672 31.6523 16.9595 31.6523 17.197C31.6523 17.4344 31.8298 17.6267 32.0489 17.6267Z" fill="#777775"/>
<path fill-rule="evenodd" clip-rule="evenodd" d="M32.1457 17.6267C31.8731 17.6267 31.6523 17.4344 31.6523 17.197V5.22979C31.6523 4.99236 31.8731 4.80005 32.1457 4.80005C32.418 4.80005 32.639 4.99236 32.639 5.22979V17.197C32.639 17.4344 32.418 17.6267 32.1457 17.6267Z" fill="#777775"/>
<path fill-rule="evenodd" clip-rule="evenodd" d="M32.6397 22.56H29.6797V17.6267H32.6397V22.56Z" fill="#A5A4A0"/>
<path fill-rule="evenodd" clip-rule="evenodd" d="M31.5962 17.6267V17.6382L29.6797 17.659V18.2819L31.5962 18.8025V22.56H32.6397V19.0861V17.6267H31.5962Z" fill="#777775"/>
<path fill-rule="evenodd" clip-rule="evenodd" d="M43.1466 26.5067H37.2266V25.52H43.1466V26.5067Z" fill="#777775"/>
<path fill-rule="evenodd" clip-rule="evenodd" d="M46.1055 29.4666H40.1855V23.5466H46.1055V29.4666Z" fill="#16313A"/>
<defs>
<linearGradient id="paint0_linear_675_7509" x1="14.8533" y1="26.5066" x2="17.1913" y2="71.9253" gradientUnits="userSpaceOnUse">
<stop stop-color="#FFEF83"/>
<stop offset="1" stop-color="#FFDE03"/>
</linearGradient>
</defs>
</svg>
