<svg width="57" height="56" viewBox="0 0 57 56" fill="none" xmlns="http://www.w3.org/2000/svg">
<g clip-path="url(#clip0_1579_14794)">
<path fill-rule="evenodd" clip-rule="evenodd" d="M17.7314 39.2783C17.7314 39.4023 17.707 39.5252 17.6595 39.6398C17.6121 39.7544 17.5425 39.8586 17.4547 39.9463C17.367 40.034 17.2629 40.1036 17.1482 40.151C17.0336 40.1985 16.9108 40.2229 16.7867 40.2229H7.5992C7.35044 40.2202 7.11277 40.1195 6.9378 39.9426C6.76283 39.7658 6.6647 39.527 6.6647 39.2782C6.6647 39.0295 6.76283 38.7907 6.9378 38.6139C7.11277 38.437 7.35044 38.3363 7.5992 38.3336H16.7867C16.9108 38.3336 17.0336 38.358 17.1482 38.4055C17.2629 38.4529 17.367 38.5225 17.4548 38.6102C17.5425 38.698 17.6121 38.8021 17.6595 38.9167C17.707 39.0314 17.7314 39.1542 17.7314 39.2783ZM50.0693 32.7687L43.673 39.165L39.7465 35.2378C39.5693 35.0606 39.329 34.961 39.0784 34.9611C38.8278 34.9611 38.5875 35.0606 38.4103 35.2378C38.2331 35.415 38.1336 35.6553 38.1336 35.9059C38.1336 36.1565 38.2332 36.3968 38.4104 36.574L43.0048 41.1687C43.1824 41.3453 43.4227 41.4444 43.6731 41.4444C43.9235 41.4444 44.1638 41.3453 44.3414 41.1687L51.406 34.1042C51.4949 34.0167 51.5657 33.9125 51.6141 33.7975C51.6626 33.6825 51.6878 33.5591 51.6883 33.4343C51.6888 33.3095 51.6646 33.1859 51.617 33.0705C51.5695 32.9552 51.4996 32.8504 51.4113 32.7622C51.323 32.674 51.2182 32.6042 51.1028 32.5567C50.9874 32.5093 50.8637 32.4852 50.7389 32.4858C50.6142 32.4864 50.4907 32.5117 50.3758 32.5603C50.2609 32.6088 50.1567 32.6797 50.0693 32.7687ZM28.5182 7.44043L32.7967 15.0748H53.3136L49.037 7.44043H28.5182ZM0.5 15.0754H21.0169L25.295 7.44098H4.77656L0.5 15.0754ZM4.44056 43.3925H25.9625V10.1151L22.3948 16.4817C22.3129 16.6283 22.1933 16.7504 22.0484 16.8353C21.9035 16.9202 21.7385 16.9648 21.5705 16.9646H4.40152V43.3536C4.40221 43.3637 4.40655 43.3732 4.41373 43.3804C4.42091 43.3876 4.43044 43.3919 4.44056 43.3925ZM33.0584 43.3925H27.8514V10.1151L31.4188 16.4817C31.5009 16.6281 31.6206 16.75 31.7654 16.8349C31.9103 16.9198 32.0751 16.9645 32.243 16.9646H49.4115V24.2625C46.8423 23.3512 44.0571 23.2403 41.4236 23.9445C38.79 24.6488 36.4319 26.1351 34.6606 28.2072C32.8892 30.2794 31.7878 32.8399 31.5018 35.551C31.2157 38.262 31.7585 40.996 33.0584 43.3922V43.3925ZM56.5 36.968C56.5 39.2607 55.8201 41.5019 54.5464 43.4082C53.2726 45.3145 51.4622 46.8003 49.344 47.6777C47.2258 48.555 44.895 48.7846 42.6464 48.3373C40.3977 47.89 38.3322 46.786 36.711 45.1648C35.0898 43.5436 33.9858 41.4781 33.5385 39.2295C33.0912 36.9808 33.3208 34.65 34.1982 32.5319C35.0756 30.4137 36.5613 28.6032 38.4677 27.3295C40.374 26.0557 42.6152 25.3758 44.9079 25.3758C47.9813 25.3792 50.9279 26.6016 53.1011 28.7748C55.2743 30.948 56.4967 33.8946 56.5 36.968Z" fill="black"/>
</g>
<defs>
<clipPath id="clip0_1579_14794">
<rect width="56" height="56" fill="white" transform="translate(0.5)"/>
</clipPath>
</defs>
</svg>
