<svg width="20" height="20" viewBox="0 0 20 20" fill="none" xmlns="http://www.w3.org/2000/svg">
<path d="M14.541 18.9583C13.5993 18.9583 12.6077 18.7333 11.5827 18.3C10.5827 17.875 9.57435 17.2916 8.59102 16.5833C7.61602 15.8666 6.67435 15.0666 5.78268 14.1916C4.89935 13.3 4.09935 12.3583 3.39102 11.3916C2.67435 10.3916 2.09935 9.39163 1.69102 8.42496C1.25768 7.39163 1.04102 6.39163 1.04102 5.44996C1.04102 4.79996 1.15768 4.18329 1.38268 3.60829C1.61602 3.01663 1.99102 2.46663 2.49935 1.99163C3.14102 1.35829 3.87435 1.04163 4.65768 1.04163C4.98268 1.04163 5.31602 1.11663 5.59935 1.24996C5.92435 1.39996 6.19935 1.62496 6.39935 1.92496L8.33268 4.64996C8.50768 4.89163 8.64102 5.12496 8.73268 5.35829C8.84102 5.60829 8.89935 5.85829 8.89935 6.09996C8.89935 6.41663 8.80768 6.72496 8.63268 7.01663C8.50768 7.24163 8.31602 7.48329 8.07435 7.72496L7.50768 8.31663C7.51602 8.34163 7.52435 8.35829 7.53268 8.37496C7.63268 8.54996 7.83268 8.84996 8.21602 9.29996C8.62435 9.76663 9.00768 10.1916 9.39102 10.5833C9.88268 11.0666 10.291 11.45 10.6743 11.7666C11.1494 12.1666 11.4577 12.3666 11.641 12.4583L11.6243 12.5L12.2327 11.9C12.491 11.6416 12.741 11.45 12.9827 11.325C13.441 11.0416 14.0244 10.9916 14.6077 11.2333C14.8244 11.325 15.0577 11.45 15.3077 11.625L18.0744 13.5916C18.3827 13.8 18.6077 14.0666 18.741 14.3833C18.866 14.7 18.9243 14.9916 18.9243 15.2833C18.9243 15.6833 18.8327 16.0833 18.6577 16.4583C18.4827 16.8333 18.266 17.1583 17.991 17.4583C17.516 17.9833 16.9993 18.3583 16.3994 18.6C15.8244 18.8333 15.1994 18.9583 14.541 18.9583ZM4.65768 2.29163C4.19935 2.29163 3.77435 2.49163 3.36602 2.89163C2.98268 3.24996 2.71602 3.64163 2.54935 4.06663C2.37435 4.49996 2.29102 4.95829 2.29102 5.44996C2.29102 6.22496 2.47435 7.06663 2.84102 7.93329C3.21602 8.81663 3.74102 9.73329 4.40768 10.65C5.07435 11.5666 5.83268 12.4583 6.66602 13.3C7.49935 14.125 8.39935 14.8916 9.32435 15.5666C10.2243 16.225 11.1493 16.7583 12.066 17.1416C13.491 17.75 14.8244 17.8916 15.9243 17.4333C16.3493 17.2583 16.7243 16.9916 17.066 16.6083C17.2577 16.4 17.4077 16.175 17.5327 15.9083C17.6327 15.7 17.6827 15.4833 17.6827 15.2666C17.6827 15.1333 17.6577 15 17.591 14.85C17.566 14.8 17.516 14.7083 17.3577 14.6L14.591 12.6333C14.4243 12.5166 14.2743 12.4333 14.1327 12.375C13.9493 12.3 13.8743 12.225 13.591 12.4C13.4243 12.4833 13.2743 12.6083 13.1077 12.775L12.4743 13.4C12.1494 13.7166 11.6494 13.7916 11.266 13.65L11.041 13.55C10.6993 13.3666 10.2993 13.0833 9.85768 12.7083C9.45768 12.3666 9.02435 11.9666 8.49935 11.45C8.09102 11.0333 7.68268 10.5916 7.25768 10.1C6.86602 9.64163 6.58268 9.24996 6.40768 8.92496L6.30768 8.67496C6.25768 8.48329 6.24102 8.37496 6.24102 8.25829C6.24102 7.95829 6.34935 7.69163 6.55768 7.48329L7.18268 6.83329C7.34935 6.66663 7.47435 6.50829 7.55768 6.36663C7.62435 6.25829 7.64935 6.16663 7.64935 6.08329C7.64935 6.01663 7.62435 5.91663 7.58268 5.81663C7.52435 5.68329 7.43268 5.53329 7.31602 5.37496L5.38268 2.64163C5.29935 2.52496 5.19935 2.44163 5.07435 2.38329C4.94102 2.32496 4.79935 2.29163 4.65768 2.29163ZM11.6243 12.5083L11.491 13.075L11.716 12.4916C11.6743 12.4833 11.641 12.4916 11.6243 12.5083Z" fill="#292D32"/>
<path d="M15.4167 8.12504C15.075 8.12504 14.7917 7.84171 14.7917 7.50004C14.7917 7.20004 14.4917 6.57504 13.9917 6.04171C13.5 5.51671 12.9583 5.20837 12.5 5.20837C12.1583 5.20837 11.875 4.92504 11.875 4.58337C11.875 4.24171 12.1583 3.95837 12.5 3.95837C13.3083 3.95837 14.1583 4.39171 14.9 5.18337C15.5917 5.92504 16.0417 6.83337 16.0417 7.50004C16.0417 7.84171 15.7583 8.12504 15.4167 8.12504Z" fill="#292D32"/>
<path d="M18.3333 8.12496C17.9917 8.12496 17.7083 7.84163 17.7083 7.49996C17.7083 4.62496 15.375 2.29163 12.5 2.29163C12.1583 2.29163 11.875 2.00829 11.875 1.66663C11.875 1.32496 12.1583 1.04163 12.5 1.04163C16.0583 1.04163 18.9583 3.94163 18.9583 7.49996C18.9583 7.84163 18.675 8.12496 18.3333 8.12496Z" fill="#292D32"/>
</svg>
