<svg width="57" height="56" viewBox="0 0 57 56" fill="none" xmlns="http://www.w3.org/2000/svg">
<g clip-path="url(#clip0_1579_14800)">
<path fill-rule="evenodd" clip-rule="evenodd" d="M37.7574 17.6324L41.2082 19.6263L28.4999 26.961L25.0491 24.9704L37.3079 17.8917L37.7574 17.6324ZM34.2017 16.1012L21.4223 23.4796C21.407 23.4884 21.3938 23.4982 21.3752 23.5081L21.0438 23.7006V27.9542L22.352 28.711V24.966H22.3552C22.3552 24.6565 22.516 24.3524 22.8048 24.1851L35.9538 16.5956L34.6512 15.842L34.2017 16.1012ZM41.7999 36.0337C41.9957 35.9221 42.1073 35.7263 42.1073 35.4999V21.1828L29.4045 28.5185V43.1901L41.7999 36.0337ZM14.8948 35.4999C14.8948 35.7263 15.0063 35.9221 15.2021 36.0337L27.5976 43.189V28.5174L24.1588 26.5334V30.2729C24.1588 30.7717 23.7552 31.1753 23.2565 31.1753C23.0607 31.1753 22.8813 31.1129 22.7326 31.0079L19.6909 29.2535C19.5534 29.1746 19.4392 29.0609 19.3597 28.9238C19.2802 28.7867 19.2383 28.6311 19.2381 28.4726H19.2348V23.6907L14.8937 21.186V35.4999H14.8948ZM28.1926 12.4667L15.7971 19.6253L20.147 22.1365L20.4729 21.9473C20.4882 21.9385 20.5068 21.9287 20.5221 21.9188L32.852 14.8007L28.8062 12.4667C28.6115 12.3551 28.3884 12.3551 28.1926 12.4667ZM48.3056 8.19775C43.236 3.12822 36.236 -0.00537109 28.4999 -0.00537109C24.3174 -0.00537109 20.3395 0.915566 16.7651 2.5715C13.9585 3.8665 11.4046 5.61869 9.18759 7.73291C8.91743 7.98994 8.48649 7.98666 8.2229 7.72088L4.90556 4.40682C4.70431 4.20557 4.41884 4.14979 4.15524 4.25807C3.89165 4.36635 3.72759 4.61135 3.72759 4.89682V15.621C3.72759 15.9995 4.03712 16.309 4.41884 16.309H15.1431C15.4285 16.309 15.6702 16.1482 15.7785 15.8846C15.8901 15.621 15.831 15.3323 15.6298 15.131L12.3277 11.829C12.191 11.6923 12.1232 11.5249 12.1265 11.3303C12.1298 11.1345 12.2042 10.9704 12.3431 10.837C14.1784 9.10994 16.2959 7.67494 18.6212 6.59869C21.6191 5.21291 24.9649 4.44072 28.4988 4.44072C35.0066 4.44072 40.8976 7.07557 45.1599 11.339C49.2932 15.4723 51.8974 21.1335 52.0516 27.4018C52.0604 27.7332 52.3338 28.0001 52.6652 28.0001H55.8831C56.057 28.0001 56.2024 27.9378 56.3227 27.8174C56.4441 27.6938 56.5021 27.5451 56.4967 27.3745C56.3348 19.8899 53.2351 13.1273 48.3056 8.19775ZM52.5832 39.6912H41.859C41.5735 39.6912 41.3285 39.852 41.2202 40.1156C41.112 40.3792 41.1677 40.6679 41.3723 40.8692L44.671 44.1712C44.811 44.3079 44.8788 44.4785 44.8756 44.6699C44.8723 44.8657 44.7979 45.0298 44.6557 45.1632C42.8054 46.9039 40.6866 48.335 38.3809 49.4015C35.3829 50.7873 32.0338 51.5628 28.4999 51.5628C21.9954 51.5628 16.1045 48.9246 11.841 44.6612C7.70774 40.5279 5.10353 34.8667 4.94603 28.5984C4.93946 28.267 4.66712 28.0001 4.33243 28.0001H1.11353C0.942901 28.0001 0.794151 28.0624 0.676026 28.186C0.55462 28.3074 0.496651 28.4562 0.498839 28.629C0.662901 36.1135 3.76696 42.8718 8.6965 47.8046C13.7671 52.872 20.7671 56.0056 28.4999 56.0056C32.6857 56.0056 36.6637 55.0846 40.2381 53.4287C43.0435 52.1326 45.5985 50.3815 47.8156 48.2662C48.0857 48.0092 48.5167 48.0124 48.7802 48.2782L52.0943 51.5923C52.2956 51.7935 52.5843 51.8526 52.8479 51.741C53.1115 51.6328 53.2756 51.3878 53.2756 51.1023V40.3813C53.2745 40.0018 52.9649 39.6912 52.5832 39.6912Z" fill="black"/>
</g>
<defs>
<clipPath id="clip0_1579_14800">
<rect width="56" height="56" fill="white" transform="translate(0.5)"/>
</clipPath>
</defs>
</svg>
