<svg width="51" height="50" viewBox="0 0 51 50" fill="none" xmlns="http://www.w3.org/2000/svg">
<path d="M3.93336 32.5295C3.18195 32.6017 2.6307 33.2678 2.70289 34.0192C2.76961 34.7269 3.3657 35.2573 4.06242 35.2573C4.10507 35.2573 4.14882 35.2551 4.19367 35.2508C4.47148 35.2245 11.081 34.5595 19.4187 30.517C24.3088 28.1458 28.7801 25.0964 32.7099 21.4531C37.2577 17.2367 41.0826 12.2109 44.097 6.50045L44.2621 6.97514C44.4579 7.5406 44.9873 7.89498 45.5538 7.89498C45.7026 7.89498 45.8535 7.87092 46.0023 7.81951C46.7154 7.57232 47.0938 6.79357 46.8455 6.07935L45.6326 2.58373C45.5135 2.24116 45.2633 1.95988 44.937 1.8017C44.7755 1.72321 44.6 1.6774 44.4208 1.66689C44.2415 1.65638 44.062 1.68138 43.8924 1.74045L40.3968 2.95342C39.6837 3.2006 39.3063 3.97935 39.5535 4.69357C39.8007 5.4067 40.5794 5.78404 41.2937 5.53685L41.5605 5.44389C38.7201 10.7672 35.1424 15.4572 30.9041 19.3979C27.1876 22.8542 22.9559 25.7504 18.3271 28.0069C10.4291 31.8569 4.02086 32.5197 3.93336 32.5284V32.5295Z" fill="black"/>
<path d="M13.6733 26.3387C20.9325 26.3387 26.8387 20.4325 26.8387 13.1733C26.8387 5.91406 20.9325 0.0078125 13.6733 0.0078125C6.41406 0.0078125 0.507812 5.91406 0.507812 13.1733C0.507812 20.4325 6.41406 26.3387 13.6733 26.3387ZM13.6733 2.74328C19.4242 2.74328 24.1044 7.42234 24.1044 13.1744C24.1044 18.9264 19.4253 23.6055 13.6733 23.6055C7.92125 23.6055 3.24219 18.9264 3.24219 13.1744C3.24219 7.42234 7.92125 2.74328 13.6733 2.74328Z" fill="black"/>
<path d="M13.4184 14.5165C13.5617 14.5438 14.8152 14.8009 14.8152 15.4932C14.8152 16.0182 14.3033 16.4459 13.6733 16.4459C13.2019 16.4459 12.772 16.1965 12.6036 15.8257C12.2908 15.1388 11.4803 14.8348 10.7934 15.1476C10.1066 15.4604 9.80251 16.2709 10.1153 16.9577C10.5408 17.8929 11.3414 18.5973 12.3072 18.9429V19.8124C12.3072 20.5671 12.9197 21.1796 13.6744 21.1796C14.4291 21.1796 15.0416 20.5671 15.0416 19.8124V18.9429C16.5061 18.4157 17.5506 17.0693 17.5506 15.4932C17.5506 13.6841 16.1288 12.247 13.9292 11.8291C13.7859 11.8018 12.5325 11.5448 12.5325 10.8524C12.5325 10.3263 13.0444 9.89977 13.6744 9.89977C14.1458 9.89977 14.5756 10.1491 14.7441 10.521C15.0569 11.2079 15.8663 11.512 16.5542 11.1991C17.2411 10.8863 17.5452 10.0759 17.2324 9.38898C16.8069 8.45383 16.0063 7.74836 15.0405 7.40273V6.5332C15.0405 5.77852 14.428 5.16602 13.6733 5.16602C12.9186 5.16602 12.3061 5.77852 12.3061 6.5332V7.40273C10.8416 7.92992 9.79704 9.27742 9.79704 10.8524C9.79704 12.6604 11.2189 14.0987 13.4195 14.5154L13.4184 14.5165ZM49.125 47.2579H45.0234V26.5346C45.0234 23.3682 42.4477 20.7924 39.2813 20.7924C36.1149 20.7924 33.5391 23.3682 33.5391 26.5346V47.2579H31.2433V36.5982C31.2433 33.4318 28.6675 30.856 25.5011 30.856C22.3347 30.856 19.7589 33.4318 19.7589 36.5982V47.2579H17.4631V41.8482C17.4631 38.6818 14.8874 36.106 11.7209 36.106C8.55454 36.106 5.97876 38.6818 5.97876 41.8482V47.2579H1.8772C1.12251 47.2579 0.51001 47.8704 0.51001 48.6251C0.51001 49.3798 1.12251 49.9923 1.8772 49.9923H49.1261C49.8808 49.9923 50.4933 49.3798 50.4933 48.6251C50.4933 47.8704 49.8808 47.2579 49.1261 47.2579H49.125Z" fill="black"/>
</svg>
