<svg width="20" height="20" viewBox="0 0 20 20" fill="none" xmlns="http://www.w3.org/2000/svg">
<path d="M10.0179 12.7017C9.60037 12.7017 9.32202 12.4234 9.32202 12.0058C9.39161 11.1012 9.87872 10.3357 10.5746 9.77903C10.9921 9.3615 11.4097 8.94397 11.4097 8.52644C11.4097 7.76097 10.7834 7.13468 10.0179 7.13468C9.25243 7.13468 8.62614 7.76097 8.62614 8.52644C8.62614 8.94397 8.34778 9.22232 7.93026 9.22232C7.51273 9.22232 7.23438 8.94397 7.23438 8.52644C7.23438 6.99551 8.48696 5.74292 10.0179 5.74292C11.5488 5.74292 12.8014 6.99551 12.8014 8.52644C12.7318 9.43109 12.2447 10.1966 11.5488 10.7533C11.1313 11.1708 10.7138 11.5883 10.7138 12.0058C10.7138 12.4234 10.4354 12.7017 10.0179 12.7017Z" fill="black"/>
<path d="M10.0181 14.7892C10.4025 14.7892 10.714 14.4777 10.714 14.0933C10.714 13.709 10.4025 13.3975 10.0181 13.3975C9.63382 13.3975 9.32227 13.709 9.32227 14.0933C9.32227 14.4777 9.63382 14.7892 10.0181 14.7892Z" fill="black"/>
<path d="M1.94649 18.8255C1.73773 18.6863 1.66814 18.408 1.66814 18.1296L2.29443 14.5806C-0.280325 10.3357 1.11144 4.76869 5.35631 2.26352C9.60118 -0.241653 15.1682 1.08052 17.743 5.3254C20.3178 9.57027 18.926 15.1373 14.6811 17.7121C11.8976 19.3822 8.3486 19.4518 5.56508 17.7817L2.71196 18.9647C2.36402 19.0343 2.15526 18.9647 1.94649 18.8255ZM5.56508 16.3203C5.70425 16.3203 5.84343 16.3899 5.91302 16.4595C9.5316 18.7559 14.2636 17.6425 16.4904 14.0935C18.7172 10.5445 17.6734 5.74292 14.1244 3.5161C10.5754 1.28929 5.84343 2.19393 3.54702 5.81251C1.94649 8.31768 1.94649 11.5883 3.54702 14.0935C3.61661 14.2327 3.6862 14.4414 3.61661 14.5806L3.19908 17.1554L5.21713 16.3203H5.56508Z" fill="black"/>
</svg>
