<svg width="24" height="24" viewBox="0 0 24 24" fill="none" xmlns="http://www.w3.org/2000/svg">
<path d="M19.3701 7.25171L14.0901 3.55754C12.6509 2.54921 10.4417 2.60421 9.05755 3.67671L4.46505 7.26088C3.54839 7.97588 2.82422 9.44255 2.82422 10.5975V16.9225C2.82422 19.26 4.72172 21.1667 7.05922 21.1667H16.9409C19.2784 21.1667 21.1759 19.2692 21.1759 16.9317V10.7167C21.1759 9.47921 20.3784 7.95755 19.3701 7.25171ZM12.6876 17.5C12.6876 17.8759 12.3759 18.1875 12.0001 18.1875C11.6242 18.1875 11.3126 17.8759 11.3126 17.5V14.75C11.3126 14.3742 11.6242 14.0625 12.0001 14.0625C12.3759 14.0625 12.6876 14.3742 12.6876 14.75V17.5Z" fill="#090909"/>
</svg>
