<svg width="24" height="24" viewBox="0 0 24 24" fill="none" xmlns="http://www.w3.org/2000/svg">
<path d="M17.3082 21.8541H6.69315C4.18148 21.8541 2.14648 19.8099 2.14648 17.2982V10.5057C2.14648 9.25906 2.91648 7.69156 3.90648 6.92156L8.84732 3.07156C10.3323 1.91656 12.7065 1.86156 14.2465 2.94323L19.9115 6.9124C21.0023 7.67323 21.8548 9.3049 21.8548 10.6341V17.3074C21.8548 19.8099 19.8198 21.8541 17.3082 21.8541ZM9.69065 4.15323L4.74982 8.00323C4.09898 8.51656 3.52148 9.68073 3.52148 10.5057V17.2982C3.52148 19.0491 4.94232 20.4791 6.69315 20.4791H17.3082C19.059 20.4791 20.4798 19.0582 20.4798 17.3074V10.6341C20.4798 9.75406 19.8473 8.53489 19.1231 8.0399L13.4582 4.07073C12.4132 3.33739 10.6898 3.37406 9.69065 4.15323Z" fill="#B5B5B5"/>
<path d="M12 18.1875C11.6242 18.1875 11.3125 17.8758 11.3125 17.5V14.75C11.3125 14.3742 11.6242 14.0625 12 14.0625C12.3758 14.0625 12.6875 14.3742 12.6875 14.75V17.5C12.6875 17.8758 12.3758 18.1875 12 18.1875Z" fill="#B5B5B5"/>
</svg>
