<svg width="385" height="209" viewBox="0 0 385 209" fill="none" xmlns="http://www.w3.org/2000/svg">
<path fill-rule="evenodd" clip-rule="evenodd" d="M336.985 140.827C336.426 143.105 286.606 145.548 227.721 147.644C167.326 149.791 97.4038 151.565 61.3292 152.435C46.178 152.8 37 153 37 153C38.9036 150.296 44.5711 127.828 47.453 120.089C53.5309 103.768 58.5084 86.8128 65.9314 71.0226C77.406 46.6069 92.3389 14.1307 122.431 8.67905C129.304 7.43564 135.627 7.9573 141.416 9.77461C156.69 14.5481 168.339 28.2776 177.098 42.2422C183.787 52.8845 189.333 64.1711 195.236 75.2486C200.807 85.7 206.187 98.5774 218.657 102.168C222.036 103.142 225.093 102.621 227.835 101.169C234.751 97.5427 239.729 88.0912 243.222 82.1524C250.356 69.9968 258.094 59.1713 272.476 55.5889C303.565 47.8503 337.832 137.314 336.985 140.827Z" fill="#FFF1E4"/>
<path fill-rule="evenodd" clip-rule="evenodd" d="M227.027 147.544C225.35 153.757 221.032 158.134 210.5 159.698C204.053 160.651 196.649 159.113 190.219 158.309C182.407 157.339 175.047 156.841 167.149 156.859C159.424 156.876 151.847 155.557 144.217 155.601C133.608 155.671 123.154 155.941 112.527 155.426C100.492 154.84 88.4142 155.085 76.3707 155.12C71.0006 155.138 65.0573 155.819 60 153.713C60.4258 153.233 60.921 152.787 61.4598 152.359C64.6574 149.869 69.5233 148.296 72.9731 146.417C79.3252 142.975 85.5379 139.27 91.7598 135.6C109.634 125.054 125.057 112.594 135.824 94.367C147.997 73.7723 153.637 50.4776 149.518 26.615C148.432 20.3153 145.521 13.8232 141.15 9C156.348 13.7969 167.939 27.5936 176.655 41.6266C183.311 52.3211 188.829 63.6629 194.703 74.7948C200.247 85.2974 205.599 98.2378 218.008 101.846C221.37 102.825 224.412 102.301 227.14 100.842C227.514 109.632 227.488 118.448 227.714 127.422C227.914 135.128 228.504 142.057 227.027 147.544Z" fill="#DDCEBF"/>
<path fill-rule="evenodd" clip-rule="evenodd" d="M326 139H113C134.121 132.822 152.871 103.847 164.251 90.0898C179.041 72.2112 190.212 46.7537 217.638 50.3416C218.397 50.4381 219.147 50.5606 219.879 50.7094C243.521 55.4262 255.442 84.0687 268 101.703C274.784 111.224 283.208 119.826 292.827 126.145C298.26 129.715 303.92 132.568 310.19 134.344C314.018 135.43 324.77 136.191 326 139Z" fill="#FCE3CC"/>
<path fill-rule="evenodd" clip-rule="evenodd" d="M326 139H270.844C262.56 134.956 255.932 129.325 251.811 119.236C245.279 103.257 243.519 86.1825 235.557 70.4624C232.047 63.5379 226.751 56.3289 220 52C243.615 56.6478 255.522 84.8717 268.066 102.248C274.842 111.63 283.257 120.107 292.865 126.333C298.291 129.851 303.945 132.662 310.208 134.413C314.032 135.482 324.772 136.232 326 139Z" fill="#FFE4CC"/>
<path fill-rule="evenodd" clip-rule="evenodd" d="M385 209H0L40.8129 134H336.127L385 209Z" fill="white"/>
<path fill-rule="evenodd" clip-rule="evenodd" d="M361 197H24L31.7641 180.533L32.5783 178.8L41.1126 160.695L41.1565 160.6L41.9704 158.867L48.5091 145H328.613L337.243 158.867L338.329 160.6L340.605 164.257L349.665 178.8L350.741 180.533L361 197Z" fill="#FFDF01"/>
<path d="M361 197H24L31.7641 180.533L32.5783 178.8L41.1126 160.695L41.1565 160.6L41.9704 158.867L48.5091 145H328.613L337.243 158.867L338.329 160.6L340.605 164.257L349.665 178.8L350.741 180.533L361 197Z" fill="url(#paint0_linear_1_120)"/>
<path fill-rule="evenodd" clip-rule="evenodd" d="M138 197H24L41.2674 160.726C41.3998 160.683 41.5325 160.64 41.6649 160.605C48.0332 158.847 51.4158 160.977 54.251 166.259C57.3866 172.105 60.9372 177.802 68.0739 179.266C74.2477 180.539 78.6461 177.213 84.0605 174.919C92.1509 171.481 95.313 173.992 101.814 178.382C109.498 183.578 113.976 178.088 121.819 176.2C129.194 174.425 136.172 174.884 137.629 183.292C138.185 186.505 136.975 188.661 136.702 191.796C136.507 194.117 137.161 195.614 138 197Z" fill="#FFF1E4"/>
<path fill-rule="evenodd" clip-rule="evenodd" d="M307 145C305.836 146.341 304.524 147.506 303.097 148.435C299.001 151.107 291.309 153.14 289.104 158.328C287.476 162.14 289.638 166.924 288.421 170.885C286.82 176.143 279.547 181.137 274.139 180.997C261.406 180.664 260.723 166.477 255.043 158.573C248.2 149.048 239.151 157.197 232.719 162.867C225.613 169.132 218.043 169.719 213.904 160.466C209.116 149.758 199.997 154.464 190.205 156.838C180.719 159.143 160.958 163.901 160.048 148.934C159.96 147.567 159.995 146.253 160.135 145H307Z" fill="#FFF1E4"/>
<path fill-rule="evenodd" clip-rule="evenodd" d="M361 197H300.864C300.422 196.222 300.066 195.489 299.806 194.808C297.058 187.567 301.619 181.653 309.205 182.107C315.525 182.483 320.649 187.733 326.987 188.3C335.007 189.008 334.556 181.767 335.944 175.53C336.706 172.08 338.146 167.083 340.799 164L361 197Z" fill="#FFF1E4"/>
<path fill-rule="evenodd" clip-rule="evenodd" d="M349.923 178.8L351 180.533H270.873C271.928 186.022 272.979 191.511 274.036 197H272.25C271.197 191.511 270.143 186.022 269.09 180.533H189.165C189.172 186.022 189.179 191.511 189.185 197H187.434C187.428 191.511 187.421 186.022 187.414 180.533H111.847C110.792 186.022 109.737 191.511 108.684 197H106.907C107.96 191.511 109.014 186.022 110.067 180.533H32L32.8142 178.8H110.4C111.564 172.733 112.728 166.667 113.893 160.6H41.3931L42.207 158.867H114.225C115.112 154.244 115.999 149.622 116.886 145H118.672C117.785 149.622 116.897 154.244 116.009 158.867H187.389C187.383 154.244 187.377 149.622 187.372 145H189.123C189.128 149.622 189.134 154.244 189.139 158.867H264.932C264.045 154.244 263.158 149.622 262.271 145H264.048C264.935 149.622 265.824 154.244 266.711 158.867H337.501L338.587 160.6H267.044C268.208 166.667 269.374 172.733 270.54 178.8H349.923ZM187.391 160.6H115.676C114.51 166.667 113.346 172.733 112.18 178.8H187.412C187.405 172.733 187.398 166.667 187.391 160.6ZM265.264 160.6H189.141C189.149 166.667 189.156 172.733 189.163 178.8H268.757C267.593 172.733 266.429 166.667 265.264 160.6Z" fill="white"/>
<path fill-rule="evenodd" clip-rule="evenodd" d="M138 8.17893C138 11.4183 133.885 18.4247 131.558 22.1288C130.828 23.2904 129.172 23.2904 128.442 22.1288C126.115 18.4247 122 11.4183 122 8.17893C122 3.66169 125.582 0 130 0C134.418 0 138 3.66169 138 8.17893Z" fill="#A07855"/>
<path fill-rule="evenodd" clip-rule="evenodd" d="M135 8.50013C135 10.9853 132.761 13 130 13C127.239 13 125 10.9853 125 8.50013C125 6.01473 127.239 4 130 4C132.761 4 135 6.01473 135 8.50013Z" fill="white"/>
<path fill-rule="evenodd" clip-rule="evenodd" d="M104 175.179C104 178.418 99.8851 185.425 97.5578 189.129C96.8278 190.29 95.172 190.29 94.4422 189.129C92.1147 185.425 88 178.418 88 175.179C88 170.662 91.5819 167 96 167C100.418 167 104 170.662 104 175.179Z" fill="#A07855"/>
<path fill-rule="evenodd" clip-rule="evenodd" d="M101 174.5C101 176.985 98.7613 179 96 179C93.2384 179 91 176.985 91 174.5C91 172.015 93.2384 170 96 170C98.7613 170 101 172.015 101 174.5Z" fill="white"/>
<path fill-rule="evenodd" clip-rule="evenodd" d="M49 152.623C49 154.454 46.4283 158.414 44.9736 160.508C44.5173 161.164 43.4825 161.164 43.0264 160.508C41.5717 158.414 39 154.454 39 152.623C39 150.07 41.2387 148 43.9999 148C46.7613 148 49 150.07 49 152.623Z" fill="#A07855"/>
<path fill-rule="evenodd" clip-rule="evenodd" d="M48 152C48 153.657 46.433 155 44.4998 155C42.567 155 41 153.657 41 152C41 150.343 42.567 149 44.4998 149C46.433 149 48 150.343 48 152Z" fill="white"/>
<path fill-rule="evenodd" clip-rule="evenodd" d="M306 173.978C306 175.95 303.428 180.215 301.974 182.47C301.517 183.177 300.482 183.177 300.026 182.47C298.572 180.215 296 175.95 296 173.978C296 171.229 298.239 169 301 169C303.761 169 306 171.229 306 173.978Z" fill="#A07855"/>
<path fill-rule="evenodd" clip-rule="evenodd" d="M304 173C304 174.657 302.657 176 301 176C299.343 176 298 174.657 298 173C298 171.343 299.343 170 301 170C302.657 170 304 171.343 304 173Z" fill="white"/>
<path fill-rule="evenodd" clip-rule="evenodd" d="M281 69.9114C281 71.461 278.942 74.812 277.779 76.5832C277.414 77.1389 276.586 77.1389 276.221 76.5832C275.058 74.812 273 71.461 273 69.9114C273 67.7512 274.791 66 277 66C279.209 66 281 67.7512 281 69.9114Z" fill="#A07855"/>
<path fill-rule="evenodd" clip-rule="evenodd" d="M279 71C279 72.1045 277.881 73 276.5 73C275.119 73 274 72.1045 274 71C274 69.8955 275.119 69 276.5 69C277.881 69 279 69.8955 279 71Z" fill="white"/>
<path fill-rule="evenodd" clip-rule="evenodd" d="M170.509 63.1276C170.343 60.9534 170.251 58.6475 169.898 56.4596L183 45.0596C181.241 37.9101 176.124 39.0695 176.124 39.0695C159.253 43.0772 155.386 49.5976 154.789 50.8403C154.757 50.8796 154.726 50.9178 154.695 50.9577C153.016 53.099 152.351 55.9992 152.215 58.9145C151.979 63.958 152.661 68.9886 152.619 74.0298C152.586 78.0594 152.251 82.0207 152.074 86.0392C151.906 89.8624 151.855 93.8933 153.832 97.0189C156.185 100.739 160.819 100.961 164.44 101C165.996 101.016 167.733 100.5 168.963 99.2622C170.389 97.8274 170.859 94.8888 171.071 92.7775C171.559 87.903 171.2 82.6461 171.047 77.759C170.895 72.8747 170.883 68.0038 170.509 63.1276Z" fill="#A19081"/>
<path d="M170.509 63.1276C170.343 60.9534 170.251 58.6475 169.898 56.4596L183 45.0596C181.241 37.9101 176.124 39.0695 176.124 39.0695C159.253 43.0772 155.386 49.5976 154.789 50.8403C154.757 50.8796 154.726 50.9178 154.695 50.9577C153.016 53.099 152.351 55.9992 152.215 58.9145C151.979 63.958 152.661 68.9886 152.619 74.0298C152.586 78.0594 152.251 82.0207 152.074 86.0392C151.906 89.8624 151.855 93.8933 153.832 97.0189C156.185 100.739 160.819 100.961 164.44 101C165.996 101.016 167.733 100.5 168.963 99.2622C170.389 97.8274 170.859 94.8888 171.071 92.7775C171.559 87.903 171.2 82.6461 171.047 77.759C170.895 72.8747 170.883 68.0038 170.509 63.1276Z" fill="url(#paint1_linear_1_120)"/>
<path fill-rule="evenodd" clip-rule="evenodd" d="M152.782 76.9101C152.782 76.9101 152.005 83.4718 152 89.8217C151.998 91.5311 153.005 92.9743 154.348 93.1806C156.396 93.4948 159.589 93.8994 162.968 93.9987C164.822 94.0534 166.402 92.3219 166.635 89.9977C166.899 87.3615 167.093 83.0399 166.954 76L152.782 76.9101Z" fill="#A19081"/>
<path d="M152.782 76.9101C152.782 76.9101 152.005 83.4718 152 89.8217C151.998 91.5311 153.005 92.9743 154.348 93.1806C156.396 93.4948 159.589 93.8994 162.968 93.9987C164.822 94.0534 166.402 92.3219 166.635 89.9977C166.899 87.3615 167.093 83.0399 166.954 76L152.782 76.9101Z" fill="url(#paint2_linear_1_120)"/>
<path fill-rule="evenodd" clip-rule="evenodd" d="M154.6 75.0038C156.375 75.1576 161.824 75.5434 167.665 75.0928C168.548 75.0248 169.211 76.0836 168.938 77.1304C168.385 79.2415 166.94 82.1049 163.165 81.9777C163.165 81.9777 158.25 82.1636 153.15 81.4617C152.64 81.3917 152.206 80.9499 152.074 80.3326C151.875 79.3994 151.984 77.8241 153.564 75.5413C153.822 75.1687 154.206 74.9696 154.6 75.0038Z" fill="#FFFCF9"/>
<path fill-rule="evenodd" clip-rule="evenodd" d="M229.862 52.2161C225.01 55.595 218.506 58.8677 213.395 62.0569C212.655 62.5183 211.797 63.0933 210.99 62.7562C210.453 62.5319 210.145 61.9877 209.877 61.4808C206.597 55.2808 203.376 48.4087 198.755 43C198.149 43.7568 197.209 44.2558 196.175 44.2749C194.666 44.3023 193.496 44.5008 192.238 45.2279C191.424 45.6992 190.994 46.411 190.748 47.2049C190.661 47.4858 190.59 47.7711 190.528 48.058C190.512 48.134 190.428 48.6354 190.395 48.8135C190.378 49.0062 190.326 49.5087 190.32 49.5866C190.294 49.8937 190.273 50.2013 190.251 50.5086C190.185 51.4168 190.112 52.3258 190 53.2296C192.191 59.1802 194.894 64.9872 198.863 69.9649C200.917 72.5399 203.476 74.9736 206.729 75.7236C212.773 77.1169 220.043 72.9507 224.809 69.746C227.33 68.0511 229.693 66.1082 231.896 63.9848C233.173 62.7541 234.792 61.1338 235.964 59.7911C236.515 59.1593 230.625 51.6847 229.862 52.2161Z" fill="#FFFCF9"/>
<path fill-rule="evenodd" clip-rule="evenodd" d="M200 159.95C200 159.95 201.885 173.903 200.457 179L210.166 177.822L212 160.858C212 160.858 206.641 157.372 200 159.95Z" fill="#FBB37E"/>
<path fill-rule="evenodd" clip-rule="evenodd" d="M226.082 194.319C224.009 194.958 218.784 195.972 212.234 192.851C212.099 192.783 211.958 192.733 211.806 192.697C210.665 192.416 205.455 191.171 202.508 191.025C202.508 191.025 199.87 190.5 197.846 189.649C197.258 189.402 196.92 188.806 197.016 188.2C197.089 187.711 197.207 187.07 197.379 186.359C197.796 184.61 198.548 182.42 199.84 180.911C199.84 180.911 200.145 179.597 200.659 178.753C200.819 178.495 201.166 178.415 201.437 178.563C202.158 178.965 203.77 179.603 206.069 178.775L209.894 178.019C210.292 177.918 210.674 178.228 210.629 178.625L210.547 179.328L219.006 188.1L225.171 189.686C225.483 189.767 225.745 189.964 225.901 190.235C226.091 190.566 226.356 191.063 226.583 191.631C226.747 192.036 226.891 192.471 226.978 192.906C227.1 193.524 226.711 194.126 226.082 194.319Z" fill="#6B4C32"/>
<path fill-rule="evenodd" clip-rule="evenodd" d="M177.612 159.739C177.612 159.739 178.641 173.919 177 179L186.319 178.266L189 161.219C189 161.219 184.084 157.447 177.612 159.739Z" fill="#FBB37E"/>
<path fill-rule="evenodd" clip-rule="evenodd" d="M201.041 195.523C198.986 196.072 193.839 196.845 187.618 193.318C187.49 193.242 187.355 193.183 187.209 193.139C186.112 192.794 181.098 191.254 178.233 190.956C178.233 190.956 175.689 190.284 173.761 189.311C173.201 189.027 172.903 188.4 173.028 187.784C173.126 187.287 173.274 186.637 173.479 185.918C173.977 184.147 174.826 181.944 176.166 180.464C176.166 180.464 176.532 179.134 177.078 178.296C177.247 178.04 177.59 177.975 177.846 178.141C178.527 178.589 180.066 179.324 182.338 178.843L186.119 178.013C186.512 177.93 186.869 178.266 186.804 178.67L186.687 179.386L194.47 188.797L200.397 190.734C200.697 190.831 200.942 191.047 201.08 191.332C201.248 191.681 201.479 192.204 201.671 192.796C201.81 193.219 201.927 193.672 201.988 194.122C202.075 194.761 201.664 195.358 201.041 195.523Z" fill="#6B4C32"/>
<path fill-rule="evenodd" clip-rule="evenodd" d="M203.716 86C203.716 86 216.735 128.81 211.939 168.843C211.939 168.843 200.747 169.769 199.377 168.843C199.377 168.843 198.92 117.702 192.753 107.752L190.241 107.983L193.21 141.306C193.21 141.306 192.753 161.669 187.957 170L176.993 166.992L179.277 142L172.197 110.298C172.197 110.298 166.03 97.3388 170.826 87.6198L203.716 86Z" fill="#A07855"/>
<path d="M203.716 86C203.716 86 216.735 128.81 211.939 168.843C211.939 168.843 200.747 169.769 199.377 168.843C199.377 168.843 198.92 117.702 192.753 107.752L190.241 107.983L193.21 141.306C193.21 141.306 192.753 161.669 187.957 170L176.993 166.992L179.277 142L172.197 110.298C172.197 110.298 166.03 97.3388 170.826 87.6198L203.716 86Z" fill="url(#paint3_linear_1_120)"/>
<path fill-rule="evenodd" clip-rule="evenodd" d="M199.212 167.351C201.195 167.139 206.497 166.697 211.75 167.32C212.358 167.392 212.85 167.919 212.93 168.599C213.044 169.565 213.072 171.078 212.592 172.901C212.425 173.537 211.915 173.982 211.324 173.99C209.068 174.02 203.229 174.025 199.244 173.374C198.717 173.288 198.3 172.838 198.203 172.25C198.044 171.291 197.881 169.776 198.124 168.433C198.23 167.843 198.678 167.408 199.212 167.351Z" fill="#DDB592"/>
<path fill-rule="evenodd" clip-rule="evenodd" d="M175.265 167.382C177.377 167.177 183.029 166.737 188.638 167.214C189.287 167.27 189.818 167.717 189.911 168.303C190.043 169.134 190.09 170.437 189.599 172.012C189.427 172.562 188.888 172.951 188.257 172.964C185.852 173.016 179.623 173.086 175.365 172.57C174.803 172.502 174.353 172.119 174.243 171.614C174.062 170.79 173.871 169.486 174.116 168.326C174.223 167.817 174.696 167.437 175.265 167.382Z" fill="#DDB592"/>
<path fill-rule="evenodd" clip-rule="evenodd" d="M205.072 89.2574C185.504 94.2886 170.032 90.8582 170.032 90.8582C169.04 89.9275 168.856 88.2443 169.092 86.3256C169.67 81.6372 172.763 75.5357 172.763 75.5357L172.608 74.2939L169.495 49.2564L169.122 46.2627L172.952 44.5592L176.742 42.8714L185.049 39.1735C188.351 38.7136 191.356 39.2351 193.675 39.9531C193.848 40.0057 194.016 40.0607 194.18 40.1155C196.758 40.9799 198.36 42.032 198.36 42.032C201.09 45.2337 202.683 55.525 202.683 55.525L203.607 66.9482L204.958 83.6545C207.234 88.2284 205.072 89.2574 205.072 89.2574Z" fill="#FFFCF9"/>
<path fill-rule="evenodd" clip-rule="evenodd" d="M184.853 66.6273C184.853 66.6273 184.628 83.9995 169.153 87C169.756 82.2093 172.982 75.9747 172.982 75.9747L172.821 74.7058C177.828 71.0813 182.655 63.6572 171.32 50.2694L169.573 49.122L167.047 47.4652C167.047 47.4652 166.27 46.8904 171.045 44.1843C171.622 43.8573 172.415 44.0043 173.179 44.3224C173.823 44.5862 174.442 44.9742 174.891 45.3038C178.505 47.9466 186.152 54.3964 184.853 66.6273Z" fill="#A07855"/>
<path fill-rule="evenodd" clip-rule="evenodd" d="M193.719 52.2155C193.241 53.446 191.972 54.184 190.681 53.9601C182.633 52.5525 177.828 46.1366 176 43.1662L184.91 39.1868C188.714 38.6552 192.153 39.3417 194.703 40.2005C195.491 46.1242 194.554 50.0645 193.719 52.2155Z" fill="#FBB37E"/>
<path fill-rule="evenodd" clip-rule="evenodd" d="M195.008 41.0191C194.753 41.0501 200.917 52.0781 204 67C204 67 204 45.6426 199.118 42.5601C199.118 42.5601 196.806 40.7987 195.008 41.0191Z" fill="#A07855"/>
<path fill-rule="evenodd" clip-rule="evenodd" d="M209.833 40.2414C209.833 40.2414 240.755 36.9828 249.961 30C249.961 30 250.434 58.8619 248.073 75.3879C248.073 75.3879 234.146 82.6034 207 84L209.833 40.2414Z" fill="white"/>
<path fill-rule="evenodd" clip-rule="evenodd" d="M213.07 41.7162C213.07 41.7162 211.69 73.5174 211 81C211 81 236.069 79.3632 246.189 73.0497C246.189 73.0497 248.719 47.562 247.799 34C247.799 34 235.149 40.547 213.07 41.7162Z" fill="#FFDF01"/>
<path d="M213.07 41.7162C213.07 41.7162 211.69 73.5174 211 81C211 81 236.069 79.3632 246.189 73.0497C246.189 73.0497 248.719 47.562 247.799 34C247.799 34 235.149 40.547 213.07 41.7162Z" fill="url(#paint4_linear_1_120)"/>
<path fill-rule="evenodd" clip-rule="evenodd" d="M204.601 76C205.14 76 205.646 75.9715 206.169 75.9166C209.123 75.6061 212.195 74.3202 214.803 73.0093C215.11 72.8549 217.848 71.5265 216.329 71.211C215.362 71.0098 214.433 71.4125 213.489 71.5004C214.215 70.8369 215.336 70.4493 216.156 69.8497C216.566 69.5497 218.066 68.5831 217.998 68.0213C217.86 66.887 213.331 69.4164 212.807 69.5899C213.909 68.8458 215.102 68.05 216.093 67.1679C216.454 66.8468 217.923 65.4681 217.392 64.9004C216.922 64.3987 215.233 65.7403 214.868 66.007C214.243 66.4637 213.589 66.8703 212.966 67.3316C212.595 67.6062 212.223 67.9529 211.768 68.0796C212.613 67.0245 213.712 66.1664 214.455 65.0142C214.644 64.7217 215.611 63.0694 214.659 63.0007C214.361 62.9791 213.913 63.4641 213.697 63.6275C213.218 63.9903 212.705 64.3119 212.224 64.6752C211.499 65.2233 208.848 66.7077 208.503 67.0842C208.404 66.0492 208.726 64.9017 208.453 63.8889C207.529 64.6493 206.497 65.2869 205.582 66.0637C204.753 66.7668 202.072 69.5859 202 70.1256C202.044 70.0926 201.988 70.1037 202.034 70.0865C202.44 71.662 203.062 73.0495 203.754 74.5243C203.969 74.9824 204.254 75.6325 204.601 76Z" fill="#FBB37E"/>
<path fill-rule="evenodd" clip-rule="evenodd" d="M171.28 46.3299C170.089 45.8583 168.707 45.8906 167.546 46.4379C165.848 47.2379 164.752 49.0167 164.309 50.8654C163.865 52.714 163.986 54.649 164.142 56.5454C164.748 63.8963 165.879 71.3094 168.835 78.0459C170.182 81.1152 172.049 84.1653 174.99 85.6983C180.454 88.5462 188.445 86.1298 193.797 84.0722C196.627 82.984 199.367 81.6095 201.997 80.0166C203.522 79.0932 205.468 77.8623 206.919 76.8018C207.602 76.3027 203.759 67.4096 202.898 67.7573C197.421 69.9688 190.383 71.6762 184.703 73.6353C183.881 73.9185 182.918 74.2869 182.225 73.7559C181.763 73.402 181.6 72.7837 181.465 72.2123C179.755 64.9494 178.288 56.9727 174.901 50.2917C174.151 48.8131 173.208 47.3374 171.764 46.5559C171.607 46.471 171.445 46.3956 171.28 46.3299Z" fill="#FFFCF9"/>
<path fill-rule="evenodd" clip-rule="evenodd" d="M249.45 54.1577C250.915 54.0078 251.094 55.6947 250.316 56.4647C251.177 56.6289 250.807 58.0296 250.404 58.4325C251.536 59.1386 250.865 60.3196 249.966 60.8283C250.326 61.1896 250.42 62.2087 250.414 62.7006C250.407 63.4156 250.135 63.7605 249.32 63.9408C248.27 64.1731 241.19 63.7359 242.086 62.3751C242.542 61.6838 245.201 61.7527 245.968 61.6592C245.301 61.4492 241.309 60.708 242.104 59.3754C242.597 58.5489 245.32 59.3028 246.152 59.262C245.19 59.295 241.791 57.9783 242.31 56.5876C242.647 55.6852 245.915 56.2335 246.619 56.4044C245.799 56.0931 242.186 53.9748 245.214 54.0002C246.799 54.0136 248.364 54.1711 249.45 54.1577Z" fill="#FBB37E"/>
<path fill-rule="evenodd" clip-rule="evenodd" d="M171.493 10.8929C169.668 13.0194 166.671 13.231 166.097 16.4747C165.699 18.7232 166.599 21.303 167.464 23.3156C170.174 29.6165 178.132 35.569 184.946 34.9565C185.442 27.9768 182.443 19.0282 179.14 12.9248C177.67 10.2105 175.408 9.05574 171.493 10.8929Z" fill="#6B4C32"/>
<path fill-rule="evenodd" clip-rule="evenodd" d="M191 30.7857L190.342 41.8518L189.918 49C182.164 47.5715 180 43.4644 180 43.4644C180 43.4644 180.485 40.009 180.977 36.4749C181.477 32.8678 181.984 29.1802 181.984 29L191 30.7857Z" fill="#FBB37E"/>
<path fill-rule="evenodd" clip-rule="evenodd" d="M191 30.6674L190.343 41C188.553 40.7333 186.689 40.1029 185.449 39.3527C183.944 38.4406 182.18 37.2935 181.032 36.0162C181.022 36.0045 181.011 35.9929 181 35.9794C181.498 32.6115 182.004 29.1682 182.004 29L191 30.6674Z" fill="#DC9866"/>
<path fill-rule="evenodd" clip-rule="evenodd" d="M195.944 9.90186L198.928 24.8159C198.987 25.1113 199.011 25.413 198.995 25.7138C198.922 27.0851 198.521 31.1172 196.342 34.3749C195.075 36.2687 192.812 37.2567 190.555 36.9424C187.156 36.4691 181.775 34.9113 178.525 29.8858C178.435 29.7459 178.366 29.5926 178.317 29.4333L174.079 15.5385C173.988 15.2414 173.975 14.9276 174.042 14.624C174.692 11.6592 178.937 -3.63866 195.26 8.81229C195.612 9.08103 195.857 9.46739 195.944 9.90186Z" fill="#FBB37E"/>
<path fill-rule="evenodd" clip-rule="evenodd" d="M177.878 25.8827C177.148 25.2102 176.864 24.128 175.959 23.5561C175.115 23.0217 173.575 22.7007 172.734 23.4059C171.083 24.7909 172.577 27.6556 173.704 28.728C174.587 29.5674 178.063 32.3943 178.857 30.1556C179.439 28.5171 178.065 27.2834 177.878 25.8827Z" fill="#FBB37E"/>
<path fill-rule="evenodd" clip-rule="evenodd" d="M170.145 16.2438C171.669 15.5985 173.98 17.4048 175.568 17.8979C177.873 18.6136 181.701 19.4123 184.115 18.7563C187.515 17.8318 185.709 15.5246 183.541 14.2384C185.321 14.9815 188.764 16.6015 190.83 15.7299C192.425 15.0567 192.868 13.379 191.103 12.1868C192.977 12.4977 195.507 13.5206 197.483 12.7837C201.032 11.4601 197.823 9.83473 195.803 9.11449C198.351 9.12766 204.934 5.03842 200.507 3.42191C198.119 2.54983 194.527 3.89651 192.016 3.93441C189.437 3.97337 186.835 3.71162 184.243 3.44341C182.081 3.21954 179.488 2.72048 177.306 3.20369C174.456 3.83524 171.545 6.56731 169.177 8.27976C165.197 11.157 164.363 15.4373 170.145 16.2438Z" fill="#6B4C32"/>
<defs>
<linearGradient id="paint0_linear_1_120" x1="24" y1="5345" x2="24" y2="145" gradientUnits="userSpaceOnUse">
<stop stop-color="#FFE006"/>
<stop offset="1" stop-color="#FFFB8C"/>
</linearGradient>
<linearGradient id="paint1_linear_1_120" x1="152" y1="6239" x2="152" y2="39" gradientUnits="userSpaceOnUse">
<stop stop-color="#A07855"/>
<stop offset="1" stop-color="#DDB592"/>
</linearGradient>
<linearGradient id="paint2_linear_1_120" x1="152" y1="1876" x2="152" y2="76" gradientUnits="userSpaceOnUse">
<stop stop-color="#A07855"/>
<stop offset="1" stop-color="#DDB592"/>
</linearGradient>
<linearGradient id="paint3_linear_1_120" x1="169" y1="8486" x2="169" y2="86" gradientUnits="userSpaceOnUse">
<stop stop-color="#A07855"/>
<stop offset="1" stop-color="#DDB592"/>
</linearGradient>
<linearGradient id="paint4_linear_1_120" x1="211" y1="4734" x2="211" y2="34" gradientUnits="userSpaceOnUse">
<stop stop-color="#FFE006"/>
<stop offset="1" stop-color="#FFFB8C"/>
</linearGradient>
</defs>
</svg>
