<svg width="393" height="236" viewBox="0 0 393 236" fill="none" xmlns="http://www.w3.org/2000/svg">
<path fill-rule="evenodd" clip-rule="evenodd" d="M159.87 225.507C157.051 225.496 154.229 225.383 151.405 225.151C120.446 222.61 84.5832 207.807 69.1692 180.856C55.693 157.295 50.4016 126.791 56.5378 100.513C62.3057 75.8126 80.1879 55.8036 105.228 48.206C133.389 39.6616 164.513 50.0432 192.224 38.3743C232.556 21.3902 283.248 34.8786 311.515 67.1929C336.576 95.8431 342.641 142.041 334.775 177.835C330.799 195.926 320.34 213.349 303.692 222.457C290.446 229.704 274.434 231.132 259.287 229.244C247.108 227.725 235.896 223.748 224.18 220.474C214.789 217.85 207.083 219.216 197.471 221.121C185.101 223.572 172.522 225.56 159.87 225.507Z" fill="#FFF1E4"/>
<path fill-rule="evenodd" clip-rule="evenodd" d="M314.721 184C314.721 184 306.48 176.533 311.774 165.68C317.067 154.827 315.744 151.055 313.891 148C318.391 154.827 317.404 162.606 314.721 167.541C312.039 172.475 311.613 179.191 314.721 184Z" fill="#6B4C32"/>
<path fill-rule="evenodd" clip-rule="evenodd" d="M323 192H304L305.855 217H321.145L323 192Z" fill="#FEFEFE"/>
<path fill-rule="evenodd" clip-rule="evenodd" d="M325 193H301V191H325V193Z" fill="#6B4C32"/>
<path fill-rule="evenodd" clip-rule="evenodd" d="M320.488 188H306.512C305.125 188 304 189.33 304 190.97V191H323V190.97C323 189.33 321.876 188 320.488 188Z" fill="#6B4C32"/>
<path fill-rule="evenodd" clip-rule="evenodd" d="M321.57 206L322 200H305L305.43 206H321.57Z" fill="#A07855"/>
<path fill-rule="evenodd" clip-rule="evenodd" d="M323.069 190.645V190.619C323.069 189.173 321.988 188 320.655 188H314C315.334 188 316.415 189.173 316.415 190.619V190.645H318.345V193.585H316.297L314.632 217H321.286L322.952 193.585H325V190.645H323.069Z" fill="#6B4C32"/>
<path fill-rule="evenodd" clip-rule="evenodd" d="M214.541 32.6488C214.541 32.6488 218.91 18.5911 212.527 14.5082C208.47 12.3684 206.254 15.0337 206.254 15.0337C206.254 15.0337 204.346 5.09417 191.201 8.37726C182.686 10.5041 180 6 180 6C180 6 179.92 18.4604 185.784 22.1654C190.03 25.9014 188.402 36 188.402 36L214.541 32.6488Z" fill="#6B4C32"/>
<path fill-rule="evenodd" clip-rule="evenodd" d="M185.955 22.1654C190.326 25.9014 188.65 36 188.65 36L194.368 35.2879C200.24 30.0793 206.869 23.4844 205.906 21C204.219 16.6461 199.348 12.3003 190.364 11.8036C181.38 11.3065 180 6 180 6C180 6 179.918 18.4604 185.955 22.1654Z" fill="#6B4C32"/>
<path fill-rule="evenodd" clip-rule="evenodd" d="M201.875 56L176.247 64.6752L172 154.057C172 154.057 181.059 158 203 158C203 65.0986 203 57.3876 203 57.3876L201.875 56Z" fill="#B2824F"/>
<path d="M201.875 56L176.247 64.6752L172 154.057C172 154.057 181.059 158 203 158C203 65.0986 203 57.3876 203 57.3876L201.875 56Z" fill="url(#paint0_linear_373_15104)"/>
<path fill-rule="evenodd" clip-rule="evenodd" d="M204.017 56L227.164 64.6752L231 154.057C231 154.057 222.817 158 203 158C203 65.0986 203 57.3876 203 57.3876L204.017 56Z" fill="#B2824F"/>
<path d="M204.017 56L227.164 64.6752L231 154.057C231 154.057 222.817 158 203 158C203 65.0986 203 57.3876 203 57.3876L204.017 56Z" fill="url(#paint1_linear_373_15104)"/>
<path fill-rule="evenodd" clip-rule="evenodd" d="M176 64L175.892 64.0394C169.096 66.5181 163.665 71.8515 160.975 78.69L136 140.416L157.237 143L175.215 98.0062L176 64Z" fill="#FBB37E"/>
<path fill-rule="evenodd" clip-rule="evenodd" d="M227 64L227.111 64.0394C234.077 66.5181 239.643 71.8515 242.401 78.69L268 140.416L246.232 143L227.804 98.0062L227 64Z" fill="#FBB37E"/>
<path fill-rule="evenodd" clip-rule="evenodd" d="M252 102.863L242.193 78.7676C239.473 71.893 233.982 66.5314 227.109 64.0396L227 64L227.793 98.1859L232.944 111C239.819 105.154 246.716 103.256 252 102.863Z" fill="#B2824F"/>
<path d="M252 102.863L242.193 78.7676C239.473 71.893 233.982 66.5314 227.109 64.0396L227 64L227.793 98.1859L232.944 111C239.819 105.154 246.716 103.256 252 102.863Z" fill="url(#paint2_linear_373_15104)"/>
<path fill-rule="evenodd" clip-rule="evenodd" d="M152 102.863L161.414 78.7676C164.025 71.893 169.297 66.5314 175.895 64.0396L176 64L175.238 98.1859L170.294 111C163.694 105.154 157.072 103.256 152 102.863Z" fill="#B2824F"/>
<path d="M152 102.863L161.414 78.7676C164.025 71.893 169.297 66.5314 175.895 64.0396L176 64L175.238 98.1859L170.294 111C163.694 105.154 157.072 103.256 152 102.863Z" fill="url(#paint3_linear_373_15104)"/>
<path fill-rule="evenodd" clip-rule="evenodd" d="M202.565 66H202.435C198.881 66 196 63.0923 196 59.5058V44H209V59.5058C209 63.0923 206.119 66 202.565 66Z" fill="#FBB37E"/>
<path fill-rule="evenodd" clip-rule="evenodd" d="M208.896 56C208.933 56 208.964 55.9957 209 55.9954V44H202.932L196 46.5364C196 46.5364 198.579 56 208.896 56Z" fill="#4C2A29"/>
<path fill-rule="evenodd" clip-rule="evenodd" d="M217 35.5002C217 37.9854 215.209 40 213 40C210.791 40 209 37.9854 209 35.5002C209 33.015 210.791 31 213 31C215.209 31 217 33.015 217 35.5002Z" fill="#FBB37E"/>
<path fill-rule="evenodd" clip-rule="evenodd" d="M213.876 39.9118C214.466 37.3029 214.811 33.9659 215 31.5516C214.426 31.2112 213.779 31 213.081 31C210.827 31 209 33.0146 209 35.5002C209 37.9854 210.827 40 213.081 40C213.353 40 213.618 39.9676 213.876 39.9118Z" fill="#6B4C32"/>
<path fill-rule="evenodd" clip-rule="evenodd" d="M187 35.5002C187 37.9854 188.791 40 191 40C193.209 40 195 37.9854 195 35.5002C195 33.015 193.209 31 191 31C188.791 31 187 33.015 187 35.5002Z" fill="#FBB37E"/>
<path fill-rule="evenodd" clip-rule="evenodd" d="M190.125 39.9118C189.535 37.3029 189.189 33.9659 189 31.5516C189.574 31.2112 190.221 31 190.919 31C193.173 31 195 33.0146 195 35.5002C195 37.9854 193.173 40 190.919 40C190.647 40 190.382 39.9676 190.125 39.9118Z" fill="#6B4C32"/>
<path fill-rule="evenodd" clip-rule="evenodd" d="M209.358 21H202H194.642L191 28.9688L191.613 36.8551C191.94 41.0635 194.655 48.3299 198.475 50.1156C199.609 50.6464 200.812 51 202 51C203.189 51 204.391 50.6464 205.526 50.1156C209.345 48.3299 212.06 41.0635 212.388 36.8551L213 28.9688L209.358 21Z" fill="#FBB37E"/>
<path fill-rule="evenodd" clip-rule="evenodd" d="M227.099 188.526L144.252 163.862C133.252 160.587 121.682 166.941 118.775 177.854L118.665 178.266C115.67 189.509 123.1 200.868 134.767 202.869C165.398 208.122 220.919 217.058 250.139 218.15L262.456 226.207C264.316 227.424 266.785 227.223 268.416 225.723L268.479 225.665C270.417 223.882 270.516 220.896 268.701 218.993L266.78 216.981C266.78 216.981 265.067 208.795 256.61 205.287C248.153 201.779 247.358 193.204 245.372 188.526C243.386 183.849 230.674 181.51 227.099 188.526Z" fill="#CA8960"/>
<path fill-rule="evenodd" clip-rule="evenodd" d="M118.77 177.707C121.659 166.902 133.154 160.611 144.084 163.854L172 172.135C167.795 177.264 162.249 187.676 162.081 207C151.889 205.38 142.46 203.807 134.66 202.474C123.068 200.494 115.684 189.247 118.661 178.115L118.77 177.707Z" fill="#DDB592"/>
<path d="M231 200C231 200 229.875 206.944 219 204.465" stroke="#7B3C38" stroke-width="2.278"/>
<path fill-rule="evenodd" clip-rule="evenodd" d="M242.222 219.199C242.222 219.199 257.15 233.448 269.876 227.585C271.994 226.609 272.657 223.912 271.275 222.038C260.554 207.512 247.038 191.688 241.886 185.741C240.596 184.253 238.555 183.651 236.661 184.2L222 188.449L242.222 219.199Z" fill="#543E2B"/>
<path fill-rule="evenodd" clip-rule="evenodd" d="M176.619 188.526L258.921 163.862C269.849 160.587 281.342 166.941 284.23 177.854L284.339 178.266C287.315 189.509 279.933 200.868 268.343 202.869C237.914 208.122 182.758 217.058 153.73 218.15L141.494 226.207C139.647 227.424 137.194 227.223 135.574 225.723L135.511 225.665C133.586 223.882 133.487 220.896 135.291 218.993L137.199 216.981C137.199 216.981 138.9 208.795 147.302 205.287C155.703 201.779 156.493 193.204 158.466 188.526C160.439 183.849 173.067 181.51 176.619 188.526Z" fill="#FBB37E"/>
<path fill-rule="evenodd" clip-rule="evenodd" d="M284.244 177.707C281.409 166.902 270.126 160.611 259.399 163.854L232 172.135C236.127 177.264 241.571 187.676 241.735 207C251.739 205.38 260.993 203.807 268.649 202.474C280.026 200.494 287.272 189.247 284.351 178.115L284.244 177.707Z" fill="#DDB592"/>
<path opacity="0.569" d="M147.557 206L135.176 203.718C123.972 201.941 116.383 191.412 118.295 180.294L118.37 179.859C120.454 167.738 132.831 160.24 144.624 163.956L168 171.32" stroke="white" stroke-width="2.228"/>
<path fill-rule="evenodd" clip-rule="evenodd" d="M268.081 140L268.124 140.121C270.618 146.957 267.631 154.566 261.128 157.941L216.696 181L216.477 180.438C212.562 170.426 216.656 159.086 226.095 153.8L246.104 142.593L268.081 140Z" fill="#FBB37E"/>
<path fill-rule="evenodd" clip-rule="evenodd" d="M135.902 141L135.859 141.121C133.412 147.957 136.344 155.566 142.726 158.941L186.335 182L186.551 181.438C190.393 171.426 186.374 160.086 177.111 154.8L157.472 143.593L135.902 141Z" fill="#FBB37E"/>
<path d="M181.638 180C181.638 180 184.137 167.886 176 164" stroke="#4C2A29" stroke-width="2.672" stroke-linecap="round"/>
<path fill-rule="evenodd" clip-rule="evenodd" d="M161.778 218.199C161.778 218.199 146.85 232.448 134.124 226.585C132.006 225.609 131.343 222.912 132.726 221.038C143.446 206.512 156.962 190.688 162.114 184.741C163.404 183.253 165.445 182.651 167.339 183.2L182 187.449L161.778 218.199Z" fill="#543E2B"/>
<path fill-rule="evenodd" clip-rule="evenodd" d="M200.5 135H150L162.451 180H200.5H238.549L251 135H200.5Z" fill="#FFDF01"/>
<path fill-rule="evenodd" clip-rule="evenodd" d="M240 186H163V180H240V186Z" fill="#FFDF01"/>
<path fill-rule="evenodd" clip-rule="evenodd" d="M251 132H150V135H251V132Z" fill="#D9BE00"/>
<path opacity="0.541" fill-rule="evenodd" clip-rule="evenodd" d="M150 134.986L162.56 180H189.902C206.136 161.062 216 134.986 216 134.986L215.966 132H150V134.986Z" fill="white"/>
<path fill-rule="evenodd" clip-rule="evenodd" d="M100.116 209L101.264 207.685L100.69 208.342L101.269 207.69C101.127 207.549 87.3108 192.821 104 126.456L102.359 126C85.3205 193.754 99.5041 208.409 100.116 209Z" fill="#A67551"/>
<path fill-rule="evenodd" clip-rule="evenodd" d="M93.975 127.45C101.177 133.659 99.915 141 99.915 141C99.915 141 92.7028 138.082 91.0292 128.988C90.7362 127.393 92.7123 126.362 93.975 127.45Z" fill="#A67551"/>
<path fill-rule="evenodd" clip-rule="evenodd" d="M111.685 132.05C101.748 134.149 99 140.98 99 140.98C99 140.98 107.194 141.695 113.578 134.672C114.697 133.441 113.427 131.682 111.685 132.05Z" fill="#A07855"/>
<path fill-rule="evenodd" clip-rule="evenodd" d="M90.508 144.362C97.4175 150.16 96.995 158 96.995 158C96.995 158 90.3846 155.66 88.0634 146.273C87.6562 144.628 89.2964 143.345 90.508 144.362Z" fill="#A67551"/>
<path fill-rule="evenodd" clip-rule="evenodd" d="M107.699 147.108C98.8026 150.338 97 158 97 158C97 158 104.594 157.986 109.712 149.766C110.61 148.325 109.259 146.541 107.699 147.108Z" fill="#A07855"/>
<path fill-rule="evenodd" clip-rule="evenodd" d="M87.223 161.236C93.9171 165.525 94 172 94 172C94 172 87.7887 170.534 85.0927 162.977C84.6201 161.652 86.0494 160.484 87.223 161.236Z" fill="#A67551"/>
<path fill-rule="evenodd" clip-rule="evenodd" d="M104.447 161.147C95.3217 164.774 94 172 94 172C94 172 101.995 171.445 106.766 163.465C107.603 162.066 106.047 160.51 104.447 161.147Z" fill="#A67551"/>
<path fill-rule="evenodd" clip-rule="evenodd" d="M108.997 115.441C109.138 123.412 103.536 127 103.536 127C103.536 127 101.212 120.969 106.242 114.592C107.124 113.474 108.973 114.043 108.997 115.441Z" fill="#A67551"/>
<path fill-rule="evenodd" clip-rule="evenodd" d="M106 218H87V180H106V218Z" fill="#FFDF01"/>
<path opacity="0.671" fill-rule="evenodd" clip-rule="evenodd" d="M106 218H98V180H106V218Z" fill="#FFDF01"/>
<defs>
<linearGradient id="paint0_linear_373_15104" x1="172" y1="10242" x2="1882.55" y2="323.007" gradientUnits="userSpaceOnUse">
<stop stop-color="#A07855"/>
<stop offset="1" stop-color="#DDB592"/>
</linearGradient>
<linearGradient id="paint1_linear_373_15104" x1="203" y1="10242" x2="2084.56" y2="387.262" gradientUnits="userSpaceOnUse">
<stop stop-color="#A07855"/>
<stop offset="1" stop-color="#DDB592"/>
</linearGradient>
<linearGradient id="paint2_linear_373_15104" x1="227" y1="4757.56" x2="686.288" y2="96.3622" gradientUnits="userSpaceOnUse">
<stop stop-color="#A07855"/>
<stop offset="1" stop-color="#DDB592"/>
</linearGradient>
<linearGradient id="paint3_linear_373_15104" x1="152" y1="4757.56" x2="630.033" y2="100.172" gradientUnits="userSpaceOnUse">
<stop stop-color="#A07855"/>
<stop offset="1" stop-color="#DDB592"/>
</linearGradient>
</defs>
</svg>
