<svg width="381" height="176" viewBox="0 0 381 176" fill="none" xmlns="http://www.w3.org/2000/svg">
<path fill-rule="evenodd" clip-rule="evenodd" d="M381 161.5C381 169.508 295.71 176 190.5 176C85.2898 176 0 169.508 0 161.5C0 153.492 85.2898 147 190.5 147C295.71 147 381 153.492 381 161.5Z" fill="#FFF1E4"/>
<path fill-rule="evenodd" clip-rule="evenodd" d="M209.981 7.00147C209.981 7.00147 209.671 6.92999 209.114 7.78435C208.557 8.63882 210.15 10.8541 211.608 10.9964C213.067 11.1387 209.981 7.00147 209.981 7.00147Z" fill="#FBB37E"/>
<path fill-rule="evenodd" clip-rule="evenodd" d="M211.36 16.2878C211.36 16.2878 211.825 32.6794 210.988 34.9139C210.15 37.1485 198 41.4551 198 41.4551L210 53C210 53 218.755 43.0809 221.065 38.0681C223.376 33.0553 220.675 15 220.675 15L211.36 16.2878Z" fill="#A07855"/>
<path d="M211.36 16.2878C211.36 16.2878 211.825 32.6794 210.988 34.9139C210.15 37.1485 198 41.4551 198 41.4551L210 53C210 53 218.755 43.0809 221.065 38.0681C223.376 33.0553 220.675 15 220.675 15L211.36 16.2878Z" fill="url(#paint0_linear_1_310)"/>
<path fill-rule="evenodd" clip-rule="evenodd" d="M212.205 15.9594C213.062 16.0383 214.298 16.004 215.655 15.8407C216.422 15.7484 217.139 15.6243 217.761 15.4851C219.146 15.1736 220.056 14.7792 219.997 14.4588C219.938 14.1354 218.914 13.9731 217.462 14.0036C216.824 14.0173 216.105 14.0683 215.346 14.16C213.954 14.3274 212.728 14.5958 211.939 14.8814C211.32 15.1042 210.966 15.3381 211.003 15.5425C211.042 15.7532 211.493 15.8954 212.205 15.9594Z" fill="#DDB592"/>
<path fill-rule="evenodd" clip-rule="evenodd" d="M216.96 6.67006C216.96 6.67006 219.036 9.65884 217.322 11.2887C215.609 12.9186 211.8 11.3169 211.276 10.7356C210.751 10.1544 210 6 210 6L216.96 6.67006Z" fill="#FBB37E"/>
<path fill-rule="evenodd" clip-rule="evenodd" d="M209.689 6.33345C209.83 7.98703 210.361 6.06099 211.061 5.91726C211.761 5.77353 212.296 5.5494 211.817 3.94013C211.338 2.33072 210.452 -0.2032 209.4 0.0129772C208.425 0.213257 209.519 4.34277 209.689 6.33345Z" fill="#FBB37E"/>
<path fill-rule="evenodd" clip-rule="evenodd" d="M217.76 4.70309C217.476 2.87596 217.086 2.8994 216.628 3.07893C216.17 3.25864 215.818 3.52624 216.102 5.35337C216.387 7.18067 216.858 9.2461 217.547 8.97606C218.184 8.72588 218.045 6.53039 217.76 4.70309Z" fill="#FBB37E"/>
<path fill-rule="evenodd" clip-rule="evenodd" d="M215.556 5.02996C215.08 2.88977 214.518 2.89237 213.865 3.07194C213.211 3.25151 212.713 3.54016 213.189 5.68036C213.665 7.82072 214.418 10.2496 215.401 9.97931C216.312 9.72925 216.033 7.17032 215.556 5.02996Z" fill="#FBB37E"/>
<path fill-rule="evenodd" clip-rule="evenodd" d="M213.556 5.73997C213.08 3.90551 212.518 3.90775 211.865 4.06166C211.211 4.21558 210.713 4.46299 211.189 6.29745C211.665 8.13205 212.418 10.2139 213.402 9.98227C214.312 9.76793 214.033 7.57456 213.556 5.73997Z" fill="#FBB37E"/>
<path fill-rule="evenodd" clip-rule="evenodd" d="M212.076 15.9528C212.99 16.0446 214.308 16.0046 215.755 15.8146C216.573 15.7072 217.338 15.5628 218 15.4008L217.682 13.677L217.187 11L211 11.1938L211.793 14.6984L212.076 15.9528Z" fill="#FBB37E"/>
<path fill-rule="evenodd" clip-rule="evenodd" d="M178.346 7.00147C178.346 7.00147 178.553 6.92999 178.924 7.78435C179.295 8.63882 178.234 10.8541 177.261 10.9964C176.289 11.1387 178.346 7.00147 178.346 7.00147Z" fill="#FBB37E"/>
<path fill-rule="evenodd" clip-rule="evenodd" d="M177.64 16.3044C177.64 16.3044 177.175 32.907 178.012 35.1703C178.85 37.4337 191 41.7957 191 41.7957L179.859 54C179.859 54 170.245 43.4425 167.935 38.3651C165.624 33.2878 168.325 15 168.325 15L177.64 16.3044Z" fill="#A07855"/>
<path d="M177.64 16.3044C177.64 16.3044 177.175 32.907 178.012 35.1703C178.85 37.4337 191 41.7957 191 41.7957L179.859 54C179.859 54 170.245 43.4425 167.935 38.3651C165.624 33.2878 168.325 15 168.325 15L177.64 16.3044Z" fill="url(#paint1_linear_1_310)"/>
<path fill-rule="evenodd" clip-rule="evenodd" d="M176.795 15.9594C175.938 16.0383 174.702 16.004 173.345 15.8407C172.578 15.7484 171.861 15.6243 171.239 15.4851C169.854 15.1736 168.944 14.7792 169.003 14.4588C169.062 14.1354 170.086 13.9731 171.538 14.0036C172.176 14.0173 172.895 14.0683 173.654 14.16C175.046 14.3274 176.272 14.5958 177.061 14.8814C177.68 15.1042 178.034 15.3381 177.997 15.5425C177.958 15.7532 177.507 15.8954 176.795 15.9594Z" fill="#DDB592"/>
<path fill-rule="evenodd" clip-rule="evenodd" d="M172.04 6.67006C172.04 6.67006 169.964 9.65884 171.678 11.2887C173.391 12.9186 177.2 11.3169 177.724 10.7356C178.249 10.1544 179 6 179 6L172.04 6.67006Z" fill="#FBB37E"/>
<path fill-rule="evenodd" clip-rule="evenodd" d="M178.77 6.33345C178.723 7.98703 178.546 6.06099 178.313 5.91726C178.08 5.77353 177.901 5.5494 178.061 3.94013C178.221 2.33072 178.516 -0.2032 178.867 0.0129772C179.192 0.213257 178.827 4.34277 178.77 6.33345Z" fill="#FBB37E"/>
<path fill-rule="evenodd" clip-rule="evenodd" d="M171.359 4.70309C171.786 2.87596 172.372 2.8994 173.058 3.07893C173.745 3.25864 174.273 3.52624 173.846 5.35337C173.419 7.18067 172.713 9.2461 171.68 8.97606C170.723 8.72588 170.932 6.53039 171.359 4.70309Z" fill="#FBB37E"/>
<path fill-rule="evenodd" clip-rule="evenodd" d="M174.296 5.02996C174.613 2.88977 174.988 2.89237 175.424 3.07194C175.859 3.25151 176.192 3.54016 175.874 5.68036C175.557 7.82072 175.055 10.2496 174.399 9.97931C173.792 9.72925 173.978 7.17032 174.296 5.02996Z" fill="#FBB37E"/>
<path fill-rule="evenodd" clip-rule="evenodd" d="M174.592 5.73997C175.226 3.90551 175.976 3.90775 176.847 4.06166C177.719 4.21558 178.383 4.46299 177.748 6.29745C177.113 8.13205 176.109 10.2139 174.798 9.98227C173.584 9.76793 173.957 7.57456 174.592 5.73997Z" fill="#FBB37E"/>
<path fill-rule="evenodd" clip-rule="evenodd" d="M176.77 15.9528C175.726 16.0446 174.219 16.0046 172.566 15.8146C171.631 15.7072 170.757 15.5628 170 15.4008L170.364 13.677L170.929 11L178 11.1938L177.093 14.6984L176.77 15.9528Z" fill="#FBB37E"/>
<path fill-rule="evenodd" clip-rule="evenodd" d="M192.603 160.244C192.622 161.133 192.647 161.999 192.643 162.803C192.64 163.283 192.319 163.697 191.873 163.79C190.744 164.028 189.567 164.01 188.408 163.989C184.648 163.92 180.887 163.851 177.127 163.783C176.74 163.776 176.307 163.751 176.093 163.343C175.958 163.084 175.977 162.767 176.106 162.504C176.368 161.974 176.896 161.751 177.399 161.554C179.84 160.598 182.49 159.637 184.322 157.79C184.38 157.732 184.437 157.671 184.494 157.611C184.88 157.198 185.226 156.742 185.522 156.232C185.751 155.839 185.944 155.414 186.056 154.97C186.095 154.817 186.124 154.662 186.142 154.503C186.149 154.442 186.155 154.381 186.158 154.319L187.486 154.257L187.868 154.239L193 154C192.65 155.37 192.574 156.979 192.579 158.594C192.58 159.147 192.59 159.699 192.603 160.244Z" fill="#47311D"/>
<path fill-rule="evenodd" clip-rule="evenodd" d="M220.533 163.795C219.429 164.027 218.276 164.009 217.143 163.989C213.463 163.922 209.783 163.854 206.103 163.788C205.724 163.781 205.3 163.756 205.092 163.356C204.959 163.102 204.977 162.792 205.104 162.534C205.36 162.014 205.877 161.796 206.369 161.602C208.758 160.665 211.351 159.723 213.144 157.912C213.201 157.855 213.256 157.796 213.312 157.737C213.69 157.332 214.029 156.884 214.318 156.385C214.542 155.999 214.732 155.583 214.841 155.148C214.879 154.997 214.908 154.845 214.925 154.69C214.932 154.63 214.938 154.571 214.94 154.51L216.24 154.449L216.614 154.431L219.498 148C219.155 149.343 220.339 155.089 220.59 156.948C221.292 162.143 220.97 163.703 220.533 163.795Z" fill="#47311D"/>
<path fill-rule="evenodd" clip-rule="evenodd" d="M217.442 156.64C221 155.881 221 154.753 221 154.753C221 154.753 216.505 133.191 215.27 125.955C213.671 116.595 207.835 85 207.835 85L182.023 85.372C182.023 85.372 180.512 114.975 181.163 123.822C181.76 131.934 184.614 156.189 184.614 156.189C184.614 156.189 184.737 157.009 188.067 156.93C193.282 156.806 193.691 155.589 193.691 155.589C193.691 155.589 193.188 136.626 193.326 130.529C193.462 124.55 194.789 107.284 194.789 107.284C194.789 107.284 199.473 122.512 201.253 127.514C203.873 134.875 212.688 156.599 212.688 156.599C212.688 156.599 213.537 157.473 217.442 156.64Z" fill="#DDB592"/>
<path d="M217.442 156.64C221 155.881 221 154.753 221 154.753C221 154.753 216.505 133.191 215.27 125.955C213.671 116.595 207.835 85 207.835 85L182.023 85.372C182.023 85.372 180.512 114.975 181.163 123.822C181.76 131.934 184.614 156.189 184.614 156.189C184.614 156.189 184.737 157.009 188.067 156.93C193.282 156.806 193.691 155.589 193.691 155.589C193.691 155.589 193.188 136.626 193.326 130.529C193.462 124.55 194.789 107.284 194.789 107.284C194.789 107.284 199.473 122.512 201.253 127.514C203.873 134.875 212.688 156.599 212.688 156.599C212.688 156.599 213.537 157.473 217.442 156.64Z" fill="url(#paint2_linear_1_310)"/>
<path fill-rule="evenodd" clip-rule="evenodd" d="M182.613 53.0158C182.423 54.7881 180.59 63.0088 180.852 65.5826C181.254 69.5299 180 85.2514 180 85.2535C180.166 86.799 180.138 90.7521 180.258 92.0293C180.258 92.0293 181.355 94.6564 197.497 94.9834C209.045 95.2174 209 92.8982 209 92.8982C208.619 90.6725 208.317 88.5269 208.081 86.4689C208.078 86.4451 208.076 86.4225 208.073 86.3986C208.067 86.3445 208.061 86.2894 208.054 86.2353C207.781 83.8021 207.601 81.4921 207.494 79.3141C207.359 76.591 207.338 74.0777 207.392 71.7959C207.395 71.6878 207.398 71.5796 207.4 71.4725C207.402 71.4152 207.403 71.359 207.405 71.3027C207.423 70.6798 207.446 70.0753 207.474 69.4891V69.488C207.49 69.1529 207.508 68.8252 207.527 68.5029C207.532 68.4056 207.538 68.3083 207.545 68.2119C207.985 61.0702 200.872 47.3968 200.872 47.3968C200.872 47.3968 201.685 41 195.393 41C185.911 41 183.644 43.3541 182.613 53.0158Z" fill="#FFDF01"/>
<path d="M182.613 53.0158C182.423 54.7881 180.59 63.0088 180.852 65.5826C181.254 69.5299 180 85.2514 180 85.2535C180.166 86.799 180.138 90.7521 180.258 92.0293C180.258 92.0293 181.355 94.6564 197.497 94.9834C209.045 95.2174 209 92.8982 209 92.8982C208.619 90.6725 208.317 88.5269 208.081 86.4689C208.078 86.4451 208.076 86.4225 208.073 86.3986C208.067 86.3445 208.061 86.2894 208.054 86.2353C207.781 83.8021 207.601 81.4921 207.494 79.3141C207.359 76.591 207.338 74.0777 207.392 71.7959C207.395 71.6878 207.398 71.5796 207.4 71.4725C207.402 71.4152 207.403 71.359 207.405 71.3027C207.423 70.6798 207.446 70.0753 207.474 69.4891V69.488C207.49 69.1529 207.508 68.8252 207.527 68.5029C207.532 68.4056 207.538 68.3083 207.545 68.2119C207.985 61.0702 200.872 47.3968 200.872 47.3968C200.872 47.3968 201.685 41 195.393 41C185.911 41 183.644 43.3541 182.613 53.0158Z" fill="url(#paint3_linear_1_310)"/>
<path fill-rule="evenodd" clip-rule="evenodd" d="M198.174 22.6844C198.314 22.2286 198.9 22.0791 199.317 22.2666C199.735 22.4541 200.017 22.8669 200.268 23.2656C200.241 23.0387 200.431 22.8274 200.644 22.7857C200.857 22.7443 201.076 22.8381 201.249 22.9752C201.645 23.2879 201.856 23.8423 201.775 24.3574C201.695 24.8725 201.325 25.3254 200.855 25.4864C201.501 25.7454 203.641 27.8862 202.812 31.2628C201.421 36.9298 196.076 38.9568 193.19 37.5883C192.572 37.2956 193.396 30.9397 190.395 29.2896C186.579 27.1909 188.103 23.6437 189.641 22.3913C191.975 20.4919 195.55 20.4879 198.174 22.6844Z" fill="#6B4C32"/>
<path fill-rule="evenodd" clip-rule="evenodd" d="M189.294 38.6835C189.369 38.2648 189.436 37.8517 189.493 37.4742C189.553 37.0782 189.601 36.7242 189.638 36.4472C189.687 36.0762 189.714 35.8458 189.714 35.8458L193.231 34.7426L193.636 34.6159L195.602 34C195.601 34.0115 195.479 37.4191 195.995 42.805C196.126 44.1749 193.762 46.9849 189.665 45.6487C187.115 44.817 188.145 42.3169 188.559 41.4898C188.715 41.1761 188.862 40.69 188.996 40.131C189.106 39.6788 189.206 39.177 189.294 38.6835Z" fill="#FBB37E"/>
<path fill-rule="evenodd" clip-rule="evenodd" d="M194 36C193.993 36.0401 193.988 36.0801 193.981 36.1186C193.899 36.5865 193.778 37.0109 193.625 37.4002C193.59 37.49 193.554 37.5781 193.515 37.6646C193.512 37.671 193.51 37.6773 193.507 37.6838C193.469 37.7687 193.429 37.8504 193.389 37.9305C192.447 39.7921 190.799 40.6685 190 41C190.098 40.5243 190.188 39.9939 190.265 39.4733C190.281 39.3644 190.298 39.2538 190.314 39.1464C190.318 39.1176 190.322 39.0903 190.326 39.0615C190.328 39.0343 190.332 39.0071 190.336 38.9814C190.34 38.9542 190.344 38.927 190.348 38.8998C190.381 38.6562 190.411 38.4208 190.441 38.1965C191.272 37.8103 192.873 36.7563 193.611 36.2628C193.851 36.1011 194 36 194 36Z" fill="#6B4C32"/>
<path fill-rule="evenodd" clip-rule="evenodd" d="M195.985 34.729C195.985 34.729 192.01 41.5078 186.691 37.9851C181.46 34.5205 184.776 30.9536 188.851 25.4499C191.311 22.1281 202.511 24.2288 195.985 34.729Z" fill="#FBB37E"/>
<path fill-rule="evenodd" clip-rule="evenodd" d="M197.994 33.7529C198.08 34.8488 197.258 35.848 196.157 35.9845C195.056 36.121 194.093 35.3432 194.006 34.2473C193.92 33.1512 194.742 32.1522 195.843 32.0155C196.944 31.879 197.907 32.6568 197.994 33.7529Z" fill="#FBB37E"/>
<path fill-rule="evenodd" clip-rule="evenodd" d="M199.391 25.6892C199.834 26.0247 200.271 26.3846 200.539 26.8388C200.785 27.256 200.874 27.7283 200.933 28.1944C201.099 29.5271 201.003 30.9636 200.127 32.0673C199.853 32.4121 199.498 32.7213 199.054 32.8851C198.611 33.0489 198.069 33.0481 197.669 32.8143C197.27 32.5808 197.064 32.1412 197.099 31.7242C197.134 31.3073 197.389 30.9185 197.739 30.6321C196.968 30.6244 196.143 30.3599 195.76 29.779C195.403 29.2375 195.635 28.4198 196.277 28.1905C195.549 28.3516 194.694 27.9211 194.53 27.276C194.18 27.3877 193.782 27.4695 193.443 27.3349C193.104 27.2004 192.923 26.7606 193.198 26.5423C192.445 26.7612 191.65 26.8721 190.856 26.8693C190.202 26.867 189.529 26.7819 188.968 26.4902C188.406 26.1986 187.978 25.6678 188.001 25.1002C188.024 24.5325 188.596 23.9872 189.249 24.0235L189.878 23.4787C191.455 22.8444 193.316 22.8807 194.967 23.3515C196.618 23.8222 198.081 24.6969 199.391 25.6892Z" fill="#6B4C32"/>
<path fill-rule="evenodd" clip-rule="evenodd" d="M190.251 48.0833C190.251 48.0833 187.253 75.5823 188.177 84.8815C188.219 85.3069 188.408 85.7029 188.709 86.0046L191.443 88.7509C191.792 89.1008 192.361 89.0793 192.683 88.7041L195.545 85.7391C195.877 85.3943 196.041 84.9195 195.991 84.4411C195.47 79.4457 192.572 51.2069 193.287 48L190.251 48.0833Z" fill="#A07855"/>
<path fill-rule="evenodd" clip-rule="evenodd" d="M199.724 65.6228C199.724 65.6228 199.532 85.7622 206.291 100C206.291 100 218.179 99.5127 221 95.0769C221 95.0769 212.429 75.6491 209.165 47.0069C208.775 43.5894 199.698 44.0171 199.698 44.0171L199 53.8553L199.724 65.6228Z" fill="#A07855"/>
<path fill-rule="evenodd" clip-rule="evenodd" d="M186.743 63.469C186.743 63.469 186.294 79.6998 185.006 94.9973C185.006 94.9973 178.222 95.2533 175 90.8092C175 90.8092 180.858 64.876 177.05 51.4118L188 44.0209C188 44.0209 187.918 43.1092 186.939 53.3415C186.747 55.3406 186.743 63.469 186.743 63.469Z" fill="#A07855"/>
<path fill-rule="evenodd" clip-rule="evenodd" d="M198 40.9256C198 40.9256 198.593 53.8272 200.166 66C200.166 66 202.068 60.3389 201.717 54.7331C201.717 54.7331 199.932 54.1808 199.756 53.7665C199.756 53.7665 201.336 53.2142 201.863 53.2972C201.863 53.2972 206.662 47.7152 204.389 39C204.389 39 201.5 39.4805 198 40.9256Z" fill="#DDB592"/>
<path fill-rule="evenodd" clip-rule="evenodd" d="M188 39.9478C188 39.9478 185.85 43.1448 185.686 64C185.686 64 183 58.469 183.272 54.0889C183.272 54.0889 184.899 53.3254 185.146 52.736C185.146 52.736 183.972 51.7581 183.025 51.7581C183.025 51.7581 182.593 43.681 185.335 39C185.335 39 186.856 39.7066 188 39.9478Z" fill="#DDB592"/>
<path fill-rule="evenodd" clip-rule="evenodd" d="M190.023 45.7158C190.023 45.7158 190.067 44.9378 190.84 45.0696C191.612 45.2012 192.351 44.877 192.614 45.0545C192.877 45.2319 193.116 45.7486 192.938 46.3628C192.76 46.9771 191.927 48.0943 191.211 47.9936C190.495 47.8928 189.872 46.3377 190.023 45.7158Z" fill="#A07855"/>
<path fill-rule="evenodd" clip-rule="evenodd" d="M196.606 39.2748C196.606 39.2748 198.31 38.3548 199.144 39.8815C199.397 40.3439 199.94 40.779 200.761 41.2626C201.87 41.916 198.99 48.2378 194.807 49C194.807 49 194.057 48.3532 194.019 47.2028C193.981 46.0526 193.022 45.5274 193.022 45.5274C193.022 45.5274 192.817 44.8022 193.667 44.4024C194.518 44.0025 195.695 42.0336 196.165 41.3411C196.693 40.5633 196.606 39.2748 196.606 39.2748Z" fill="#FFE534"/>
<path fill-rule="evenodd" clip-rule="evenodd" d="M190.325 39C190.325 39 188.483 39.1195 188.051 40.9927C187.829 41.9526 188.395 45.7868 188.589 46.8122C188.783 47.8374 189.026 48.4595 189.29 47.5812C189.555 46.7029 190.325 44.8211 190.803 44.7959C191.294 44.77 190.727 44.0138 190.606 43.3445C190.131 40.7151 190.325 39 190.325 39Z" fill="#FFDF01"/>
<path fill-rule="evenodd" clip-rule="evenodd" d="M48.0336 24.0001C48.0336 24.0001 43.6968 25.937 45.3938 30.3595C46.9101 34.3109 54.2941 36.9414 56.6443 35.6826C58.9946 34.4238 48.9619 23.9698 48.0336 24.0001Z" fill="#6B4C32"/>
<path fill-rule="evenodd" clip-rule="evenodd" d="M18.1075 78.6948C18.148 78.6191 18.1869 78.5604 18.2246 78.5148C18.9651 77.3077 20.6341 76.7011 22.2314 77.1455L22.9799 77.3538C24.3886 77.7459 25.2125 79.0544 24.8108 80.2619C24.725 80.5201 24.7481 80.7957 24.8664 81.0428C25.0638 81.455 25.0663 82.2728 24.711 83.7466C24.1794 85.9523 23.2819 89.3039 22.4157 89.1292C21.987 89.0427 22.0063 87.873 22.2012 86.4756C22.1509 86.4641 22.1696 86.4684 22.1192 86.4571C21.4232 88.422 20.3252 91.2264 19.5052 90.9855C18.7904 90.7753 19.6087 87.797 20.2943 85.8267L20.2094 85.7717C19.4599 87.8066 18.4449 90.0572 17.7183 89.9709C17.0389 89.7712 17.8283 86.8317 18.5504 84.6968L18.4696 84.6444C17.693 86.3182 16.782 87.987 16.2474 87.795C15.7496 87.6161 16.42 85.5116 17.1429 83.6781C17.105 83.6234 17.0713 83.5681 17.0415 83.5122C16.6622 84.0606 16.2965 84.4447 16.0566 84.3373C15.6534 84.1567 17.5158 79.8001 18.1075 78.6948Z" fill="#FBB37E"/>
<path fill-rule="evenodd" clip-rule="evenodd" d="M48.5069 44.2372C48.5069 44.2372 44.3262 43.119 38.7846 45.7383C35.0295 47.5132 23.3576 61.5674 22.4922 63.4958C21.627 65.4241 18 78.1179 18 78.1179C18 78.1179 20.9126 81.0437 25.4007 80.9995C25.4007 80.9995 30.5639 67.9798 30.9694 67.1196C31.3748 66.2594 40.2008 59.6174 40.2008 59.6174L49 50.1579L48.5069 44.2372Z" fill="#A07855"/>
<path d="M48.5069 44.2372C48.5069 44.2372 44.3262 43.119 38.7846 45.7383C35.0295 47.5132 23.3576 61.5674 22.4922 63.4958C21.627 65.4241 18 78.1179 18 78.1179C18 78.1179 20.9126 81.0437 25.4007 80.9995C25.4007 80.9995 30.5639 67.9798 30.9694 67.1196C31.3748 66.2594 40.2008 59.6174 40.2008 59.6174L49 50.1579L48.5069 44.2372Z" fill="url(#paint4_linear_1_310)"/>
<path fill-rule="evenodd" clip-rule="evenodd" d="M71.3603 16.3044C71.3603 16.3044 71.8248 32.907 70.9878 35.1703C70.1505 37.4337 58 41.7957 58 41.7957L69.141 54C69.141 54 78.7551 43.4425 81.0654 38.3651C83.3758 33.2878 80.6752 15 80.6752 15L71.3603 16.3044Z" fill="#A07855"/>
<path d="M71.3603 16.3044C71.3603 16.3044 71.8248 32.907 70.9878 35.1703C70.1505 37.4337 58 41.7957 58 41.7957L69.141 54C69.141 54 78.7551 43.4425 81.0654 38.3651C83.3758 33.2878 80.6752 15 80.6752 15L71.3603 16.3044Z" fill="url(#paint5_linear_1_310)"/>
<path fill-rule="evenodd" clip-rule="evenodd" d="M73.2045 15.9594C74.0618 16.0383 75.2979 16.004 76.655 15.8407C77.4222 15.7484 78.1391 15.6243 78.7606 15.4851C80.146 15.1736 81.0561 14.7792 80.9973 14.4588C80.9385 14.1354 79.9144 13.9731 78.4622 14.0036C77.824 14.0173 77.1048 14.0683 76.3463 14.16C74.954 14.3274 73.7285 14.5958 72.9394 14.8814C72.3197 15.1042 71.9656 15.3381 72.0026 15.5425C72.0418 15.7532 72.493 15.8954 73.2045 15.9594Z" fill="#DDB592"/>
<path fill-rule="evenodd" clip-rule="evenodd" d="M77.0899 6.73361C77.0899 6.73361 78.9062 10.0058 77.407 11.7903C75.9078 13.5748 73.4087 13.0302 72.9496 12.3938C72.4904 11.7574 71 6 71 6L77.0899 6.73361Z" fill="#FBB37E"/>
<path fill-rule="evenodd" clip-rule="evenodd" d="M70.459 6.33345C70.5532 7.98703 70.9074 6.06099 71.3739 5.91726C71.8405 5.77353 72.1973 5.5494 71.8781 3.94013C71.5588 2.33072 70.9682 -0.2032 70.2664 0.0129772C69.6166 0.213257 70.3457 4.34277 70.459 6.33345Z" fill="#FBB37E"/>
<path fill-rule="evenodd" clip-rule="evenodd" d="M77.7604 4.70309C77.4757 2.87596 77.0855 2.8994 76.6276 3.07893C76.1698 3.25864 75.8177 3.52624 76.1024 5.35337C76.3872 7.18067 76.858 9.2461 77.5466 8.97606C78.1843 8.72588 78.0452 6.53039 77.7604 4.70309Z" fill="#FBB37E"/>
<path fill-rule="evenodd" clip-rule="evenodd" d="M76.5564 5.02996C76.0802 2.88977 75.5183 2.89237 74.8646 3.07194C74.2109 3.25151 73.7126 3.54016 74.1889 5.68036C74.6651 7.82072 75.418 10.2496 76.4014 9.97931C77.3121 9.72925 77.0326 7.17032 76.5564 5.02996Z" fill="#FBB37E"/>
<path fill-rule="evenodd" clip-rule="evenodd" d="M74.5564 5.73997C74.0801 3.90551 73.5184 3.90775 72.8647 4.06166C72.2108 4.21558 71.7127 4.46299 72.1888 6.29745C72.665 8.13205 73.418 10.2139 74.4014 9.98227C75.312 9.76793 75.0326 7.57456 74.5564 5.73997Z" fill="#FBB37E"/>
<path fill-rule="evenodd" clip-rule="evenodd" d="M72.8216 15.9528C73.775 16.0446 75.1494 16.0046 76.6586 15.8146C77.5117 15.7072 78.3089 15.5628 79 15.4008L78.6682 13.677L78.1524 11L72 12.4674L72.5268 14.6984L72.8216 15.9528Z" fill="#FBB37E"/>
<path fill-rule="evenodd" clip-rule="evenodd" d="M56.3975 160.244C56.3777 161.133 56.353 161.999 56.3568 162.803C56.3596 163.283 56.6812 163.697 57.1271 163.79C58.2561 164.028 59.4335 164.01 60.5919 163.989C64.3518 163.92 68.1126 163.851 71.8733 163.783C72.2605 163.776 72.6931 163.751 72.9065 163.343C73.0423 163.084 73.0232 162.767 72.8943 162.504C72.6323 161.974 72.1039 161.751 71.6011 161.554C69.16 160.598 66.5101 159.637 64.6782 157.79C64.6203 157.732 64.5633 157.671 64.5064 157.611C64.1203 157.198 63.7739 156.742 63.4779 156.232C63.2493 155.839 63.0558 155.414 62.9438 154.97C62.9049 154.817 62.8755 154.662 62.8584 154.503C62.8509 154.442 62.8452 154.381 62.8423 154.319L61.5141 154.257L61.1317 154.239L56 154C56.3501 155.37 56.426 156.979 56.4213 158.594C56.4203 159.147 56.4099 159.699 56.3975 160.244Z" fill="#47311D"/>
<path fill-rule="evenodd" clip-rule="evenodd" d="M27.525 163.795C28.7678 164.027 30.0641 164.009 31.3394 163.989C35.4788 163.922 39.6193 163.854 43.7597 163.788C44.1858 163.781 44.6622 163.756 44.8971 163.356C45.0465 163.102 45.0256 162.792 44.8836 162.534C44.5952 162.014 44.0134 161.796 43.4599 161.602C40.7724 160.665 37.8551 159.723 35.8382 157.912C35.7744 157.855 35.7117 157.796 35.649 157.737C35.2239 157.332 34.8428 156.884 34.5169 156.385C34.2651 155.999 34.0521 155.583 33.9288 155.148C33.8859 154.997 33.8536 154.845 33.8347 154.69C33.8264 154.63 33.8202 154.571 33.817 154.51L32.3547 154.449L31.9338 154.431L28.6903 148C29.0757 149.343 27.7441 155.089 27.4614 156.948C26.6713 162.143 27.034 163.703 27.525 163.795Z" fill="#47311D"/>
<path fill-rule="evenodd" clip-rule="evenodd" d="M30.6472 156.64C27 155.881 27 154.753 27 154.753C27 154.753 31.6072 133.191 32.8736 125.955C34.5119 116.595 40.4942 85 40.4942 85L66.9517 85.372C66.9517 85.372 68.5007 114.975 67.8329 123.822C67.2206 131.934 64.2958 156.189 64.2958 156.189C64.2958 156.189 64.1697 157.009 60.7566 156.93C55.4107 156.806 54.9913 155.589 54.9913 155.589C54.9913 155.589 55.5076 136.626 55.3657 130.529C55.2265 124.55 53.8667 107.284 53.8667 107.284C53.8667 107.284 49.0652 122.512 47.2404 127.514C44.5552 134.875 35.5202 156.599 35.5202 156.599C35.5202 156.599 34.6495 157.473 30.6472 156.64Z" fill="#A07855"/>
<path d="M30.6472 156.64C27 155.881 27 154.753 27 154.753C27 154.753 31.6072 133.191 32.8736 125.955C34.5119 116.595 40.4942 85 40.4942 85L66.9517 85.372C66.9517 85.372 68.5007 114.975 67.8329 123.822C67.2206 131.934 64.2958 156.189 64.2958 156.189C64.2958 156.189 64.1697 157.009 60.7566 156.93C55.4107 156.806 54.9913 155.589 54.9913 155.589C54.9913 155.589 55.5076 136.626 55.3657 130.529C55.2265 124.55 53.8667 107.284 53.8667 107.284C53.8667 107.284 49.0652 122.512 47.2404 127.514C44.5552 134.875 35.5202 156.599 35.5202 156.599C35.5202 156.599 34.6495 157.473 30.6472 156.64Z" fill="url(#paint6_linear_1_310)"/>
<path fill-rule="evenodd" clip-rule="evenodd" d="M66.3875 53.0158C66.5767 54.7881 68.4105 63.0088 68.1481 65.5826C67.7456 69.5299 69 85.2514 69 85.2535C68.8338 86.799 68.8617 90.7521 68.7419 92.0293C68.7419 92.0293 67.6446 94.6564 51.503 94.9834C39.9548 95.2174 40 92.8982 40 92.8982C40.3811 90.6725 40.683 88.5269 40.9186 86.4689C40.922 86.4451 40.9244 86.4225 40.927 86.3986C40.9335 86.3445 40.9393 86.2894 40.9459 86.2353C41.2188 83.8021 41.3991 81.4921 41.5066 79.3141C41.6414 76.591 41.662 74.0777 41.6083 71.7959C41.605 71.6878 41.6025 71.5796 41.6 71.4725C41.5984 71.4152 41.5967 71.359 41.595 71.3027C41.5768 70.6798 41.5537 70.0753 41.5255 69.4891V69.488C41.5099 69.1529 41.4926 68.8252 41.4735 68.5029C41.4677 68.4056 41.4619 68.3083 41.4553 68.2119C41.0154 61.0702 48.1277 47.3968 48.1277 47.3968C48.1277 47.3968 47.315 41 53.6074 41C63.0893 41 65.356 43.3541 66.3875 53.0158Z" fill="#FFDF01"/>
<path d="M66.3875 53.0158C66.5767 54.7881 68.4105 63.0088 68.1481 65.5826C67.7456 69.5299 69 85.2514 69 85.2535C68.8338 86.799 68.8617 90.7521 68.7419 92.0293C68.7419 92.0293 67.6446 94.6564 51.503 94.9834C39.9548 95.2174 40 92.8982 40 92.8982C40.3811 90.6725 40.683 88.5269 40.9186 86.4689C40.922 86.4451 40.9244 86.4225 40.927 86.3986C40.9335 86.3445 40.9393 86.2894 40.9459 86.2353C41.2188 83.8021 41.3991 81.4921 41.5066 79.3141C41.6414 76.591 41.662 74.0777 41.6083 71.7959C41.605 71.6878 41.6025 71.5796 41.6 71.4725C41.5984 71.4152 41.5967 71.359 41.595 71.3027C41.5768 70.6798 41.5537 70.0753 41.5255 69.4891V69.488C41.5099 69.1529 41.4926 68.8252 41.4735 68.5029C41.4677 68.4056 41.4619 68.3083 41.4553 68.2119C41.0154 61.0702 48.1277 47.3968 48.1277 47.3968C48.1277 47.3968 47.315 41 53.6074 41C63.0893 41 65.356 43.3541 66.3875 53.0158Z" fill="url(#paint7_linear_1_310)"/>
<path fill-rule="evenodd" clip-rule="evenodd" d="M59.8679 39.1657C59.8021 38.7747 59.7432 38.3888 59.6935 38.0362C59.6413 37.6663 59.5988 37.3356 59.5667 37.0769C59.524 36.7303 59.5008 36.5151 59.5008 36.5151L56.4229 35.4846L56.0839 34L54.3481 34.791C54.3839 34.2378 54.4554 37.9847 54.0045 43.0156C53.8897 44.2952 55.9578 46.92 59.5432 45.6719C61.7746 44.895 60.8734 42.5597 60.5113 41.7871C60.3746 41.4941 60.2458 41.04 60.128 40.5179C60.0322 40.0955 59.9444 39.6267 59.8679 39.1657Z" fill="#FBB37E"/>
<path fill-rule="evenodd" clip-rule="evenodd" d="M55 36C55.0084 36.0401 55.0151 36.0801 55.0235 36.1186C55.1256 36.5865 55.2782 37.0109 55.469 37.4002C55.5125 37.49 55.5578 37.5781 55.6064 37.6646C55.6098 37.671 55.6132 37.6773 55.6164 37.6838C55.6633 37.7687 55.7135 37.8504 55.7638 37.9305C56.9414 39.7921 59.0017 40.6685 60 41C59.8777 40.5243 59.7655 39.9939 59.6683 39.4733C59.6482 39.3644 59.6281 39.2538 59.6079 39.1464C59.603 39.1176 59.598 39.0903 59.593 39.0615C59.5896 39.0343 59.5846 39.0071 59.5796 38.9814C59.5744 38.9542 59.5695 38.927 59.5645 38.8998C59.5242 38.6562 59.4857 38.4208 59.449 38.1965C58.4104 37.8103 56.4087 36.7563 55.4858 36.2628C55.186 36.1011 55 36 55 36Z" fill="#6B4C32"/>
<path fill-rule="evenodd" clip-rule="evenodd" d="M59.7487 48.0833C59.7487 48.0833 62.7475 75.5823 61.8231 84.8815C61.7808 85.3069 61.5916 85.7029 61.2912 86.0046L58.5568 88.7509C58.2084 89.1008 57.6387 89.0793 57.3171 88.7041L54.4553 85.7391C54.1227 85.3943 53.959 84.9195 54.0088 84.4411C54.5297 79.4457 57.4276 51.2069 56.7127 48L59.7487 48.0833Z" fill="#A07855"/>
<path fill-rule="evenodd" clip-rule="evenodd" d="M49.2431 65.6228C49.2431 65.6228 49.4434 85.7622 42.3775 100C42.3775 100 29.9492 99.5127 27 95.0769C27 95.0769 35.9607 75.6491 39.3734 47.0069C39.7805 43.5894 49.2698 44.0171 49.2698 44.0171L50 53.8553L49.2431 65.6228Z" fill="#A07855"/>
<path d="M49.2431 65.6228C49.2431 65.6228 49.4434 85.7622 42.3775 100C42.3775 100 29.9492 99.5127 27 95.0769C27 95.0769 35.9607 75.6491 39.3734 47.0069C39.7805 43.5894 49.2698 44.0171 49.2698 44.0171L50 53.8553L49.2431 65.6228Z" fill="url(#paint8_linear_1_310)"/>
<path fill-rule="evenodd" clip-rule="evenodd" d="M64.0638 63.469C64.0638 63.469 64.4433 79.6998 65.5335 94.9973C65.5335 94.9973 71.2733 95.2533 74 90.8092C74 90.8092 69.0431 64.876 72.2654 51.4118L63 44.0209C63 44.0209 63.0692 43.1092 63.898 53.3415C64.0598 55.3406 64.0638 63.469 64.0638 63.469Z" fill="#A07855"/>
<path fill-rule="evenodd" clip-rule="evenodd" d="M52 41C52 41 51.4665 53.8633 50.0521 66C50.0521 66 48.3415 60.3557 48.6573 54.7666C48.6573 54.7666 50.2627 54.2159 50.4206 53.8028C50.4206 53.8028 48.9994 53.2522 48.5256 53.3349C48.5256 53.3349 43.4401 51.9205 45.4847 43.231C45.4847 43.231 48.0292 41.2103 52 41Z" fill="#DDB592"/>
<path fill-rule="evenodd" clip-rule="evenodd" d="M61 39.9478C61 39.9478 63.4618 43.1448 63.7769 64C63.7769 64 67 58.469 66.6737 54.0889C66.6737 54.0889 64.7209 53.3254 64.4242 52.736C64.4242 52.736 65.8332 51.7581 66.9703 51.7581C66.9703 51.7581 67.488 43.681 64.1975 39C64.1975 39 62.3725 39.7066 61 39.9478Z" fill="#DDB592"/>
<path fill-rule="evenodd" clip-rule="evenodd" d="M59.9698 45.7158C59.9698 45.7158 59.9104 44.9378 58.8807 45.0696C57.8509 45.2012 56.8651 44.877 56.5144 45.0545C56.1635 45.2319 55.8446 45.7486 56.0821 46.3628C56.3194 46.9771 57.4303 48.0943 58.3853 47.9936C59.3403 47.8928 60.1705 46.3377 59.9698 45.7158Z" fill="#A07855"/>
<path fill-rule="evenodd" clip-rule="evenodd" d="M53.8185 39C53.8185 39 52.2122 39.1645 51.1999 40.7145C50.5855 41.6552 49.0452 41.8997 49.0007 42.3065C48.9562 42.7133 51.0539 48.2162 55.9043 49C55.9043 49 56.7738 48.3349 56.8183 47.152C56.8628 45.9693 57.9749 45.4293 57.9749 45.4293C57.9749 45.4293 58.2125 44.6836 57.2261 44.2724C56.2398 43.8613 54.8744 41.8368 54.3294 41.1247C53.7172 40.3249 53.8185 39 53.8185 39Z" fill="#FFE534"/>
<path fill-rule="evenodd" clip-rule="evenodd" d="M59.1244 39C59.1244 39 62.1947 39.1195 62.9156 40.9927C63.2852 41.9526 62.3411 45.7868 62.0181 46.8122C61.6951 47.8374 61.2907 48.4595 60.8495 47.5812C60.4082 46.7029 59.1256 44.8211 58.3288 44.7959C57.5096 44.77 58.4544 44.0138 58.6562 43.3445C59.4489 40.7151 59.1244 39 59.1244 39Z" fill="#FFE534"/>
<path fill-rule="evenodd" clip-rule="evenodd" d="M53.2985 32.8427C53.2985 32.8427 56.6456 39.9044 62.5273 37.5012C68.5441 35.0431 65.613 31.0471 62.1934 25.081C60.1293 21.4803 48.0822 21.6655 53.2985 32.8427Z" fill="#FBB37E"/>
<path fill-rule="evenodd" clip-rule="evenodd" d="M51.7665 31.9839C52.0083 31.9502 52.2557 31.9877 52.4956 31.9462C53.2156 31.822 53.8877 31.4467 54.3271 30.8987C54.8766 30.2135 55.0421 29.2385 54.6184 28.4796C54.4066 28.1003 54.1025 27.7704 53.7819 27.4648C53.7764 27.4596 53.7711 27.4544 53.7657 27.4492C53.2525 26.9516 53.4906 26.1108 54.2008 25.9168C54.5254 25.8284 54.8613 25.7791 55.1404 25.7667C56.2125 25.7189 57.2875 25.7277 58.3586 25.7931C59.065 25.8362 59.7761 25.7969 60.4689 25.6606C63.9067 24.9839 63.3515 22.749 61.6903 21.5649C60.733 20.8824 58.4185 20.584 56.7661 21.2379C56.7661 21.2379 58.7248 20.3364 58.1909 19.4466C57.3434 18.0338 50.4206 20.1549 48.8113 23.2576C48.8113 23.2576 46.7096 24.7491 47.034 26.7515C47.3584 28.7538 49.7368 32.2668 51.7665 31.9839Z" fill="#6B4C32"/>
<path fill-rule="evenodd" clip-rule="evenodd" d="M51.0421 32.0316C51.2665 31.2448 52.325 30.8167 53.4063 31.0755C54.4876 31.3342 55.1823 32.1817 54.9579 32.9684C54.7335 33.7552 53.6749 34.1833 52.5937 33.9245C51.5124 33.6658 50.8177 32.8183 51.0421 32.0316Z" fill="#FBB37E"/>
<path fill-rule="evenodd" clip-rule="evenodd" d="M301.929 15C301.929 15 307.072 31.3122 308.594 33.2509C310.116 35.1897 324 40.8788 324 40.8788L316.59 51C316.59 51 304.286 43.7633 300.478 39.551C296.669 35.3386 293 16.678 293 16.678L301.929 15Z" fill="#FFDF01"/>
<path fill-rule="evenodd" clip-rule="evenodd" d="M301.023 16.033C300.24 16.3132 299.051 16.587 297.694 16.7771C296.927 16.8846 296.195 16.9518 295.548 16.9823C294.104 17.049 293.079 16.926 293.004 16.6299C292.929 16.331 293.836 15.9365 295.23 15.6062C295.842 15.4613 296.546 15.3293 297.305 15.2233C298.696 15.0282 299.97 14.9628 300.837 15.0199C301.516 15.0633 301.948 15.1819 301.996 15.3708C302.044 15.5657 301.673 15.8018 301.023 16.033Z" fill="#6B4C32"/>
<path fill-rule="evenodd" clip-rule="evenodd" d="M294.125 8.09085C294.125 8.09085 293.405 12.2051 295.42 13.4989C297.434 14.7927 299.677 13.2696 299.92 12.4289C300.162 11.5884 299.78 5 299.78 5L294.125 8.09085Z" fill="#FBB37E"/>
<path fill-rule="evenodd" clip-rule="evenodd" d="M300.886 6.27944C301.371 7.94056 300.191 6.20171 299.519 6.25794C298.847 6.31404 298.29 6.2451 298.122 4.53234C297.953 2.81959 297.804 0.0855295 298.815 0.00104068C299.751 -0.0772298 300.304 4.27969 300.886 6.27944Z" fill="#FBB37E"/>
<path fill-rule="evenodd" clip-rule="evenodd" d="M300.625 12C300.625 12 301.905 10.4255 301.995 9.51166C302.085 8.59784 301.015 7.18847 300.261 7.00478C299.508 6.82098 300.625 12 300.625 12Z" fill="#FBB37E"/>
<path fill-rule="evenodd" clip-rule="evenodd" d="M293.021 7.76152C292.9 6.21707 293.322 6.06874 293.854 6.01295C294.385 5.9573 294.824 6.01523 294.946 7.55981C295.067 9.10426 295.045 10.9137 294.245 10.9975C293.505 11.0751 293.142 9.30597 293.021 7.76152Z" fill="#FBB37E"/>
<path fill-rule="evenodd" clip-rule="evenodd" d="M295.028 7.09398C294.887 5.23922 295.303 5.06897 295.828 5.01189C296.353 4.95482 296.788 5.03239 296.929 6.88715C297.069 8.74191 297.071 10.9119 296.281 10.9978C295.55 11.0775 295.168 8.94875 295.028 7.09398Z" fill="#FBB37E"/>
<path fill-rule="evenodd" clip-rule="evenodd" d="M296.055 7.09401C295.774 5.23926 296.607 5.06901 297.657 5.01194C298.707 4.95473 299.577 5.03229 299.857 6.88704C300.138 8.7418 300.142 10.9119 298.563 10.9978C297.1 11.0773 296.336 8.94877 296.055 7.09401Z" fill="#FBB37E"/>
<path fill-rule="evenodd" clip-rule="evenodd" d="M301 15.7393C300.253 16.1114 299.118 16.475 297.823 16.7275C297.091 16.8703 296.393 16.9595 295.775 17L295.471 15.1724L295 12.3343L300.509 12L300.822 14.3937L301 15.7393Z" fill="#FBB37E"/>
<path fill-rule="evenodd" clip-rule="evenodd" d="M326.602 159.244C326.622 160.133 326.647 160.999 326.643 161.803C326.64 162.283 326.319 162.697 325.873 162.79C324.744 163.028 323.567 163.01 322.408 162.989C318.648 162.921 314.887 162.851 311.127 162.783C310.74 162.776 310.307 162.751 310.093 162.343C309.958 162.084 309.977 161.767 310.106 161.504C310.368 160.974 310.896 160.751 311.399 160.554C313.84 159.598 316.49 158.637 318.322 156.79C318.38 156.732 318.437 156.672 318.494 156.611C318.88 156.198 319.226 155.742 319.522 155.232C319.751 154.839 319.944 154.414 320.056 153.97C320.095 153.817 320.124 153.662 320.142 153.504C320.149 153.443 320.155 153.381 320.158 153.319L321.486 153.257L321.868 153.239L327 153C326.65 154.37 326.574 155.979 326.579 157.595C326.58 158.147 326.59 158.699 326.602 159.244Z" fill="#47311D"/>
<path fill-rule="evenodd" clip-rule="evenodd" d="M332.492 109.499C332.492 109.499 327.488 121.236 327.361 127.094C327.231 133.067 328.213 153.356 328.213 153.356C328.213 153.356 327.334 154.592 323.689 154.928C320.54 155.219 319.261 154.534 319.261 154.534C319.261 154.534 315.627 133.171 315.066 125.223C314.455 116.556 318.26 90.9528 318.26 90.9528L334 89L332.492 109.499Z" fill="#A07855"/>
<path d="M332.492 109.499C332.492 109.499 327.488 121.236 327.361 127.094C327.231 133.067 328.213 153.356 328.213 153.356C328.213 153.356 327.334 154.592 323.689 154.928C320.54 155.219 319.261 154.534 319.261 154.534C319.261 154.534 315.627 133.171 315.066 125.223C314.455 116.556 318.26 90.9528 318.26 90.9528L334 89L332.492 109.499Z" fill="url(#paint9_linear_1_310)"/>
<path fill-rule="evenodd" clip-rule="evenodd" d="M363.936 155.33C364.286 156.062 364.632 156.772 364.928 157.442C365.104 157.841 364.95 158.301 364.559 158.539C363.567 159.143 362.435 159.552 361.319 159.952C357.699 161.249 354.077 162.546 350.456 163.844C350.083 163.978 349.661 164.113 349.304 163.85C349.078 163.684 348.979 163.414 349.004 163.149C349.057 162.614 349.479 162.239 349.887 161.894C351.865 160.221 354.04 158.468 355.104 156.273C355.138 156.204 355.17 156.134 355.202 156.064C355.417 155.581 355.578 155.077 355.672 154.547C355.744 154.138 355.771 153.716 355.712 153.306C355.692 153.165 355.663 153.026 355.62 152.888C355.605 152.835 355.588 152.782 355.567 152.729L356.814 152.199L357.173 152.047L361.991 150C362.166 151.264 362.692 152.628 363.299 153.968C363.505 154.427 363.721 154.882 363.936 155.33Z" fill="#47311D"/>
<path fill-rule="evenodd" clip-rule="evenodd" d="M346.881 89.4707C346.881 89.4707 349.911 119.609 352.064 125.013C354.258 130.524 364 149.569 364 149.569C364 149.569 363.179 151.52 359.997 153.069C357.279 154.392 355.144 153.917 355.144 153.917C355.144 153.917 342.817 135.174 339.171 128.129C335.195 120.447 329 95.5502 329 95.5502L335.195 85L346.881 89.4707Z" fill="#A07855"/>
<path d="M346.881 89.4707C346.881 89.4707 349.911 119.609 352.064 125.013C354.258 130.524 364 149.569 364 149.569C364 149.569 363.179 151.52 359.997 153.069C357.279 154.392 355.144 153.917 355.144 153.917C355.144 153.917 342.817 135.174 339.171 128.129C335.195 120.447 329 95.5502 329 95.5502L335.195 85L346.881 89.4707Z" fill="url(#paint10_linear_1_310)"/>
<path fill-rule="evenodd" clip-rule="evenodd" d="M348.026 89.3279C348.026 89.3279 348.306 90.9513 333.303 91.8532C322.627 92.495 317.83 90.8243 317.83 90.8243C316.971 86.9494 316.156 79.9634 314.528 70.4043C313.417 63.8822 313.189 56.0782 313 47.3635C312.993 47.0336 316.531 47.0944 316.605 46.8173C317.433 43.7329 319.618 43.4477 326.233 44.6849C336.501 46.6039 349 51.3151 349 51.3151C349 51.3151 346.932 63.2378 346.774 76.0726C346.774 76.0736 346.774 76.0736 346.774 76.0745C346.723 80.2823 347.527 85.3115 348.026 89.3279Z" fill="#FFDF01"/>
<path d="M348.026 89.3279C348.026 89.3279 348.306 90.9513 333.303 91.8532C322.627 92.495 317.83 90.8243 317.83 90.8243C316.971 86.9494 316.156 79.9634 314.528 70.4043C313.417 63.8822 313.189 56.0782 313 47.3635C312.993 47.0336 316.531 47.0944 316.605 46.8173C317.433 43.7329 319.618 43.4477 326.233 44.6849C336.501 46.6039 349 51.3151 349 51.3151C349 51.3151 346.932 63.2378 346.774 76.0726C346.774 76.0736 346.774 76.0736 346.774 76.0745C346.723 80.2823 347.527 85.3115 348.026 89.3279Z" fill="url(#paint11_linear_1_310)"/>
<path fill-rule="evenodd" clip-rule="evenodd" d="M320.921 73.278C321.382 76.78 324.469 79.2284 327.817 78.7467C327.817 78.7467 332.41 79.8114 337.97 77.5754C355.627 70.4749 364.736 65.1475 344.365 43.1758C338.693 37.0581 323.176 38.4069 317.427 42.4588C314.625 44.434 326.429 48.7529 328.876 51.1907L341.579 63.8448L326.149 66.0649C322.802 66.5466 320.461 69.7759 320.921 73.278Z" fill="#FFDF01"/>
<path fill-rule="evenodd" clip-rule="evenodd" d="M322 24.1157L319.181 22C319.181 22 317.206 28.1003 318.364 29.7556C319.523 31.4108 322 24.1157 322 24.1157Z" fill="#FBB37E"/>
<path fill-rule="evenodd" clip-rule="evenodd" d="M327.706 35.7784C329.543 36.7218 331.565 34.7441 334.405 28.0893C336.923 22.1896 330.632 21 330.632 21C329.8 21.1804 325.285 34.5354 327.706 35.7784Z" fill="#6B4C32"/>
<path fill-rule="evenodd" clip-rule="evenodd" d="M325.42 43.9988C329.212 44.0608 330.24 41.7802 329.955 40.3894C328.837 34.9201 328.491 32.0122 328.49 32L327.078 32.9393L326.741 33.1296L323.812 34.7868C323.812 34.7868 323.818 35.0282 323.822 35.4171C323.824 35.7081 323.826 36.079 323.823 36.4956C323.821 36.8643 323.814 37.2664 323.802 37.677C323.801 37.7083 323.8 37.7395 323.8 37.7708C323.785 38.2917 323.76 38.8233 323.72 39.3048C323.68 39.8167 323.623 40.2738 323.547 40.6118C323.534 40.6673 323.521 40.7198 323.507 40.7687C323.249 41.6812 321.788 43.9403 325.42 43.9988Z" fill="#FBB37E"/>
<path fill-rule="evenodd" clip-rule="evenodd" d="M323 40.9962L323 41C324.301 40.664 326.829 38.2694 327 35.0042C327.002 34.9635 326.574 35.232 326.575 35.1901C326.575 35.1901 326.434 35.3192 326.205 35.5231C325.532 36.1255 324.104 37.3812 323.269 37.9539C323.268 37.9863 323.268 38.0186 323.267 38.0511C323.251 38.5911 323.225 39.1422 323.183 39.6413C323.14 40.1721 323.081 40.6458 323 40.9962Z" fill="#6B4C32"/>
<path fill-rule="evenodd" clip-rule="evenodd" d="M322.361 37.9243C328.567 38.8302 329.716 31.3083 329.716 31.3083C331.834 19.5076 321.476 20.2935 319.704 26.1258C317.764 32.5104 316.257 37.0332 322.361 37.9243Z" fill="#FBB37E"/>
<path fill-rule="evenodd" clip-rule="evenodd" d="M325.068 37.9919C326.359 37.0372 327.247 35.6398 327.994 34.0696C328.022 34.0121 327.944 33.97 327.917 34.0272C327.176 35.5829 326.299 36.9609 325.019 37.9073C324.972 37.9419 325.021 38.0264 325.068 37.9919Z" fill="#935B4A"/>
<path fill-rule="evenodd" clip-rule="evenodd" d="M319.279 25.0132C319.554 25.2972 319.984 25.3251 320.379 25.3429C322.378 25.4325 324.365 25.6361 326.328 25.9527C326.747 26.0202 327.217 26.1306 327.408 26.5253C327.498 26.7096 327.51 26.9293 327.516 27.1426C327.561 28.5503 327.228 30.5927 327.782 30.7222L328.813 31.9348C329.363 32.1903 330.064 31.6555 330.264 31.0166C330.465 30.3779 330.308 29.7068 330.121 29.0946C330.068 28.9223 330.013 28.748 330.008 28.5631C330.001 28.2449 330.144 27.9351 330.277 27.639C330.944 26.1628 331.478 24.6263 331.866 23.06C331.986 22.5752 332.088 22.0397 331.88 21.6176C331.761 21.3751 331.552 21.202 331.337 21.0534C330.7 20.6111 329.962 20.3254 329.189 20.222C328.685 20.1545 328.146 20.1567 327.72 19.8856C327.475 19.7291 327.281 19.4889 327.018 19.3638C326.426 19.0819 325.719 19.4574 324.943 19.6748C324.486 19.8693 323.835 19.9287 323.331 19.6264C323.103 19.489 322.916 19.2841 322.683 19.1542C322.077 18.8162 321.258 19.0671 320.708 19.5838C320.157 20.1006 319.828 20.8299 319.578 21.5543C319.36 22.1892 319.189 22.8396 319.069 23.4964C318.971 24.0321 318.93 24.6527 319.279 25.0132Z" fill="#6B4C32"/>
<path fill-rule="evenodd" clip-rule="evenodd" d="M329.106 32.7287C329.864 32.2536 330.206 31.3184 329.872 30.6397C329.537 29.9611 328.651 29.7963 327.894 30.2714C327.136 30.7464 326.794 31.6817 327.128 32.3603C327.463 33.0388 328.349 33.2037 329.106 32.7287Z" fill="#FBB37E"/>
<path fill-rule="evenodd" clip-rule="evenodd" d="M327.065 33.8336C326.989 33.8197 326.974 33.9462 327.05 33.9601C327.724 34.0829 328.484 33.9139 329.082 33.565C329.616 33.2536 329.868 32.6762 329.998 32.0685C330.015 31.9886 329.897 31.9727 329.879 32.0523C329.738 32.7111 329.451 33.2595 328.852 33.5408C328.294 33.8028 327.672 33.944 327.065 33.8336Z" fill="#935B4A"/>
<path fill-rule="evenodd" clip-rule="evenodd" d="M336.236 76.8883C336.603 76.9986 336.932 77.0298 337.208 76.9703C337.208 76.9696 337.208 76.9696 337.209 76.9701C337.282 76.9537 337.352 76.9313 337.416 76.9022C337.821 76.7225 338.009 76.3102 338 75.7454C337.982 74.7074 337.297 73.1541 336.072 71.5818C335.666 71.0611 335.235 70.5801 334.798 70.1503C333.193 68.577 331.493 67.695 330.591 68.0967C329.441 68.6081 330.017 71.0039 331.909 73.4321C333.291 75.2048 334.978 76.5118 336.236 76.8883Z" fill="#6B4C32"/>
<path fill-rule="evenodd" clip-rule="evenodd" d="M324.251 45.0833C324.251 45.0833 321.253 72.5824 322.177 81.8815C322.219 82.3069 322.408 82.703 322.709 83.0046L325.443 85.7508C325.792 86.1008 326.361 86.0793 326.683 85.7042L329.545 82.7391C329.877 82.3943 330.041 81.9195 329.991 81.4411C329.47 76.4457 326.572 48.2068 327.287 45L324.251 45.0833Z" fill="#A07855"/>
<path fill-rule="evenodd" clip-rule="evenodd" d="M333.976 71.879C334.212 71.3686 332.689 69.3098 331.633 68.697C330.577 68.0843 328.459 66.7864 328.258 67.0301C327.189 68.3278 329.722 69.9327 330.778 70.5455C331.834 71.1583 333.739 72.3895 333.976 71.879Z" fill="#FBB37E"/>
<path fill-rule="evenodd" clip-rule="evenodd" d="M325.102 73.6987C327.453 73.4169 328.078 72.9792 327.992 72.5418C327.907 72.1046 327.142 71.8334 324.791 72.1151C322.44 72.3969 318.863 72.8983 319.004 73.6191C319.126 74.2384 322.751 73.9805 325.102 73.6987Z" fill="#FBB37E"/>
<path fill-rule="evenodd" clip-rule="evenodd" d="M326.766 75.4952C329.379 75.0486 330.08 74.4015 329.993 73.7659C329.905 73.1303 329.062 72.7469 326.449 73.1933C323.836 73.64 319.86 74.4251 320.004 75.4728C320.128 76.3727 324.153 75.9417 326.766 75.4952Z" fill="#FBB37E"/>
<path fill-rule="evenodd" clip-rule="evenodd" d="M328.812 77.1813C331.423 76.6164 332.102 76.0334 331.988 75.5201C331.874 75.0067 331.011 74.7574 328.4 75.3223C325.789 75.8872 321.819 76.8335 322.006 77.6797C322.168 78.4066 326.201 77.7463 328.812 77.1813Z" fill="#FBB37E"/>
<path fill-rule="evenodd" clip-rule="evenodd" d="M328.671 71.8891C331.287 71.6785 332.032 70.9794 331.999 70.1936C331.966 69.408 331.166 68.8332 328.55 69.0439C325.935 69.2545 321.946 69.7038 322.001 70.9987C322.048 72.1112 326.056 72.0997 328.671 71.8891Z" fill="#FBB37E"/>
<path fill-rule="evenodd" clip-rule="evenodd" d="M327.499 76.9929L332.016 76.6123C333.916 76.3629 335.242 74.5764 334.963 72.6422L334.849 71.849C334.633 70.3558 333.006 68.6199 331.484 68L325.223 70.3459C324.445 70.4481 323.901 71.1805 324.015 71.9733L325.722 75.279C325.836 76.0719 326.72 77.095 327.499 76.9929Z" fill="#FBB37E"/>
<path fill-rule="evenodd" clip-rule="evenodd" d="M325.057 73.9996C325.355 73.9169 325.652 73.8342 325.95 73.7508C326.021 73.7312 326.014 72.9801 325.943 73.0004C325.645 73.0831 325.348 73.1658 325.05 73.2485C324.979 73.2688 324.986 74.0199 325.057 73.9996Z" fill="#935B4A"/>
<path fill-rule="evenodd" clip-rule="evenodd" d="M332.613 77.1069C333.938 76.8013 331.443 76.289 331.347 76.0535C331.252 75.8179 330.508 76.4187 329.184 76.7243C327.859 77.0299 325.852 77.535 326.009 77.9233C326.144 78.2569 331.289 77.4125 332.613 77.1069Z" fill="#FBB37E"/>
<path fill-rule="evenodd" clip-rule="evenodd" d="M323.03 44.7157C323.03 44.7157 323.09 43.9377 324.119 44.0695C325.149 44.2013 326.135 43.8771 326.486 44.0544C326.836 44.2319 327.155 44.7485 326.918 45.3628C326.681 45.977 325.57 47.0943 324.615 46.9936C323.66 46.8928 322.829 45.3378 323.03 44.7157Z" fill="#A07855"/>
<path fill-rule="evenodd" clip-rule="evenodd" d="M329.408 36C329.408 36 330.615 36 331.66 37.1515C332.43 37.9992 332.962 38.144 332.999 38.5996C333.037 39.0552 331.557 46.1222 327.458 47C327.458 47 326.917 46.5701 326.88 45.2453C326.842 43.9207 326.091 43.4301 326.091 43.4301C326.091 43.4301 325.702 42.4808 326.535 42.0204C327.368 41.5599 328.755 39.4062 328.983 38.495C329.211 37.584 329.408 36 329.408 36Z" fill="#FFE534"/>
<path fill-rule="evenodd" clip-rule="evenodd" d="M324.111 39C324.111 39 322.748 39.3603 322.143 40.8567C321.779 41.7575 322.2 44.8212 322.403 45.8305C322.607 46.8399 322.861 47.4524 323.139 46.5877C323.417 45.723 324.191 43.6599 324.654 43.8943C325.116 44.1287 325.115 42.8587 324.654 42.5074C324.192 42.1561 324.111 39 324.111 39Z" fill="#FFE534"/>
<path fill-rule="evenodd" clip-rule="evenodd" d="M265.304 150.897L264.833 150.933L263.346 146C263.345 146.069 263.188 151.193 263.181 151.261C263.167 151.436 263.137 151.608 263.095 151.779C262.976 152.274 262.754 152.751 262.488 153.195C262.143 153.769 261.735 154.287 261.275 154.76C261.207 154.828 261.139 154.897 261.07 154.964C258.883 157.079 255.648 158.25 252.671 159.406C252.058 159.645 251.414 159.912 251.113 160.509C250.964 160.805 250.954 161.154 251.133 161.435C251.413 161.877 251.949 161.886 252.428 161.878C257.079 161.797 261.199 162.335 266.379 161.636C267.797 161.445 269.267 161.582 270.653 161.273C271.2 161.152 271.58 160.681 271.564 160.152C271.535 159.263 271.468 158.309 271.406 157.328C271.368 156.728 271.332 156.119 271.308 155.509C271.235 153.726 271.64 150.3 272 148.125L265.304 150.897Z" fill="#FBB37E"/>
<path fill-rule="evenodd" clip-rule="evenodd" d="M251.376 161.015C251.035 160.881 250.835 161.675 251.179 161.81C254.323 163.042 257.547 163.144 260.771 162.883C264.084 162.614 267.386 162.166 270.706 162.079C271.059 162.07 271.115 161.223 270.76 161.232C267.596 161.315 264.447 161.701 261.29 161.991C257.97 162.296 254.62 162.286 251.376 161.015Z" fill="#47311D"/>
<path fill-rule="evenodd" clip-rule="evenodd" d="M264 162L270.219 161.75C271.816 159.995 270.47 156 270.47 156C264.683 158.774 264 162 264 162Z" fill="#F2735A"/>
<path fill-rule="evenodd" clip-rule="evenodd" d="M255.184 158.06C254.125 158.466 253.178 159.216 251.295 160.019C249.819 160.648 248.912 162.13 252.526 162.691C256.141 163.252 260 162.878 260 162.878C260 162.878 256.995 157.366 255.184 158.06Z" fill="#47311D"/>
<path fill-rule="evenodd" clip-rule="evenodd" d="M255 94.6785C255 94.6785 255.895 112.061 259.733 127.604C263.571 143.148 262.854 160 262.854 160H270.7C270.7 160 274.635 134.199 272.211 124.072C269.787 113.945 273.017 99.9913 264.588 85.6543C256.16 71.3174 255 94.6785 255 94.6785Z" fill="#FBB37E"/>
<path fill-rule="evenodd" clip-rule="evenodd" d="M261 94.6785C261 94.6785 261.895 112.061 265.733 127.604C269.571 143.148 268.854 160 268.854 160H276.7C276.7 160 280.635 134.199 278.211 124.072C275.787 113.945 279.017 99.9913 270.588 85.6543C262.16 71.3174 261 94.6785 261 94.6785Z" fill="#FBB37E"/>
<path fill-rule="evenodd" clip-rule="evenodd" d="M267.07 155.964C264.883 158.079 261.648 159.25 258.671 160.406C258.058 160.645 257.414 160.912 257.113 161.509C256.964 161.805 256.954 162.154 257.133 162.435C257.414 162.877 257.949 162.886 258.428 162.878C263.079 162.797 267.199 163.335 272.379 162.636C273.797 162.444 275.268 162.582 276.653 162.273C277.2 162.152 277.58 161.681 277.564 161.152C277.535 160.263 277.468 159.309 277.406 158.328C277.368 157.728 277.332 157.119 277.308 156.509C277.235 154.726 277.64 151.3 278 149.125L271.305 151.897L270.833 151.933L269.346 147C269.345 147.069 269.188 152.193 269.181 152.261C269.167 152.436 269.137 152.608 269.095 152.779C268.976 153.274 268.754 153.751 268.488 154.195C268.144 154.769 267.735 155.287 267.275 155.76C267.207 155.828 267.139 155.897 267.07 155.964Z" fill="#FBB37E"/>
<path fill-rule="evenodd" clip-rule="evenodd" d="M257.395 163.008C257.036 162.941 256.827 163.338 257.188 163.405C260.489 164.021 263.874 164.072 267.259 163.941C270.739 163.807 274.206 163.583 277.692 163.54C278.062 163.535 278.121 163.112 277.748 163.116C274.426 163.157 271.12 163.35 267.805 163.496C264.319 163.648 260.801 163.643 257.395 163.008Z" fill="#47311D"/>
<path fill-rule="evenodd" clip-rule="evenodd" d="M277.545 158C272.585 160.312 272 163 272 163L277.331 162.792C278.699 161.329 277.545 158 277.545 158Z" fill="#47311D"/>
<path fill-rule="evenodd" clip-rule="evenodd" d="M262.184 160.036C261.125 160.28 260.178 160.729 258.295 161.211C256.819 161.589 255.912 162.478 259.526 162.814C263.141 163.151 267 162.927 267 162.927C267 162.927 263.995 159.62 262.184 160.036Z" fill="#47311D"/>
<path fill-rule="evenodd" clip-rule="evenodd" d="M255.556 121.618C255.556 121.618 272.209 125.303 281 120.638C281 120.638 278.49 99.7182 279.424 90.3223C280.358 80.9264 276.609 78 276.609 78L253.088 79.4235C253.088 79.4235 252.28 102.801 255.556 121.618Z" fill="#A07855"/>
<path d="M255.556 121.618C255.556 121.618 272.209 125.303 281 120.638C281 120.638 278.49 99.7182 279.424 90.3223C280.358 80.9264 276.609 78 276.609 78L253.088 79.4235C253.088 79.4235 252.28 102.801 255.556 121.618Z" fill="url(#paint12_linear_1_310)"/>
<path fill-rule="evenodd" clip-rule="evenodd" d="M281 50.4241C281 50.4241 254.872 42.2185 253.777 51.2124C252.411 62.4421 253.262 87.1465 253.262 87.1465C253.262 87.1465 256.737 91.7839 272.988 89.235C281.131 87.9581 280.497 83.6108 280.497 83.6108C271.324 58.6157 281 50.4241 281 50.4241Z" fill="#FFDF01"/>
<path d="M281 50.4241C281 50.4241 254.872 42.2185 253.777 51.2124C252.411 62.4421 253.262 87.1465 253.262 87.1465C253.262 87.1465 256.737 91.7839 272.988 89.235C281.131 87.9581 280.497 83.6108 280.497 83.6108C271.324 58.6157 281 50.4241 281 50.4241Z" fill="url(#paint13_linear_1_310)"/>
<path fill-rule="evenodd" clip-rule="evenodd" d="M264.868 27.9226C264.683 28.6854 264.51 29.4521 264.351 30.2204C263.667 33.5107 263.218 36.8511 263.008 40.2059C262.991 40.4659 262.986 40.7553 263.154 40.9536C263.281 41.1018 263.477 41.1645 263.665 41.2191C269.308 42.8596 275.27 43.3734 281.108 42.7327C281.157 42.728 281.206 42.7225 281.255 42.7162C281.541 42.6844 281.826 42.6495 282.11 42.6114C282.16 42.6052 282.21 42.5987 282.26 42.5916C282.586 42.5473 282.912 42.4988 283.237 42.4474C283.384 42.4244 283.535 42.3991 283.662 42.3221C283.822 42.2253 283.928 42.0604 284.02 41.897C285.625 39.095 285.223 35.2709 283.072 32.8693C281.962 31.6309 280.48 30.7817 279.355 29.5575C278.511 28.6377 277.892 27.3485 277.981 26.1482C278.01 25.75 278.117 25.3616 278.32 25L275.037 25.4489L273.562 25.6501L270.806 26.0269C268.771 26.3209 266.737 26.6151 264.703 26.9085C265.008 27.109 264.954 27.5666 264.868 27.9226Z" fill="#6B4C32"/>
<path fill-rule="evenodd" clip-rule="evenodd" d="M274.423 26.1492C274.835 26.5573 275.412 26.824 276.055 26.9372C276.505 27.0168 276.987 27.0215 277.465 26.9469C277.56 26.9324 277.654 26.9155 277.747 26.8939C277.881 26.8649 278.014 26.8296 278.145 26.787C278.147 26.787 278.149 26.7862 278.15 26.7854C278.205 26.7685 278.258 26.7492 278.312 26.73C278.341 26.7194 278.37 26.7083 278.398 26.6971C278.432 26.6842 278.467 26.6698 278.501 26.6553C278.615 26.6071 278.727 26.5548 278.835 26.4971C279.931 25.9203 280.748 24.8969 280.951 23.8679C280.961 23.819 280.97 23.7691 280.976 23.7193C280.992 23.6045 281 23.4889 281 23.3748C281 23.1153 280.961 22.8639 280.893 22.6206C280.881 22.5739 280.866 22.5266 280.85 22.4808C280.741 22.145 280.579 21.8261 280.395 21.5241C280.2 21.206 279.975 20.9 279.719 20.618C279.663 20.5546 279.604 20.4928 279.542 20.4317C279.108 19.9939 278.59 19.6245 277.98 19.3675C276.908 18.9159 275.527 18.8493 274.295 19.3433C273.407 19.6991 272.633 20.3731 272.252 21.1305C272.206 21.2213 272.164 21.3144 272.131 21.4084C272.111 21.4639 272.093 21.5193 272.077 21.5747C272.033 21.7289 272.007 21.884 272 22.0375L274.331 25.9925L274.423 26.1492Z" fill="#6B4C32"/>
<path fill-rule="evenodd" clip-rule="evenodd" d="M263.077 22.3153C262.146 22.8498 261.271 23.6063 261 24.6129L264.729 29.737C265.571 30.9755 266.637 32.074 267.865 32.9686C268.571 33.4827 269.372 33.9432 270.257 33.995C271.109 34.0449 271.93 33.7107 272.703 33.3628C273.567 32.9736 277.949 29.5185 274.984 23.673C274.739 23.1896 274.315 22.8026 273.871 22.4743C273.371 22.1042 272.785 21.8547 272.189 21.6517C269.224 20.6402 265.776 20.7652 263.077 22.3153Z" fill="#6B4C32"/>
<path fill-rule="evenodd" clip-rule="evenodd" d="M266.765 34.8196L266.331 34.9891L262.556 36.4566C262.556 36.4566 262.933 37.8771 262.982 39.8978C263.003 40.7875 262.962 41.7933 262.798 42.8447C262.775 42.9925 262.744 43.1362 262.708 43.2768C262.33 44.7481 260.933 48.0715 263.571 47.9988C268.347 47.867 270.254 43.8137 269.973 42.413C268.869 36.9005 268.876 34.0118 268.876 34L266.765 34.8196Z" fill="#FBB37E"/>
<path fill-rule="evenodd" clip-rule="evenodd" d="M262 43C263.112 42.1121 264.964 40.1786 264.999 37.1306C264.999 37.0871 265 37.0435 265 37C265 37 264.86 37.1452 264.634 37.3775C264.089 37.9358 263.041 38.9956 262.224 39.7242C262.241 40.5867 262.207 41.5618 262.073 42.5811C262.054 42.7243 262.029 42.8636 262 43Z" fill="#6B4C32"/>
<path fill-rule="evenodd" clip-rule="evenodd" d="M258.64 28.305C256.308 31.6372 255.814 40.4667 261.552 39.9807C267.289 39.4947 269.804 32.9468 269.804 32.9468C271.563 21.2921 260.971 24.9729 258.64 28.305Z" fill="#FBB37E"/>
<path fill-rule="evenodd" clip-rule="evenodd" d="M264.2 24.8074C262.938 24.0837 261.438 23.9146 259.998 24.0358C255.866 24.385 254.345 25.7959 254.055 27.234C254.032 27.3467 254.016 27.4594 254.008 27.5722C253.912 28.8635 254.724 30.1122 255.439 30.564C256.414 31.1796 257.683 31.0582 258.778 30.7216C259.874 30.3857 260.875 29.7941 261.908 29.2906C262.881 28.8171 264.046 28.4232 265 28.9392L264.429 25.9898L264.401 25.8431L264.2 24.8074Z" fill="#6B4C32"/>
<path fill-rule="evenodd" clip-rule="evenodd" d="M264 25.3426L265.119 28.72C265.119 28.72 267.061 29.4535 266.479 32.7155C266.479 32.7155 268.668 35.0519 271.853 33.4226C275.038 31.7933 270.59 26.6898 270.489 26.6365C270.389 26.5832 268.168 25 268.168 25L264 25.3426Z" fill="#6B4C32"/>
<path fill-rule="evenodd" clip-rule="evenodd" d="M267.152 34.418C267.516 35.0731 268.414 35.1932 269.158 34.6862C269.902 34.1792 270.211 33.2372 269.847 32.582C269.484 31.9269 268.586 31.8068 267.842 32.3138C267.098 32.8208 266.789 33.7628 267.152 34.418Z" fill="#FBB37E"/>
<path fill-rule="evenodd" clip-rule="evenodd" d="M262.09 158.989C263.946 157.784 265.791 156.656 267.079 154.971C268.387 153.26 269.433 151.205 269.902 149.205C270.039 148.622 270.002 148.006 269.971 147.416C269.92 146.439 269.807 145.465 269.682 144.493C269.001 139.221 267.932 133.986 266.992 128.744C266.657 126.874 266.176 124.948 266.138 123.051C266.136 122.983 266.01 122.983 266.011 123.051C266.042 124.559 266.398 126.087 266.658 127.575C267.103 130.118 267.582 132.658 268.041 135.2C268.52 137.855 268.99 140.513 269.375 143.179C269.633 144.965 269.966 146.817 269.854 148.621C269.821 149.149 269.652 149.647 269.477 150.155C269.042 151.412 268.461 152.637 267.74 153.798C267.08 154.86 266.278 155.871 265.256 156.711C264.27 157.521 263.115 158.19 262.026 158.898C261.963 158.939 262.026 159.031 262.09 158.989Z" fill="#EF9778"/>
<path fill-rule="evenodd" clip-rule="evenodd" d="M289.5 83.0911C289.485 83.0204 289.467 82.9643 289.447 82.9191C289.124 81.7748 287.918 80.9463 286.531 81.0027L285.881 81.0292C284.657 81.079 283.697 82.0023 283.746 83.0809C283.757 83.3115 283.676 83.5352 283.524 83.7168C283.272 84.0197 283.084 84.6967 283.036 85.987C282.964 87.9179 282.927 90.8694 283.664 90.8938C284.029 90.9059 284.279 89.9331 284.438 88.7374C284.482 88.7378 284.466 88.7377 284.509 88.7382C284.624 90.5016 284.872 93.0391 285.587 92.9995C286.21 92.9651 286.227 90.3381 286.121 88.5722L286.202 88.5432C286.344 90.3751 286.622 92.543 287.256 92.508C287.848 92.475 287.879 89.886 287.782 87.9765L287.859 87.9489C288.105 89.487 288.46 91.0474 288.934 90.9926C289.376 90.9416 289.313 89.0674 289.147 87.4074C289.19 87.3695 289.229 87.3303 289.266 87.2898C289.447 87.8181 289.654 88.2078 289.872 88.1656C290.238 88.0946 289.726 84.1223 289.5 83.0911Z" fill="#FBB37E"/>
<path fill-rule="evenodd" clip-rule="evenodd" d="M239.929 19C239.929 19 245.072 35.3122 246.594 37.2509C248.116 39.1897 262 44.8788 262 44.8788L254.59 55C254.59 55 242.286 47.7633 238.478 43.551C234.669 39.3386 231 20.678 231 20.678L239.929 19Z" fill="#FFDF01"/>
<path d="M239.929 19C239.929 19 245.072 35.3122 246.594 37.2509C248.116 39.1897 262 44.8788 262 44.8788L254.59 55C254.59 55 242.286 47.7633 238.478 43.551C234.669 39.3386 231 20.678 231 20.678L239.929 19Z" fill="url(#paint14_linear_1_310)"/>
<path fill-rule="evenodd" clip-rule="evenodd" d="M240.023 19.5495C239.24 19.9698 238.051 20.3805 236.694 20.6656C235.927 20.8269 235.195 20.9277 234.548 20.9735C233.104 21.0736 232.079 20.8891 232.004 20.4448C231.929 19.9966 232.836 19.4047 234.23 18.9093C234.842 18.692 235.546 18.4939 236.305 18.335C237.696 18.0423 238.97 17.9442 239.837 18.0298C240.516 18.095 240.948 18.2729 240.996 18.5562C241.044 18.8486 240.673 19.2026 240.023 19.5495Z" fill="#6B4C32"/>
<path fill-rule="evenodd" clip-rule="evenodd" d="M233.125 11.0908C233.125 11.0908 232.405 15.2051 234.419 16.4989C236.434 17.7927 238.677 16.2696 238.92 15.4289C239.162 14.5884 238.78 8 238.78 8L233.125 11.0908Z" fill="#FBB37E"/>
<path fill-rule="evenodd" clip-rule="evenodd" d="M238.924 10.1765C239.247 12.0749 238.461 10.0877 238.013 10.1519C237.564 10.2161 237.194 10.1373 237.081 8.17982C236.968 6.22239 236.869 3.09775 237.543 3.00119C238.167 2.91174 238.536 7.89107 238.924 10.1765Z" fill="#FBB37E"/>
<path fill-rule="evenodd" clip-rule="evenodd" d="M239.625 16C239.625 16 240.905 14.1106 240.995 13.014C241.085 11.9174 240.015 10.2263 239.261 10.0057C238.507 9.78518 239.625 16 239.625 16Z" fill="#FBB37E"/>
<path fill-rule="evenodd" clip-rule="evenodd" d="M231.031 10.7615C230.849 9.21707 231.483 9.06874 232.281 9.01295C233.078 8.9573 233.736 9.01523 233.918 10.5598C234.1 12.1043 234.067 13.9137 232.868 13.9975C231.758 14.0751 231.213 12.306 231.031 10.7615Z" fill="#FBB37E"/>
<path fill-rule="evenodd" clip-rule="evenodd" d="M234.028 10.443C233.887 8.27909 234.303 8.08046 234.828 8.01388C235.353 7.94729 235.788 8.03778 235.929 10.2017C236.069 12.3656 236.071 14.8972 235.281 14.9975C234.55 15.0904 234.168 12.6069 234.028 10.443Z" fill="#FBB37E"/>
<path fill-rule="evenodd" clip-rule="evenodd" d="M235.041 10.094C234.831 8.23926 235.455 8.069 236.242 8.01193C237.03 7.95472 237.682 8.03242 237.893 9.88718C238.104 11.7418 238.106 13.9119 236.922 13.9978C235.825 14.0773 235.252 11.9488 235.041 10.094Z" fill="#FBB37E"/>
<path fill-rule="evenodd" clip-rule="evenodd" d="M239 19.7393C238.377 20.1114 237.432 20.475 236.353 20.7275C235.743 20.8703 235.161 20.9595 234.646 21L234.393 19.1724L234 16.3343L238.591 16L238.852 18.3937L239 19.7393Z" fill="#FBB37E"/>
<path fill-rule="evenodd" clip-rule="evenodd" d="M270.771 44C270.771 44 275.623 45.9376 278.999 47.7287C282.374 49.5197 289.017 66.1223 289.344 68.1194C289.671 70.1167 290 82.7659 290 82.7659C290 82.7659 286.773 84.7808 282.829 83.6614C282.829 83.6614 281.219 70.3406 281.056 69.445C280.893 68.5495 274.617 60.266 274.617 60.266L269 49.3749L270.771 44Z" fill="#FFDF01"/>
<path d="M270.771 44C270.771 44 275.623 45.9376 278.999 47.7287C282.374 49.5197 289.017 66.1223 289.344 68.1194C289.671 70.1167 290 82.7659 290 82.7659C290 82.7659 286.773 84.7808 282.829 83.6614C282.829 83.6614 281.219 70.3406 281.056 69.445C280.893 68.5495 274.617 60.266 274.617 60.266L269 49.3749L270.771 44Z" fill="url(#paint15_linear_1_310)"/>
<path fill-rule="evenodd" clip-rule="evenodd" d="M268.764 41.0001C268.764 41.0001 269.748 40.96 270.531 42.2575C271.108 43.2127 272.055 42.9583 271.998 43.3837C271.94 43.8091 268.911 51.154 264.73 50.9975C264.73 50.9975 264.29 50.4779 264.526 49.2579C264.762 48.0377 264.001 47.2184 264.001 47.2184C264.001 47.2184 263.946 46.4543 264.854 46.2283C265.762 46.0024 267.558 44.3575 267.968 43.5778C268.379 42.7981 268.764 41.0001 268.764 41.0001Z" fill="#FFE534"/>
<path fill-rule="evenodd" clip-rule="evenodd" d="M262 42.0012C262 42.0012 260.632 41.9166 259.784 43.1657C259.274 43.9175 259.026 46.8386 259.003 47.8154C258.98 48.792 259.083 49.4134 259.509 48.676C259.935 47.9384 261.049 46.2031 261.417 46.5211C261.785 46.8391 261.884 45.763 261.7 45.2406C261.619 45.0121 262 42.0012 262 42.0012Z" fill="#FFE534"/>
<path fill-rule="evenodd" clip-rule="evenodd" d="M124.397 160.244C124.378 161.133 124.353 161.999 124.357 162.803C124.36 163.283 124.681 163.697 125.127 163.79C126.256 164.028 127.434 164.01 128.592 163.989C132.352 163.92 136.113 163.851 139.873 163.783C140.26 163.776 140.693 163.751 140.907 163.343C141.042 163.084 141.023 162.767 140.894 162.504C140.632 161.974 140.104 161.751 139.601 161.554C137.16 160.598 134.51 159.637 132.678 157.79C132.62 157.732 132.563 157.671 132.506 157.611C132.12 157.198 131.774 156.742 131.478 156.232C131.249 155.839 131.056 155.414 130.944 154.97C130.905 154.817 130.876 154.662 130.858 154.503C130.851 154.442 130.845 154.381 130.842 154.319L129.514 154.257L129.132 154.239L124 154C124.35 155.37 124.426 156.979 124.421 158.594C124.42 159.147 124.41 159.699 124.397 160.244Z" fill="#47311D"/>
<path fill-rule="evenodd" clip-rule="evenodd" d="M95.4958 163.795C96.6696 164.027 97.8939 164.009 99.0983 163.989C103.008 163.922 106.918 163.854 110.829 163.788C111.231 163.781 111.681 163.756 111.903 163.356C112.044 163.102 112.024 162.792 111.89 162.534C111.618 162.014 111.068 161.796 110.545 161.602C108.007 160.665 105.252 159.723 103.347 157.912C103.287 157.855 103.228 157.796 103.169 157.737C102.767 157.332 102.407 156.884 102.099 156.385C101.861 155.999 101.66 155.583 101.544 155.148C101.503 154.997 101.473 154.845 101.455 154.69C101.447 154.63 101.441 154.571 101.438 154.51L100.057 154.449L99.6597 154.431L96.5964 148C96.9604 149.343 95.7027 155.089 95.4358 156.948C94.6895 162.143 95.0321 163.703 95.4958 163.795Z" fill="#47311D"/>
<path fill-rule="evenodd" clip-rule="evenodd" d="M98.6115 156.64C95 155.881 95 154.753 95 154.753C95 154.753 99.562 133.191 100.816 125.955C102.438 116.595 108.362 85 108.362 85L137 88.3523C137 88.3523 136.094 114.975 135.432 123.822C134.826 131.934 131.93 156.189 131.93 156.189C131.93 156.189 131.805 157.009 128.426 156.93C123.132 156.806 122.717 155.589 122.717 155.589C122.717 155.589 123.228 136.626 123.088 130.529C122.95 124.55 121.603 107.284 121.603 107.284C121.603 107.284 116.849 122.512 115.042 127.514C112.383 134.875 103.437 156.599 103.437 156.599C103.437 156.599 102.575 157.473 98.6115 156.64Z" fill="#A07855"/>
<path d="M98.6115 156.64C95 155.881 95 154.753 95 154.753C95 154.753 99.562 133.191 100.816 125.955C102.438 116.595 108.362 85 108.362 85L137 88.3523C137 88.3523 136.094 114.975 135.432 123.822C134.826 131.934 131.93 156.189 131.93 156.189C131.93 156.189 131.805 157.009 128.426 156.93C123.132 156.806 122.717 155.589 122.717 155.589C122.717 155.589 123.228 136.626 123.088 130.529C122.95 124.55 121.603 107.284 121.603 107.284C121.603 107.284 116.849 122.512 115.042 127.514C112.383 134.875 103.437 156.599 103.437 156.599C103.437 156.599 102.575 157.473 98.6115 156.64Z" fill="url(#paint16_linear_1_310)"/>
<path fill-rule="evenodd" clip-rule="evenodd" d="M115.672 24C115.672 24 110.901 25.5821 112.235 29.9428C113.428 33.8389 120.942 36.844 123.549 35.7856C126.156 34.7274 116.654 24.0308 115.672 24Z" fill="#282F35"/>
<path fill-rule="evenodd" clip-rule="evenodd" d="M125.409 44.7821C129.732 43.9177 127.452 41.923 126.962 41.1177C126.936 41.0745 126.909 41.0279 126.883 40.9782C126.725 40.6755 126.566 40.2559 126.416 39.7809C126.272 39.3345 126.136 38.8375 126.014 38.3483C126.007 38.3188 126 38.2895 125.993 38.2602C125.897 37.8744 125.808 37.4957 125.732 37.1475C125.645 36.7544 125.573 36.4033 125.518 36.1276C125.444 35.7591 125.403 35.5295 125.403 35.5295L121.578 34.6149L121.137 34.5102L119 34C119.001 34.0117 119.434 36.775 119.192 42.1956C119.13 43.5743 120.897 45.6857 125.409 44.7821Z" fill="#FBB37E"/>
<path fill-rule="evenodd" clip-rule="evenodd" d="M119.883 33.358C119.883 33.358 122.308 40.6466 128.356 38.6554C134.304 36.6973 131.815 32.5642 129.008 26.4406C127.313 22.7446 115.762 21.979 119.883 33.358Z" fill="#FBB37E"/>
<path fill-rule="evenodd" clip-rule="evenodd" d="M116.484 32.9762C116.74 32.9603 116.996 33.0181 117.25 32.9941C118.015 32.9222 118.752 32.5883 119.262 32.0584C119.899 31.396 120.16 30.4056 119.786 29.5918C119.599 29.185 119.311 28.8219 119.003 28.4825C118.998 28.4767 118.992 28.471 118.987 28.4653C118.495 27.9134 118.821 27.0665 119.582 26.9223C119.929 26.8564 120.285 26.8319 120.578 26.8407C121.704 26.8749 122.828 26.9675 123.943 27.1181C124.678 27.2173 125.425 27.2322 126.163 27.1457C129.821 26.7164 129.443 24.3735 127.812 23.026C126.873 22.2494 124.478 21.7624 122.69 22.3068C122.69 22.3068 124.821 21.5313 124.343 20.5742C123.584 19.0546 116.149 20.6993 114.184 23.7669C114.184 23.7669 111.85 25.1385 112.008 27.2241C112.165 29.3099 114.335 33.1095 116.484 32.9762Z" fill="#6B4C32"/>
<path fill-rule="evenodd" clip-rule="evenodd" d="M128 26.3291C128 26.3291 125.006 26.7426 126.076 28.3784C127.146 30.0142 125.891 32.4612 125.047 33.0673C124.203 33.6732 124.66 37.6124 120.824 36.9183C116.989 36.2243 113.372 33.3381 112.767 31.2471C112.161 29.1561 111.706 27.9088 112.229 26.5991C112.753 25.2896 125.013 24 125.013 24L128 26.3291Z" fill="#6B4C32"/>
<path fill-rule="evenodd" clip-rule="evenodd" d="M125.008 31.7065C124.911 30.886 125.725 30.1285 126.825 30.0144C127.926 29.9005 128.896 30.4732 128.992 31.2936C129.089 32.114 128.275 32.8715 127.175 32.9855C126.074 33.0996 125.104 32.5269 125.008 31.7065Z" fill="#FBB37E"/>
<path fill-rule="evenodd" clip-rule="evenodd" d="M123.05 41C119.813 41 113.366 41.5993 110.453 44.5421C106.327 48.7101 111.701 67.7806 105 90.7688C105 90.7688 119.524 97.5409 138 91.4771C138 91.4771 137.215 60.0733 136.193 54.1878C135.17 48.3023 132.951 41 123.05 41Z" fill="#DDB592"/>
<path d="M123.05 41C119.813 41 113.366 41.5993 110.453 44.5421C106.327 48.7101 111.701 67.7806 105 90.7688C105 90.7688 119.524 97.5409 138 91.4771C138 91.4771 137.215 60.0733 136.193 54.1878C135.17 48.3023 132.951 41 123.05 41Z" fill="url(#paint17_linear_1_310)"/>
<path fill-rule="evenodd" clip-rule="evenodd" d="M110.19 44.2472C104.684 48.5569 98.5208 61.5778 96.4291 68.4799C95.0571 73.0069 91 88.9161 91 88.9161L99.9484 91C99.9484 91 104.087 76.1733 106.116 71.4665C107.814 67.5266 114 56.2906 114 56.2906C114 56.2906 113.111 41.9606 110.19 44.2472Z" fill="#DDB592"/>
<path d="M110.19 44.2472C104.684 48.5569 98.5208 61.5778 96.4291 68.4799C95.0571 73.0069 91 88.9161 91 88.9161L99.9484 91C99.9484 91 104.087 76.1733 106.116 71.4665C107.814 67.5266 114 56.2906 114 56.2906C114 56.2906 113.111 41.9606 110.19 44.2472Z" fill="url(#paint18_linear_1_310)"/>
<path fill-rule="evenodd" clip-rule="evenodd" d="M99.9872 91.8679C99.9653 91.9721 99.9213 92.0683 99.857 92.1597C99.8216 92.2061 99.781 92.2527 99.7369 92.2944C99.5103 92.5091 99.1501 92.679 98.69 92.7961C98.5005 92.8474 98.2942 92.8875 98.0726 92.9179C97.9796 92.9307 97.8865 92.942 97.7884 92.9532C97.0477 93.0317 96.1663 93.0125 95.226 92.8875C95.0349 92.8635 94.8403 92.8313 94.6441 92.7961C94.6424 92.7961 94.6424 92.7961 94.6407 92.7961C93.9084 92.663 93.2234 92.4835 92.6161 92.2702C92.6161 92.2702 92.6161 92.2702 92.6161 92.2686C92.4758 92.2189 92.3405 92.1676 92.2086 92.1148C91.9278 92.0025 91.669 91.8823 91.4338 91.7604V91.7589C90.9485 91.5024 90.5644 91.2251 90.3176 90.9429C90.1247 90.7217 90.0115 90.5005 90.0012 90.2841C90.0012 90.2825 90.0012 90.2825 90.0012 90.2825C89.9979 90.2263 90.0012 90.1687 90.013 90.1125C90.0824 89.7631 90.4241 89.4889 90.9569 89.2981C91.0956 89.2468 91.2478 89.2052 91.4102 89.1682C91.8009 89.0786 92.2576 89.024 92.7616 89.0063C92.8648 89.0032 92.9697 89 93.0779 89C93.2623 89 93.4534 89.0047 93.6496 89.0145C94.1892 89.0401 94.7625 89.1042 95.3528 89.2099C95.9431 89.3142 96.5012 89.452 97.0138 89.6108C97.0239 89.6155 97.0307 89.6171 97.0391 89.6188C97.183 89.6637 97.325 89.7118 97.4621 89.7615C97.6075 89.8144 97.7495 89.8673 97.8848 89.925C98.6274 90.2263 99.216 90.5791 99.5814 90.9397C99.8976 91.2508 100.046 91.5682 99.9872 91.8679Z" fill="#A07855"/>
<path fill-rule="evenodd" clip-rule="evenodd" d="M97.6555 96.7463C97.3714 96.7297 96.9645 95.9696 96.7153 95.0995C96.6316 94.8472 96.5481 94.7019 96.4613 94.6385C96.1821 96.7346 95.63 99.7362 95.0859 99.6576C94.5923 99.5858 94.6758 97.7068 94.8635 95.8861L94.78 95.8911C94.3383 98.0909 93.5732 101.037 92.9644 100.907C92.3019 100.765 92.66 98.126 93.0448 95.9796L92.9565 95.9847C92.955 95.9964 92.9518 96.0097 92.9502 96.0231C92.5622 98.0608 91.7877 101.134 91.1395 100.995C91.0874 100.985 91.0431 100.957 91.0038 100.915C90.5511 100.428 90.8949 97.969 91.2308 96.0732C91.2262 95.3767 91.0527 95.4402 90.9107 95.6073C90.8508 95.7041 90.7909 95.7959 90.7308 95.8861C90.7308 95.8878 90.7308 95.8878 90.7308 95.8878C90.1315 96.7897 89.5258 97.3911 89.2025 97.2859C88.4659 97.0503 89.9297 94.4815 90.5495 92.3068C90.712 91.7355 90.9438 91.2762 91.2056 90.7884V90.7868C91.4674 90.299 91.7577 89.7846 92.0369 89.0998C92.1773 88.7557 97.4046 89.3904 97.5339 89.6594C97.6711 89.9432 97.8147 90.2856 97.8935 90.8386C97.9283 91.0724 97.955 91.4349 97.9724 91.8675C98.0497 93.6914 97.9708 96.7647 97.6555 96.7463Z" fill="#FBB37E"/>
<path fill-rule="evenodd" clip-rule="evenodd" d="M140 112H138V110H140V112Z" fill="white"/>
<path fill-rule="evenodd" clip-rule="evenodd" d="M159 111H158V109H159V111Z" fill="white"/>
<path fill-rule="evenodd" clip-rule="evenodd" d="M145.648 21C145.648 21 144.147 35.0351 142.706 37.0001C141.266 38.9652 124 40.9599 124 40.9599L132.395 57C132.395 57 149.083 48.4467 152.711 44.159C156.338 39.8713 154.568 22.3319 154.568 22.3319L145.648 21Z" fill="#DDB592"/>
<path d="M145.648 21C145.648 21 144.147 35.0351 142.706 37.0001C141.266 38.9652 124 40.9599 124 40.9599L132.395 57C132.395 57 149.083 48.4467 152.711 44.159C156.338 39.8713 154.568 22.3319 154.568 22.3319L145.648 21Z" fill="url(#paint19_linear_1_310)"/>
<path fill-rule="evenodd" clip-rule="evenodd" d="M146.002 21.7075C146.793 22.124 147.988 22.5123 149.345 22.7588C150.112 22.8982 150.843 22.9741 151.487 22.9949C152.925 23.0391 153.938 22.7964 153.997 22.3164C154.058 21.8324 153.137 21.2374 151.737 20.7671C151.122 20.5608 150.415 20.3793 149.657 20.242C148.264 19.9891 146.995 19.9395 146.137 20.0694C145.464 20.1691 145.041 20.3788 145.003 20.6848C144.964 21.0004 145.344 21.3638 146.002 21.7075Z" fill="#A07855"/>
<path fill-rule="evenodd" clip-rule="evenodd" d="M154 13.3231C154 13.3231 153.929 17.2445 151.876 18.4838C149.822 19.7232 147.437 18.4366 147.157 17.6893C146.877 16.9421 147.056 11 147.056 11L154 13.3231Z" fill="#FBB37E"/>
<path fill-rule="evenodd" clip-rule="evenodd" d="M146.097 11.3878C145.655 12.8114 146.829 11.3022 147.542 11.3307C148.256 11.3592 148.841 11.2849 148.948 9.82653C149.055 8.368 149.098 6.04325 148.025 6.00032C147.032 5.96059 146.629 9.67418 146.097 11.3878Z" fill="#FBB37E"/>
<path fill-rule="evenodd" clip-rule="evenodd" d="M153.988 12.5318C154.096 11.1509 153.463 11.0345 152.673 11.0048C151.883 10.9751 151.236 11.0432 151.128 12.4241C151.021 13.8049 150.681 15.9546 151.869 15.9994C152.969 16.0408 153.88 13.9126 153.988 12.5318Z" fill="#FBB37E"/>
<path fill-rule="evenodd" clip-rule="evenodd" d="M151.983 12.7068C152.113 11.1591 151.463 11.0325 150.652 11.0041C149.84 10.9756 149.173 11.0559 149.043 12.6037C148.914 14.1515 149.012 15.9564 150.233 15.9994C151.364 16.039 151.854 14.2546 151.983 12.7068Z" fill="#FBB37E"/>
<path fill-rule="evenodd" clip-rule="evenodd" d="M149.989 12.0481C150.075 10.1909 149.642 10.0391 149.101 10.0049C148.56 9.97069 148.115 10.0671 148.029 11.9245C147.942 13.7818 148.008 15.9479 148.822 15.9992C149.576 16.0467 149.903 13.9056 149.989 12.0481Z" fill="#FBB37E"/>
<path fill-rule="evenodd" clip-rule="evenodd" d="M146 21.8977C146.776 22.2543 147.946 22.5868 149.276 22.7979C150.028 22.9173 150.744 22.9822 151.375 23L151.62 21.0925L152 18.1303L146.368 18L146.133 20.4951L146 21.8977Z" fill="#FBB37E"/>
<path fill-rule="evenodd" clip-rule="evenodd" d="M146.488 11C146.488 11 145.224 12.5051 145.038 13.2631C144.851 14.021 145.365 17.3782 146.399 17.9573C147.433 18.5364 148 13.0304 148 13.0304L146.488 11Z" fill="#FBB37E"/>
<defs>
<linearGradient id="paint0_linear_1_310" x1="198" y1="3815" x2="198" y2="15" gradientUnits="userSpaceOnUse">
<stop stop-color="#A07855"/>
<stop offset="1" stop-color="#DDB592"/>
</linearGradient>
<linearGradient id="paint1_linear_1_310" x1="167" y1="3915" x2="167" y2="15" gradientUnits="userSpaceOnUse">
<stop stop-color="#A07855"/>
<stop offset="1" stop-color="#DDB592"/>
</linearGradient>
<linearGradient id="paint2_linear_1_310" x1="181" y1="7285" x2="181" y2="85" gradientUnits="userSpaceOnUse">
<stop stop-color="#A07855"/>
<stop offset="1" stop-color="#DDB592"/>
</linearGradient>
<linearGradient id="paint3_linear_1_310" x1="432.764" y1="41" x2="-427.52" y2="5321.45" gradientUnits="userSpaceOnUse">
<stop stop-color="#FFDE03"/>
<stop offset="1" stop-color="#FFF890"/>
</linearGradient>
<linearGradient id="paint4_linear_1_310" x1="18" y1="3744" x2="18" y2="44" gradientUnits="userSpaceOnUse">
<stop stop-color="#A07855"/>
<stop offset="1" stop-color="#DDB592"/>
</linearGradient>
<linearGradient id="paint5_linear_1_310" x1="58" y1="3915" x2="58" y2="15" gradientUnits="userSpaceOnUse">
<stop stop-color="#A07855"/>
<stop offset="1" stop-color="#DDB592"/>
</linearGradient>
<linearGradient id="paint6_linear_1_310" x1="27" y1="7285" x2="27" y2="85" gradientUnits="userSpaceOnUse">
<stop stop-color="#A07855"/>
<stop offset="1" stop-color="#DDB592"/>
</linearGradient>
<linearGradient id="paint7_linear_1_310" x1="292.764" y1="41" x2="-567.52" y2="5321.45" gradientUnits="userSpaceOnUse">
<stop stop-color="#FFDE03"/>
<stop offset="1" stop-color="#FFF890"/>
</linearGradient>
<linearGradient id="paint8_linear_1_310" x1="27" y1="5644" x2="27" y2="44" gradientUnits="userSpaceOnUse">
<stop stop-color="#A07855"/>
<stop offset="1" stop-color="#DDB592"/>
</linearGradient>
<linearGradient id="paint9_linear_1_310" x1="315" y1="6689" x2="315" y2="89" gradientUnits="userSpaceOnUse">
<stop stop-color="#A07855"/>
<stop offset="1" stop-color="#DDB592"/>
</linearGradient>
<linearGradient id="paint10_linear_1_310" x1="329" y1="6985" x2="329" y2="85" gradientUnits="userSpaceOnUse">
<stop stop-color="#A07855"/>
<stop offset="1" stop-color="#DDB592"/>
</linearGradient>
<linearGradient id="paint11_linear_1_310" x1="626.776" y1="44" x2="72.2286" y2="4797.62" gradientUnits="userSpaceOnUse">
<stop stop-color="#FFDE03"/>
<stop offset="1" stop-color="#FFF890"/>
</linearGradient>
<linearGradient id="paint12_linear_1_310" x1="253" y1="4578" x2="253" y2="78" gradientUnits="userSpaceOnUse">
<stop stop-color="#A07855"/>
<stop offset="1" stop-color="#DDB592"/>
</linearGradient>
<linearGradient id="paint13_linear_1_310" x1="253" y1="4347" x2="253" y2="47" gradientUnits="userSpaceOnUse">
<stop stop-color="#FFDE03"/>
<stop offset="1" stop-color="#FFF890"/>
</linearGradient>
<linearGradient id="paint14_linear_1_310" x1="501.196" y1="19" x2="137.773" y2="3595.81" gradientUnits="userSpaceOnUse">
<stop stop-color="#FFDE03"/>
<stop offset="1" stop-color="#FFF890"/>
</linearGradient>
<linearGradient id="paint15_linear_1_310" x1="269" y1="4044" x2="269" y2="44" gradientUnits="userSpaceOnUse">
<stop stop-color="#FFDE03"/>
<stop offset="1" stop-color="#FFF890"/>
</linearGradient>
<linearGradient id="paint16_linear_1_310" x1="95" y1="7285" x2="95" y2="85" gradientUnits="userSpaceOnUse">
<stop stop-color="#A07855"/>
<stop offset="1" stop-color="#DDB592"/>
</linearGradient>
<linearGradient id="paint17_linear_1_310" x1="105" y1="5341" x2="105" y2="41" gradientUnits="userSpaceOnUse">
<stop stop-color="#A07855"/>
<stop offset="1" stop-color="#DDB592"/>
</linearGradient>
<linearGradient id="paint18_linear_1_310" x1="91" y1="4743.29" x2="258.434" y2="48.5399" gradientUnits="userSpaceOnUse">
<stop stop-color="#A07855"/>
<stop offset="1" stop-color="#DDB592"/>
</linearGradient>
<linearGradient id="paint19_linear_1_310" x1="2391.18" y1="21.0001" x2="-185.833" y2="2090.36" gradientUnits="userSpaceOnUse">
<stop stop-color="#A07855"/>
<stop offset="1" stop-color="#DDB592"/>
</linearGradient>
</defs>
</svg>
