<svg width="393" height="236" viewBox="0 0 393 236" fill="none" xmlns="http://www.w3.org/2000/svg">
<path fill-rule="evenodd" clip-rule="evenodd" d="M275.526 207.765C305.146 209.844 342.174 198.159 358.509 172.539C365.272 161.93 369.764 148.315 365.056 136.578C361.49 127.69 346.404 117.643 343.148 108.629C339.846 99.4881 340.314 89.1916 342.009 79.5821C346.88 51.9657 319.796 8.85412 262.602 4.2539C219.234 0.765791 199.617 34.3011 162.708 38.4259C125.461 43.497 81.7863 15.7831 55.1441 38.4259C22.0567 67.5604 37.5838 96.2708 41.6108 109.704C46.784 126.96 21.4981 146.656 26.7126 172.061C38.3724 228.868 123.115 190.56 147.952 188.161C173.177 185.725 198.21 192.868 222.93 198.602C247.65 204.336 273.832 208.65 297.995 200.778L275.526 207.765Z" fill="#FFF1E4"/>
<path fill-rule="evenodd" clip-rule="evenodd" d="M116.012 99.5301C115.899 97.8216 116.601 95.8154 117.06 96.0136C117.518 96.2122 117.091 97.8096 117.411 98.2892C117.832 98.9202 118.195 99.5113 117.883 101L116.012 99.5301Z" fill="#FCB47E"/>
<path fill-rule="evenodd" clip-rule="evenodd" d="M98.2936 225L97 213H104.664L105 225H98.2936Z" fill="#FCB47E"/>
<path fill-rule="evenodd" clip-rule="evenodd" d="M105 220.727C101.912 221.637 97.3241 219.981 97.3241 219.981L97 217L104.915 217.75L105 220.727Z" fill="#FBB37E"/>
<path fill-rule="evenodd" clip-rule="evenodd" d="M59 225L59.676 213H67L65.4091 225H59Z" fill="#FCB47E"/>
<path fill-rule="evenodd" clip-rule="evenodd" d="M67 215.985L66.4454 219.973C62.7017 220.225 60.0419 218.642 59 217.882L59.2287 214L67 215.985Z" fill="#FBB37E"/>
<path fill-rule="evenodd" clip-rule="evenodd" d="M118 217.581C118 217.581 112.042 145.865 95.9553 111L81 111.719C81 111.719 82.2765 162.213 93.4964 217.581C93.4964 217.581 107.532 220.773 118 217.581Z" fill="#A07855"/>
<path d="M118 217.581C118 217.581 112.042 145.865 95.9553 111L81 111.719C81 111.719 82.2765 162.213 93.4964 217.581C93.4964 217.581 107.532 220.773 118 217.581Z" fill="url(#paint0_linear_373_14886)"/>
<path fill-rule="evenodd" clip-rule="evenodd" d="M76.9153 217.529C76.9153 217.529 63.5973 219.81 56 214.334C56 214.334 60.0453 136.515 72.434 111H87C87 111 86.524 152.946 76.9153 217.529Z" fill="#A07855"/>
<path d="M76.9153 217.529C76.9153 217.529 63.5973 219.81 56 214.334C56 214.334 60.0453 136.515 72.434 111H87C87 111 86.524 152.946 76.9153 217.529Z" fill="url(#paint1_linear_373_14886)"/>
<path fill-rule="evenodd" clip-rule="evenodd" d="M71.4427 73.6958C71.8192 72.4936 72.5271 70.9596 72.5271 70.9596C72.2795 72.1104 72.275 73.3834 72.3017 74.0714C75.6212 75.432 82.5573 77.2035 93.3263 74.8506C93.1888 73.8619 93.1267 72.9247 93.1267 72.9247C93.3172 73.5536 93.5916 74.1861 93.8574 74.7318C94.2424 74.6447 94.6275 74.554 95.0211 74.4551C94.6982 73.2331 94.5608 71.11 94.5608 71.11C94.9372 72.3871 95.6806 73.6881 95.9949 74.2059C96.6503 74.0281 97.3183 73.8385 98 73.6326C98 73.6326 95.8534 70.7064 94.4461 63.0906C93.2863 56.8315 89.692 53.8737 84.2304 54.0041C72.9966 54.2727 70 72.8972 70 72.8972C70 72.8972 70.478 73.2371 71.4427 73.6958Z" fill="#6B4C32"/>
<path fill-rule="evenodd" clip-rule="evenodd" d="M112 101C112 101 107.377 78.2895 88.9928 77.115C60.6972 75.308 52 95.3909 52 95.3909L112 101Z" fill="white"/>
<path fill-rule="evenodd" clip-rule="evenodd" d="M82.351 59.0363C85.5368 57.4359 91.1302 57.3675 92.4089 61.1563C93.5892 64.6525 93.4008 75.1972 88.0762 74.9972C82.5103 74.7883 80.7542 71.0693 80.2577 68.7967C80.0794 67.9802 79.1653 60.6362 82.351 59.0363Z" fill="#FCB47E"/>
<path fill-rule="evenodd" clip-rule="evenodd" d="M81 68.8695C81 68.8695 78.5129 69.6594 78.0487 67.352C77.6301 65.2702 80.0251 64.459 80.7957 65.3707L81 68.8695Z" fill="#FCB47E"/>
<path fill-rule="evenodd" clip-rule="evenodd" d="M113.267 123C116.885 116.711 119.711 102.019 119.711 102.019C120.13 101.441 121.886 98.94 121.997 97.0352C122.044 96.1883 121.562 95.685 120.916 95.9624C120.684 95.2742 120.224 95.1489 119.604 95.5516C119.257 94.9497 118.833 94.9735 118.41 95.2671C117.486 93.8917 115.644 98.2485 115.654 98.7937C115.66 99.1592 115.785 100.5 115.847 100.895C115.93 101.417 105 117.959 105 117.959L113.267 123Z" fill="#FCB47E"/>
<path fill-rule="evenodd" clip-rule="evenodd" d="M68.6463 98.5922L64 127.382C76.1254 131.328 89.8096 127.782 101 119.739L96.3654 91.3457L87.7419 77.1182C87.7419 77.1182 83.5368 82.3165 78.9022 77L66.8313 82.4854L68.6463 98.5922Z" fill="white"/>
<path fill-rule="evenodd" clip-rule="evenodd" d="M115 105.951L112.238 99.5437C112.238 99.5437 105.327 86.3993 99.6399 83L96 106L115 105.951Z" fill="white"/>
<path fill-rule="evenodd" clip-rule="evenodd" d="M83.5991 156L83 155.957C83.9704 148.059 84.7775 140.335 85.3996 133L86 133.029C85.3779 140.369 84.5701 148.098 83.5991 156Z" fill="#47393D"/>
<path fill-rule="evenodd" clip-rule="evenodd" d="M78 65.5815C78 65.5815 78.891 65.0757 79.7779 66C79.7779 66 80.0137 64.152 80.6498 62.9865L81.05 65.0487C81.6957 65.1485 83.7513 65.4786 86.0041 65.5223C86.6392 65.5342 88.4244 65.5223 88.4244 65.5223L88.8321 62.0752L89.5933 65.4536C90.118 65.4126 90.5257 65.358 90.9439 65.3034L91.2418 63.2771L91.8174 65.1849C92.3793 65.0939 92.7689 65.0076 92.9592 64.9666C93.0753 63.5188 93.122 59.6117 90.4896 57.3489C87.4666 54.7533 81.0734 56.1787 79.5923 59.2884C78.1113 62.3986 78 65.5815 78 65.5815Z" fill="#6B4C32"/>
<path fill-rule="evenodd" clip-rule="evenodd" d="M83.5489 80C85.7145 80 87 78.0594 87 78.0594L86.4576 71.6324L80.5027 68L79 77.9597C79 77.9597 80.8639 80 83.5489 80Z" fill="#FCB47E"/>
<path fill-rule="evenodd" clip-rule="evenodd" d="M95.7902 229.933L118.62 230C119.415 230.002 120.054 229.472 119.996 228.845C119.996 228.837 119.995 228.83 119.994 228.822C119.979 228.684 119.959 228.542 119.933 228.4C119.856 227.919 119.694 227.438 119.41 227.137C118.333 225.998 116.234 225.474 112.495 224.289C110.148 223.543 108.156 222.556 107.282 222.094C106.997 221.943 106.628 221.979 106.379 222.166C101.847 225.645 99.0777 224.893 98.2553 223.45C97.6268 222.35 96.7279 222.577 96.478 222.898C95.7132 223.902 95.2818 226.849 95.1063 228.327C95.0842 228.486 95.068 228.632 95.0567 228.749C95.0287 229.025 95.0125 229.192 95.0125 229.192C94.9258 229.576 95.2996 229.932 95.7902 229.933Z" fill="#563F2C"/>
<path fill-rule="evenodd" clip-rule="evenodd" d="M57.6958 229.933L77.7864 230C78.4859 230.002 79.0475 229.472 78.9968 228.845C78.9963 228.837 78.9959 228.83 78.9954 228.822C78.9816 228.684 78.9636 228.542 78.9414 228.4C78.8736 227.919 78.7314 227.438 78.4816 227.137C77.5337 225.998 75.6858 225.474 72.3957 224.289C70.3307 223.543 68.5781 222.556 67.8084 222.094C67.5581 221.943 67.2325 221.979 67.0136 222.166C63.0253 225.645 60.5887 224.893 59.865 223.45C59.3115 222.35 58.5209 222.577 58.301 222.898C57.6275 223.902 57.2484 226.849 57.0934 228.327C57.0744 228.486 57.0597 228.632 57.0498 228.749C57.0256 229.025 57.0109 229.192 57.0109 229.192C56.9351 229.576 57.2635 229.932 57.6958 229.933Z" fill="#563F2C"/>
<path fill-rule="evenodd" clip-rule="evenodd" d="M69.3748 158.967L140.718 147.628C142.187 147.394 143.199 145.993 142.967 144.515L135.717 98.2965C135.486 96.8185 134.094 95.7996 132.625 96.0334L61.2818 107.372C59.813 107.606 58.8013 109.006 59.0331 110.485L66.2826 156.703C66.5149 158.182 67.9061 159.2 69.3748 158.967Z" fill="#FFDF01"/>
<path d="M69.3748 158.967L140.718 147.628C142.187 147.394 143.199 145.993 142.967 144.515L135.717 98.2965C135.486 96.8185 134.094 95.7996 132.625 96.0334L61.2818 107.372C59.813 107.606 58.8013 109.006 59.0331 110.485L66.2826 156.703C66.5149 158.182 67.9061 159.2 69.3748 158.967Z" fill="url(#paint2_linear_373_14886)"/>
<path fill-rule="evenodd" clip-rule="evenodd" d="M82.4537 139.291L71.0935 140.992C70.7414 141.045 70.4081 140.815 70.3528 140.481L70.0079 138.411C69.9526 138.077 70.1946 137.761 70.5467 137.708L81.9068 136.008C82.2585 135.955 82.5918 136.185 82.6475 136.518L82.992 138.589C83.0477 138.923 82.8053 139.239 82.4537 139.291Z" fill="white"/>
<path fill-rule="evenodd" clip-rule="evenodd" d="M99.4117 136.291L87.1773 137.992C86.7986 138.045 86.4396 137.815 86.3796 137.482L86.0086 135.411C85.9486 135.077 86.2097 134.761 86.5888 134.709L98.8227 133.008C99.2014 132.955 99.5604 133.185 99.6204 133.519L99.9914 135.589C100.051 135.923 99.7903 136.239 99.4117 136.291Z" fill="white"/>
<path fill-rule="evenodd" clip-rule="evenodd" d="M118.285 133.95L103.43 135.991C102.97 136.054 102.534 135.778 102.461 135.378L102.01 132.893C101.938 132.493 102.255 132.113 102.714 132.051L117.57 130.009C118.03 129.946 118.466 130.222 118.538 130.622L118.99 133.107C119.062 133.507 118.745 133.887 118.285 133.95Z" fill="white"/>
<path fill-rule="evenodd" clip-rule="evenodd" d="M134.411 131.608L122.178 133.989C121.799 134.063 121.44 133.741 121.38 133.275L121.008 130.376C120.949 129.908 121.21 129.466 121.589 129.392L133.822 127.011C134.202 126.937 134.561 127.259 134.62 127.726L134.992 130.625C135.051 131.092 134.79 131.534 134.411 131.608Z" fill="white"/>
<path fill-rule="evenodd" clip-rule="evenodd" d="M136.249 138.972L119.369 140.992C118.885 141.049 118.427 140.797 118.351 140.431L118.011 138.8C117.934 138.433 118.268 138.086 118.751 138.028L135.631 136.008C136.115 135.951 136.573 136.203 136.649 136.569L136.989 138.2C137.066 138.567 136.732 138.914 136.249 138.972Z" fill="white"/>
<path fill-rule="evenodd" clip-rule="evenodd" d="M81.3665 119.522L71.9983 120.977C70.9444 121.14 69.9515 120.43 69.7852 119.394L69.0238 114.653C68.8575 113.617 69.5796 112.641 70.6335 112.478L80.0012 111.023C81.0551 110.86 82.048 111.57 82.2148 112.606L82.9762 117.347C83.1425 118.383 82.4204 119.359 81.3665 119.522ZM82.4629 117.427L81.7016 112.686C81.5796 111.928 80.8533 111.408 80.0825 111.528L70.7143 112.982C69.943 113.102 69.4151 113.816 69.5366 114.574L70.2979 119.315C70.4199 120.072 71.1462 120.592 71.9175 120.472L81.2852 119.018C82.0565 118.898 82.5849 118.184 82.4629 117.427Z" fill="white"/>
<path fill-rule="evenodd" clip-rule="evenodd" d="M121.41 96.0252C121.893 96.1269 122.136 96.5 121.922 96.8162C121.538 97.385 120.904 97.9791 120.459 97.999C119.674 98.034 120.07 97.1038 120.374 96.4091C120.507 96.1043 120.97 95.9322 121.41 96.0252Z" fill="#FCB47E"/>
<path fill-rule="evenodd" clip-rule="evenodd" d="M120.825 96.0947C120.977 96.229 121.039 96.4806 120.975 96.7042C120.812 97.2625 120.464 98.0672 120.114 97.9955C119.891 97.9499 120.039 97.0769 120.185 96.3676C120.255 96.0234 120.599 95.8948 120.825 96.0947Z" fill="#FCB47E"/>
<path fill-rule="evenodd" clip-rule="evenodd" d="M119.695 96.0231C119.9 96.0745 120.034 96.3131 119.993 96.5598C119.904 97.0889 119.679 97.786 119.22 97.9829C118.828 98.1514 119.052 97.0349 119.192 96.3484C119.241 96.1081 119.44 95.9593 119.642 96.0099L119.695 96.0231Z" fill="#FCB47E"/>
<path fill-rule="evenodd" clip-rule="evenodd" d="M118.621 95.0051C119.002 95.0807 119.055 95.5138 118.957 95.7995C118.777 96.3214 118.464 96.9131 118.176 96.994C117.867 97.0807 118.038 96.2075 118.139 95.539C118.184 95.238 118.387 94.9585 118.621 95.0051Z" fill="#FCB47E"/>
<path fill-rule="evenodd" clip-rule="evenodd" d="M63.3716 124.089C63.3716 124.089 54.5679 111.514 68.1942 102.552L75.9989 81.1438L76 81.0003C66.8595 80.9552 57.0356 86.4095 51.7161 94.0533C42.8205 106.835 43.7148 122.119 58.6084 130L63.3716 124.089Z" fill="white"/>
<path fill-rule="evenodd" clip-rule="evenodd" d="M62.3753 123C62.8432 123.426 64.3044 124.853 64.8954 124.967C65.4436 125.074 68.4701 125.217 68.3855 125.944C68.2963 126.706 66.2318 126.114 66.2513 126.728C66.2636 127.106 70.294 128.342 69.8884 129.145C69.6227 129.671 67.2713 128.545 67.224 128.875C67.1794 129.182 70.3308 129.883 69.9714 130.686C69.5943 131.526 66.5611 129.408 66.4068 129.807C66.3305 130.004 70.0127 131.508 69.7035 132.154C69.2902 133.019 66.4625 130.89 66.2441 131.265C66.1371 131.45 67.2546 131.999 67.8824 132.422C68.2306 132.656 68.1209 133.014 67.8457 133C65.0007 132.855 61.431 128.922 60.9748 128.737C60.2974 128.461 59.639 128.175 59 127.878L62.3753 123Z" fill="#FCB47E"/>
<path fill-rule="evenodd" clip-rule="evenodd" d="M158.114 195L168 191.522L167.886 191L158 194.478L158.114 195Z" fill="white"/>
<path fill-rule="evenodd" clip-rule="evenodd" d="M161.163 197L174 193.359L173.837 193L161 196.641L161.163 197Z" fill="white"/>
<path fill-rule="evenodd" clip-rule="evenodd" d="M228 228H213.261C208.463 228 204.52 224.282 204.322 219.573L196.008 75.1505C195.798 70.1577 199.86 66 204.948 66H221.944L228 228Z" fill="#A07855"/>
<path d="M228 228H213.261C208.463 228 204.52 224.282 204.322 219.573L196.008 75.1505C195.798 70.1577 199.86 66 204.948 66H221.944L228 228Z" fill="url(#paint3_linear_373_14886)"/>
<path fill-rule="evenodd" clip-rule="evenodd" d="M299.992 75.1505L295.614 219.573C295.415 224.282 291.449 228 286.623 228H221.089C216.263 228 210.58 224.282 210.38 219.573L206.008 75.1505C205.797 70.1577 209.882 66 214.998 66H291.002C296.118 66 300.203 70.1577 299.992 75.1505Z" fill="#DDB592"/>
<path d="M299.992 75.1505L295.614 219.573C295.415 224.282 291.449 228 286.623 228H221.089C216.263 228 210.58 224.282 210.38 219.573L206.008 75.1505C205.797 70.1577 209.882 66 214.998 66H291.002C296.118 66 300.203 70.1577 299.992 75.1505Z" fill="url(#paint4_linear_373_14886)"/>
<path fill-rule="evenodd" clip-rule="evenodd" d="M224.275 75H220.756C220.269 75 219.832 75.1665 219.516 75.4407C219.195 75.7145 219 76.0865 219 76.5026C219 77.3297 219.786 78 220.756 78H224.275H281.725H285.243C285.731 78 286.168 77.8335 286.483 77.5597C286.805 77.2903 287 76.9184 287 76.5026C287 75.6755 286.213 75 285.243 75H281.725H224.275Z" fill="#A07855"/>
<path fill-rule="evenodd" clip-rule="evenodd" d="M284.284 133H222.715C221.54 133 220.575 132.08 220.53 130.916L219.002 91.2489C218.955 90.0208 219.947 89 221.188 89H285.812C287.054 89 288.046 90.0208 287.998 91.2489L286.47 130.916C286.425 132.08 285.46 133 284.284 133Z" fill="white"/>
<path fill-rule="evenodd" clip-rule="evenodd" d="M241.084 159H231.917C230.306 159 229 157.955 229 156.667V153.333C229 152.045 230.306 151 231.917 151H241.084C242.694 151 244 152.045 244 153.333V156.667C244 157.955 242.694 159 241.084 159Z" fill="#F9D9BD"/>
<path fill-rule="evenodd" clip-rule="evenodd" d="M241.084 178H231.917C230.306 178 229 176.433 229 174.5V169.5C229 167.567 230.306 166 231.917 166H241.084C242.694 166 244 167.567 244 169.5V174.5C244 176.433 242.694 178 241.084 178Z" fill="#F9D9BD"/>
<path fill-rule="evenodd" clip-rule="evenodd" d="M241.084 194H231.917C230.306 194 229 192.564 229 190.792V186.208C229 184.437 230.306 183 231.917 183H241.084C242.694 183 244 184.437 244 186.208V190.792C244 192.564 242.694 194 241.084 194Z" fill="#F9D9BD"/>
<path fill-rule="evenodd" clip-rule="evenodd" d="M241.084 212H231.917C230.306 212 229 210.303 229 208.209V202.791C229 200.697 230.306 199 231.917 199H241.084C242.694 199 244 200.697 244 202.791V208.209C244 210.303 242.694 212 241.084 212Z" fill="#F9D9BD"/>
<path fill-rule="evenodd" clip-rule="evenodd" d="M260.889 159H251.111C249.393 159 248 157.955 248 156.667V153.333C248 152.045 249.393 151 251.111 151H260.889C262.607 151 264 152.045 264 153.333V156.667C264 157.955 262.607 159 260.889 159Z" fill="#F9D9BD"/>
<path fill-rule="evenodd" clip-rule="evenodd" d="M260.889 178H251.111C249.393 178 248 176.433 248 174.5V169.5C248 167.567 249.393 166 251.111 166H260.889C262.607 166 264 167.567 264 169.5V174.5C264 176.433 262.607 178 260.889 178Z" fill="#F9D9BD"/>
<path fill-rule="evenodd" clip-rule="evenodd" d="M260.889 194H251.111C249.393 194 248 192.564 248 190.792V186.208C248 184.437 249.393 183 251.111 183H260.889C262.607 183 264 184.437 264 186.208V190.792C264 192.564 262.607 194 260.889 194Z" fill="#F9D9BD"/>
<path fill-rule="evenodd" clip-rule="evenodd" d="M260.889 212H251.111C249.393 212 248 210.303 248 208.209V202.791C248 200.697 249.393 199 251.111 199H260.889C262.607 199 264 200.697 264 202.791V208.209C264 210.303 262.607 212 260.889 212Z" fill="#F9D9BD"/>
<path fill-rule="evenodd" clip-rule="evenodd" d="M280.5 159H269.5C267.567 159 266 157.955 266 156.667V153.333C266 152.045 267.567 151 269.5 151H280.5C282.433 151 284 152.045 284 153.333V156.667C284 157.955 282.433 159 280.5 159Z" fill="#F9D9BD"/>
<path fill-rule="evenodd" clip-rule="evenodd" d="M280.5 178H269.5C267.567 178 266 176.433 266 174.5V169.5C266 167.567 267.567 166 269.5 166H280.5C282.433 166 284 167.567 284 169.5V174.5C284 176.433 282.433 178 280.5 178Z" fill="#F9D9BD"/>
<path fill-rule="evenodd" clip-rule="evenodd" d="M280.5 194H269.5C267.567 194 266 192.564 266 190.792V186.208C266 184.437 267.567 183 269.5 183H280.5C282.433 183 284 184.437 284 186.208V190.792C284 192.564 282.433 194 280.5 194Z" fill="#F9D9BD"/>
<path fill-rule="evenodd" clip-rule="evenodd" d="M280.5 212H269.5C267.567 212 266 210.303 266 208.209V202.791C266 200.697 267.567 199 269.5 199H280.5C282.433 199 284 200.697 284 202.791V208.209C284 210.303 282.433 212 280.5 212Z" fill="#F9D9BD"/>
<path fill-rule="evenodd" clip-rule="evenodd" d="M281 49.1248V78H225.185V49.1248C225.051 47.1341 224.078 45.353 222.609 44.0695C221.134 42.786 219.151 42 217 42H272.816C274.972 42 276.95 42.786 278.424 44.0695C279.9 45.353 280.866 47.1341 281 49.1248Z" fill="white"/>
<path fill-rule="evenodd" clip-rule="evenodd" d="M225 49H208C208.139 47.0442 209.148 45.2943 210.68 44.0332C212.211 42.7722 214.269 42 216.503 42C218.736 42 220.795 42.7722 222.326 44.0332C223.851 45.2943 224.861 47.0442 225 49Z" fill="#A07855"/>
<path fill-rule="evenodd" clip-rule="evenodd" d="M285.001 78H220.998C219.897 78 219 77.328 219 76.5023C219 76.1017 219.209 75.7244 219.588 75.4404C219.959 75.1567 220.461 75 220.998 75H224.491V75.3823H220.998C220.598 75.3823 220.226 75.4985 219.95 75.7095C219.666 75.9224 219.51 76.2034 219.51 76.5023C219.51 77.1174 220.178 77.6177 220.998 77.6177H285.001C285.401 77.6177 285.774 77.5015 286.05 77.2905C286.335 77.081 286.49 76.8016 286.49 76.5023C286.49 75.8846 285.822 75.3823 285.001 75.3823H281.509V75H285.001C286.103 75 287 75.6739 287 76.5023C287 76.9052 286.791 77.2813 286.411 77.5612C286.041 77.8433 285.539 78 285.001 78Z" fill="#AF9177"/>
<path fill-rule="evenodd" clip-rule="evenodd" d="M288 229.589C288 230.918 298.075 232 310.5 232C322.925 232 333 230.918 333 229.589C333 229.563 332.995 229.543 332.989 229.517V223H288.016V229.501C288.005 229.532 288 229.558 288 229.589Z" fill="#FFE630"/>
<path fill-rule="evenodd" clip-rule="evenodd" d="M288 223C288 224.105 298.073 225 310.5 225C322.927 225 333 224.105 333 223C333 221.895 322.927 221 310.5 221C298.073 221 288 221.895 288 223Z" fill="#E5C800"/>
<path fill-rule="evenodd" clip-rule="evenodd" d="M281 221.589C281 222.918 291.523 224 304.5 224C317.477 224 328 222.918 328 221.589C328 221.563 327.994 221.543 327.989 221.517V215H281.017V221.502C281.005 221.532 281 221.558 281 221.589Z" fill="#FFE630"/>
<path fill-rule="evenodd" clip-rule="evenodd" d="M281 215.5C281 216.881 291.521 218 304.5 218C317.479 218 328 216.881 328 215.5C328 214.119 317.479 213 304.5 213C291.521 213 281 214.119 281 215.5Z" fill="#E5C800"/>
<path fill-rule="evenodd" clip-rule="evenodd" d="M288 213.321C288 214.798 298.075 216 310.5 216C322.925 216 333 214.798 333 213.321C333 213.293 332.995 213.27 332.989 213.241V206H288.016V213.224C288.005 213.258 288 213.287 288 213.321Z" fill="#FFE630"/>
<path fill-rule="evenodd" clip-rule="evenodd" d="M288 205C288 206.657 298.073 208 310.5 208C322.927 208 333 206.657 333 205C333 203.343 322.927 202 310.5 202C298.073 202 288 203.343 288 205Z" fill="#E5C800"/>
<path fill-rule="evenodd" clip-rule="evenodd" d="M279 204.321C279 205.798 289.299 207 302 207C314.701 207 325 205.798 325 204.321C325 204.293 324.995 204.27 324.989 204.241V197H279.016V204.224C279.006 204.258 279 204.287 279 204.321Z" fill="#FFE630"/>
<path fill-rule="evenodd" clip-rule="evenodd" d="M279 197.5C279 198.328 289.298 199 302 199C314.703 199 325 198.328 325 197.5C325 196.672 314.703 196 302 196C289.298 196 279 196.672 279 197.5Z" fill="#E5C800"/>
<path fill-rule="evenodd" clip-rule="evenodd" d="M284 197.5C284 198.328 292.283 199 302.5 199C312.717 199 321 198.328 321 197.5C321 196.672 312.717 196 302.5 196C292.283 196 284 196.672 284 197.5Z" fill="#FFE630"/>
<path fill-rule="evenodd" clip-rule="evenodd" d="M154.698 97.7226C153.027 106.66 144.865 112.46 136.473 110.678C128.077 108.9 122.629 100.211 124.302 91.2774C125.976 82.3401 134.135 76.5402 142.527 78.3215C150.923 80.1034 156.371 88.7891 154.698 97.7226ZM141.937 81.4808C141.822 81.4562 141.711 81.4326 141.596 81.4116C138.439 80.8361 135.248 81.5586 132.575 83.4585C129.802 85.4276 127.92 88.4286 127.269 91.9055C125.924 99.0872 130.319 106.091 137.062 107.523C140.332 108.217 143.655 107.512 146.425 105.542C149.198 103.572 151.083 100.572 151.734 97.095C151.756 96.9765 151.775 96.8574 151.794 96.7383C152.928 89.6865 148.572 82.8856 141.937 81.4808Z" fill="#E5C800"/>
<path fill-rule="evenodd" clip-rule="evenodd" d="M151.82 97.0212C151.801 97.1287 151.782 97.2363 151.76 97.3434C151.107 100.485 149.218 103.196 146.44 104.975C143.664 106.755 140.333 107.392 137.057 106.765C130.299 105.471 125.895 99.1432 127.243 92.655C127.896 89.5134 129.781 86.8025 132.56 85.0231C135.239 83.3067 138.436 82.6544 141.6 83.1739C141.715 83.1928 141.827 83.2141 141.942 83.2364C148.592 84.5056 152.956 90.6502 151.82 97.0212Z" fill="#FFDF01"/>
<path d="M151.82 97.0212C151.801 97.1287 151.782 97.2363 151.76 97.3434C151.107 100.485 149.218 103.196 146.44 104.975C143.664 106.755 140.333 107.392 137.057 106.765C130.299 105.471 125.895 99.1432 127.243 92.655C127.896 89.5134 129.781 86.8025 132.56 85.0231C135.239 83.3067 138.436 82.6544 141.6 83.1739C141.715 83.1928 141.827 83.2141 141.942 83.2364C148.592 84.5056 152.956 90.6502 151.82 97.0212Z" fill="url(#paint5_linear_373_14886)"/>
<path fill-rule="evenodd" clip-rule="evenodd" d="M137.592 104.74L137.941 102.308C136.772 102.045 135.621 101.365 135 100.618L135.717 99.1042C136.362 99.83 137.347 100.502 138.48 100.733C139.916 101.025 141.028 100.236 141.226 98.8632C141.416 97.5389 140.745 96.5595 139.352 95.5324C137.428 94.1487 136.314 92.7815 136.615 90.6865C136.902 88.6884 138.313 87.4139 140.225 87.4325L140.575 85L141.828 85.2558L141.492 87.5914C142.699 87.887 143.472 88.441 144 88.9697L143.266 90.4561C142.883 90.0805 142.13 89.3818 140.836 89.118C139.279 88.8007 138.533 89.7892 138.395 90.7522C138.215 92.0044 138.873 92.7826 140.508 94.0078C142.445 95.4439 143.317 96.9102 143.009 99.0534C142.735 100.956 141.367 102.511 139.226 102.495L138.866 105L137.592 104.74Z" fill="#E5C800"/>
<path fill-rule="evenodd" clip-rule="evenodd" d="M265.564 113.206C263.657 120.162 256.038 124.366 248.547 122.595C241.056 120.824 236.529 113.749 238.436 106.793C240.343 99.8372 247.962 95.634 255.453 97.4049C262.945 99.1758 267.471 106.25 265.564 113.206Z" fill="#FFDF01"/>
<path d="M265.564 113.206C263.657 120.162 256.038 124.366 248.547 122.595C241.056 120.824 236.529 113.749 238.436 106.793C240.343 99.8372 247.962 95.634 255.453 97.4049C262.945 99.1758 267.471 106.25 265.564 113.206Z" fill="url(#paint6_linear_373_14886)"/>
<path fill-rule="evenodd" clip-rule="evenodd" d="M251.406 117L245 110.478L245.701 109.803L251.132 115.333L258.119 101L259 101.421L251.406 117Z" fill="white"/>
<defs>
<linearGradient id="paint0_linear_373_14886" x1="81" y1="10911" x2="81" y2="111" gradientUnits="userSpaceOnUse">
<stop stop-color="#A07855"/>
<stop offset="1" stop-color="#C79F7B"/>
</linearGradient>
<linearGradient id="paint1_linear_373_14886" x1="56" y1="10811" x2="56" y2="111" gradientUnits="userSpaceOnUse">
<stop stop-color="#A07855"/>
<stop offset="1" stop-color="#C79F7B"/>
</linearGradient>
<linearGradient id="paint2_linear_373_14886" x1="59" y1="6396" x2="59" y2="96" gradientUnits="userSpaceOnUse">
<stop stop-color="#FFDF01"/>
<stop offset="1" stop-color="#FFFD94"/>
</linearGradient>
<linearGradient id="paint3_linear_373_14886" x1="196" y1="16266" x2="196" y2="66" gradientUnits="userSpaceOnUse">
<stop stop-color="#A07855"/>
<stop offset="1" stop-color="#C79F7B"/>
</linearGradient>
<linearGradient id="paint4_linear_373_14886" x1="206" y1="16266" x2="206" y2="66" gradientUnits="userSpaceOnUse">
<stop stop-color="#DDB592"/>
<stop offset="1" stop-color="#C79F7B"/>
</linearGradient>
<linearGradient id="paint5_linear_373_14886" x1="127" y1="2483" x2="127" y2="83" gradientUnits="userSpaceOnUse">
<stop stop-color="#FFE006"/>
<stop offset="1" stop-color="#FFFB8C"/>
</linearGradient>
<linearGradient id="paint6_linear_373_14886" x1="238" y1="2697" x2="238" y2="97" gradientUnits="userSpaceOnUse">
<stop stop-color="#FFDF01"/>
<stop offset="1" stop-color="#FFFD94"/>
</linearGradient>
</defs>
</svg>
