<svg width="381" height="181" viewBox="0 0 381 181" fill="none" xmlns="http://www.w3.org/2000/svg">
<path fill-rule="evenodd" clip-rule="evenodd" d="M379.755 181L379.83 180.613L27.5115 180.652C27.5115 180.652 27.2289 180.05 27.1614 179.935C27.1389 179.895 27.1111 179.847 27.0795 179.793C27.0345 179.714 26.9818 179.621 26.921 179.515C26.901 179.477 26.8787 179.439 26.8549 179.397C26.7744 179.252 26.6831 179.089 26.5814 178.901C26.4572 178.673 26.3184 178.414 26.1652 178.125V178.123C25.5944 177.045 24.8374 175.55 23.9771 173.693C23.6943 173.084 23.4024 172.434 23.0998 171.747C22.9797 171.473 22.8594 171.195 22.7365 170.91V170.909C22.6175 170.633 22.4984 170.352 22.3798 170.065C22.3757 170.056 22.3718 170.046 22.3677 170.037C22.286 169.84 22.2026 169.64 22.1193 169.437C22.0323 169.229 21.9464 169.019 21.8591 168.806C21.4153 167.706 20.9607 166.539 20.5087 165.307C20.4968 165.275 20.4849 165.242 20.4731 165.21C20.4731 165.21 20.4731 165.21 20.4731 165.209C20.1772 164.404 19.8825 163.572 19.5905 162.714C19.4293 162.243 19.2707 161.765 19.1123 161.279C19.103 161.25 19.0924 161.221 19.0831 161.189C19.0132 160.973 18.9444 160.758 18.8744 160.539C18.8163 160.355 18.7581 160.172 18.7013 159.987C18.5825 159.606 18.4635 159.222 18.3458 158.833C18.1952 158.334 18.0459 157.827 17.8993 157.314C17.7011 156.618 17.5068 155.91 17.3179 155.19C17.2612 154.974 17.2043 154.757 17.1488 154.54C16.9824 153.889 16.8186 153.23 16.6599 152.563C16.6085 152.349 16.5582 152.134 16.5093 151.919C16.4776 151.786 16.4472 151.653 16.4169 151.52C16.1778 150.464 15.9506 149.388 15.739 148.293C15.5052 147.087 15.2899 145.857 15.0969 144.607C14.9185 143.453 14.7574 142.28 14.6186 141.092C14.4866 139.969 14.3741 138.834 14.283 137.685C14.0663 134.998 13.9673 132.238 14.0095 129.428C14.0835 124.535 14.5922 119.486 15.6862 114.375C15.7258 114.188 15.7668 114.003 15.8078 113.817C16.0785 112.6 16.3812 111.382 16.7208 110.162C16.9785 109.231 17.2572 108.299 17.5572 107.368C17.7752 106.693 18.0037 106.017 18.2441 105.34C18.7885 103.809 19.3923 102.279 20.061 100.749C20.2445 100.326 20.4335 99.9027 20.6291 99.4793C24.2572 91.5925 29.6057 83.7801 37.2176 76.3897C37.3601 76.2513 37.5028 76.1142 37.6443 75.9771C41.4217 72.3418 45.1543 69.1777 48.8356 66.4316C48.9715 66.3306 49.1063 66.2306 49.2409 66.1306C89.661 36.275 123.828 56.5346 141.958 55.4126C145.525 55.1929 148.658 53.7646 151.738 51.5043C157.381 47.3605 162.841 40.4147 170.457 32.9591C181.877 21.7843 198.141 9.46211 227.125 3.70362C262.991 -3.42179 312.262 -1.42375 333.578 19.9913C346.472 32.9458 349.137 53.0047 332.417 82.4489C331.401 84.2381 330.312 86.0642 329.149 87.9253C328.173 89.4881 327.322 90.9801 326.59 92.4031C324.751 95.9812 323.662 99.1359 323.202 101.947C322.099 108.703 324.633 113.487 329.174 117.42C330.404 118.485 331.778 119.488 333.269 120.451C333.364 120.513 333.459 120.574 333.554 120.635C338.861 124.013 345.566 126.914 352.251 130.315C355.942 132.194 359.627 134.223 363.067 136.571C366.262 138.753 369.246 141.206 371.827 144.064C373.514 145.929 375.029 147.971 376.317 150.219C376.391 150.346 376.462 150.472 376.532 150.599C378.196 153.591 379.467 156.951 380.219 160.76C380.257 160.953 380.294 161.148 380.328 161.343C381.334 166.875 381.264 173.346 379.755 181Z" fill="#FFF1E4"/>
<path fill-rule="evenodd" clip-rule="evenodd" d="M273 58.6924C273 58.6924 272.096 55.6053 269.835 54.898C267.574 54.1902 266.217 51.3605 265.313 52.1321C264.409 52.9039 265.584 58.0493 267.302 58.6924C269.021 59.3355 269.835 60 269.835 60L273 58.6924Z" fill="#FBB37E"/>
<path fill-rule="evenodd" clip-rule="evenodd" d="M302.807 45C302.807 45 291.426 64.4843 287.298 68.0694L272.159 56.9907C272.159 56.9907 269.962 57.6518 269 59.8165C269 59.8165 278.193 78.2012 287.245 78.9805C296.296 79.7599 309 56.9444 309 56.9444L302.807 45Z" fill="#A07855"/>
<path d="M302.807 45C302.807 45 291.426 64.4843 287.298 68.0694L272.159 56.9907C272.159 56.9907 269.962 57.6518 269 59.8165C269 59.8165 278.193 78.2012 287.245 78.9805C296.296 79.7599 309 56.9444 309 56.9444L302.807 45Z" fill="url(#paint0_linear_1_66)"/>
<path fill-rule="evenodd" clip-rule="evenodd" d="M337.763 167.189C337.763 167.189 340.458 169.698 339.932 171.481C339.406 173.264 336.974 174.453 336.645 176.632C336.317 178.811 335.002 180 333.819 180C332.636 180 328.179 180 328.179 180C328.179 180 327.308 178.466 329.411 178.004C331.514 177.542 332.308 174.981 332.176 172.604C332.045 170.227 332.373 167.057 332.373 167.057L336.843 166L337.763 167.189Z" fill="#563F2C"/>
<path fill-rule="evenodd" clip-rule="evenodd" d="M305.292 179.881C305.213 179.925 305.077 179.964 304.891 180H290C290.115 179.427 290.574 178.248 292.395 177.922C294.619 177.5 298.841 175.991 299.752 172.667C299.781 172.559 299.807 172.451 299.83 172.34C300.554 168.786 305.817 173.427 305.817 173.427C305.817 173.427 305.833 173.568 305.856 173.81C305.978 175.114 306.291 179.329 305.292 179.881Z" fill="#563F2C"/>
<path fill-rule="evenodd" clip-rule="evenodd" d="M294 96.344C294 96.344 294.752 106.046 295.635 117.709C296.836 133.552 298.279 153.012 298.422 156.699C298.669 163.1 299.66 173.34 299.66 173.34C299.66 173.34 302.01 175.773 306.712 174.748C306.712 174.748 310.902 160.13 312.099 144.664C312.118 144.41 312.137 144.155 312.155 143.899C313.268 128.154 315 95 315 95L294 96.344Z" fill="#FFE630"/>
<path d="M294 96.344C294 96.344 294.752 106.046 295.635 117.709C296.836 133.552 298.279 153.012 298.422 156.699C298.669 163.1 299.66 173.34 299.66 173.34C299.66 173.34 302.01 175.773 306.712 174.748C306.712 174.748 310.902 160.13 312.099 144.664C312.118 144.41 312.137 144.155 312.155 143.899C313.268 128.154 315 95 315 95L294 96.344Z" fill="url(#paint1_linear_1_66)"/>
<path fill-rule="evenodd" clip-rule="evenodd" d="M294 96.326C294 96.326 294.716 105.899 295.557 117.406L311.237 144C311.255 143.75 311.273 143.498 311.29 143.246C312.351 127.711 314 95 314 95L294 96.326Z" fill="#FFE630"/>
<path fill-rule="evenodd" clip-rule="evenodd" d="M297 96.4078C297 96.4078 311.327 131.942 320.748 148.641C330.168 165.34 333.112 170 333.112 170C333.112 170 338.509 167.864 339 166.408C339 166.408 335.398 134.17 329.089 126.311C325.524 121.87 321.336 108.544 321.14 103.883C320.944 99.2232 319.865 90 319.865 90L297 96.4078Z" fill="#FFE630"/>
<path d="M297 96.4078C297 96.4078 311.327 131.942 320.748 148.641C330.168 165.34 333.112 170 333.112 170C333.112 170 338.509 167.864 339 166.408C339 166.408 335.398 134.17 329.089 126.311C325.524 121.87 321.336 108.544 321.14 103.883C320.944 99.2232 319.865 90 319.865 90L297 96.4078Z" fill="url(#paint2_linear_1_66)"/>
<path fill-rule="evenodd" clip-rule="evenodd" d="M303.711 43.5987C303.086 39.917 303.067 37.7347 303.067 37.7347L310.2 32C309.935 39.8855 315 43.6771 315 43.6771C315 43.6771 305.494 48.3446 300 46.6159C300 46.6159 301.353 44.8912 303.711 43.5987Z" fill="#FBB37E"/>
<path fill-rule="evenodd" clip-rule="evenodd" d="M301.683 36.8204C301.683 36.8204 310.308 38.3088 311.118 32.7157C311.928 27.1225 313.586 23.5477 308.113 22.3612C302.641 21.1745 301.259 23.1412 300.552 24.9397C299.844 26.7385 299.46 36.2891 301.683 36.8204Z" fill="#FBB37E"/>
<path fill-rule="evenodd" clip-rule="evenodd" d="M293.177 97.0667C293.337 97.2013 293.523 97.2823 293.737 97.2823C295.736 97.2549 301.567 98.3784 306.5 97.8659C310.659 97.4618 314.34 96.2156 318.294 94.4228C318.819 94.1848 320.027 93.5324 320 92.9387C319.982 92.2888 319.918 91.346 319.838 90.1588C319.558 86.0308 319.071 78.9309 319.546 70.7396C319.631 69.2142 319.676 67.7014 319.682 66.2118C319.723 55.1102 317.546 45.3455 313.174 42.0405C312.801 41.77 310.508 42.9037 308.401 43.9548C306.454 44.9264 304.508 45.0336 302.669 44.6572L300.83 46.302C298.59 48.4057 296.137 51.2653 295.07 55.6074C294.163 59.3026 293.631 65.9657 293.337 72.8708C293.204 75.9997 293.097 79.1562 293.07 82.1504V82.2576C293.044 82.5543 293.044 82.8786 293.044 83.1754C292.936 90.8624 293.044 96.9581 293.177 97.0667Z" fill="#A07855"/>
<path d="M293.177 97.0667C293.337 97.2013 293.523 97.2823 293.737 97.2823C295.736 97.2549 301.567 98.3784 306.5 97.8659C310.659 97.4618 314.34 96.2156 318.294 94.4228C318.819 94.1848 320.027 93.5324 320 92.9387C319.982 92.2888 319.918 91.346 319.838 90.1588C319.558 86.0308 319.071 78.9309 319.546 70.7396C319.631 69.2142 319.676 67.7014 319.682 66.2118C319.723 55.1102 317.546 45.3455 313.174 42.0405C312.801 41.77 310.508 42.9037 308.401 43.9548C306.454 44.9264 304.508 45.0336 302.669 44.6572L300.83 46.302C298.59 48.4057 296.137 51.2653 295.07 55.6074C294.163 59.3026 293.631 65.9657 293.337 72.8708C293.204 75.9997 293.097 79.1562 293.07 82.1504V82.2576C293.044 82.5543 293.044 82.8786 293.044 83.1754C292.936 90.8624 293.044 96.9581 293.177 97.0667Z" fill="url(#paint3_linear_1_66)"/>
<path fill-rule="evenodd" clip-rule="evenodd" d="M320 89C319.737 84.8275 319.279 77.651 319.726 69.3713C319.806 67.8295 319.848 66.3003 319.853 64.7947C318.143 60.2764 316.745 57 316.745 57H312.435C312.435 57 309.274 80.5095 320 89Z" fill="#A07855"/>
<path d="M320 89C319.737 84.8275 319.279 77.651 319.726 69.3713C319.806 67.8295 319.848 66.3003 319.853 64.7947C318.143 60.2764 316.745 57 316.745 57H312.435C312.435 57 309.274 80.5095 320 89Z" fill="url(#paint4_linear_1_66)"/>
<path fill-rule="evenodd" clip-rule="evenodd" d="M346.81 115.932L326.515 118.695C326.159 118.744 325.806 118.753 325.461 118.727L323.801 118.953C321.155 119.314 318.681 117.54 318.304 115.011L317.049 106.592C316.671 104.064 318.528 101.7 321.174 101.34L323.396 101.037C323.55 101.001 323.708 100.971 323.869 100.949L327.917 100.398L327.646 98.5824C327.585 98.1766 327.694 97.7718 327.953 97.4425C328.212 97.1133 328.588 96.9001 329.013 96.8424L335.085 96.0155C335.964 95.8959 336.781 96.4816 336.906 97.3213L337.177 99.1373L344.164 98.1861C346.82 97.8242 349.303 99.605 349.681 102.143L350.951 110.66C351.33 113.198 349.466 115.57 346.81 115.932ZM335.907 97.4574C335.869 97.2025 335.66 97.0104 335.407 96.9716C335.349 96.9624 335.289 96.9616 335.227 96.9699L329.155 97.7968C328.827 97.8414 328.598 98.1329 328.645 98.4461L328.916 100.262L336.178 99.2734L335.907 97.4574Z" fill="#563F2C"/>
<path d="M346.81 115.932L326.515 118.695C326.159 118.744 325.806 118.753 325.461 118.727L323.801 118.953C321.155 119.314 318.681 117.54 318.304 115.011L317.049 106.592C316.671 104.064 318.528 101.7 321.174 101.34L323.396 101.037C323.55 101.001 323.708 100.971 323.869 100.949L327.917 100.398L327.646 98.5824C327.585 98.1766 327.694 97.7718 327.953 97.4425C328.212 97.1133 328.588 96.9001 329.013 96.8424L335.085 96.0155C335.964 95.8959 336.781 96.4816 336.906 97.3213L337.177 99.1373L344.164 98.1861C346.82 97.8242 349.303 99.605 349.681 102.143L350.951 110.66C351.33 113.198 349.466 115.57 346.81 115.932ZM335.907 97.4574C335.869 97.2025 335.66 97.0104 335.407 96.9716C335.349 96.9624 335.289 96.9616 335.227 96.9699L329.155 97.7968C328.827 97.8414 328.598 98.1329 328.645 98.4461L328.916 100.262L336.178 99.2734L335.907 97.4574Z" fill="url(#paint5_linear_1_66)"/>
<path fill-rule="evenodd" clip-rule="evenodd" d="M329 90.5097L329.986 92.2282C329.986 92.2282 328.055 96.3652 332.636 97.9107C332.636 97.9107 334.607 98.4138 334.776 97.0317C334.944 95.6495 334.654 96.193 334.94 94.2413C335.226 92.29 334.473 90.5518 333.05 90.0874L331.926 89L329 90.5097Z" fill="#FBB37E"/>
<path fill-rule="evenodd" clip-rule="evenodd" d="M331.625 91.7772C329.897 92.1066 328.024 91.9733 328.024 91.9733C328.024 91.9733 322.895 76.4674 322.235 75.0511C321.575 73.6346 307 56.87 307 56.87L313.072 42C313.072 42 328.836 67.7692 330.437 71.39C333.082 77.3736 334 90.7887 334 90.7887C334 90.7887 332.982 91.5183 331.625 91.7772Z" fill="#A07855"/>
<path d="M331.625 91.7772C329.897 92.1066 328.024 91.9733 328.024 91.9733C328.024 91.9733 322.895 76.4674 322.235 75.0511C321.575 73.6346 307 56.87 307 56.87L313.072 42C313.072 42 328.836 67.7692 330.437 71.39C333.082 77.3736 334 90.7887 334 90.7887C334 90.7887 332.982 91.5183 331.625 91.7772Z" fill="url(#paint6_linear_1_66)"/>
<path fill-rule="evenodd" clip-rule="evenodd" d="M311.829 32C311.829 32 310.913 31.8379 311.061 30.5013C311.209 29.1647 311.207 27.4179 310.182 27.7435C309.156 28.0691 309.105 28.939 308.684 28.431C308.262 27.923 308.255 25.7825 305.204 25.6334C302.153 25.4844 300.913 26.6098 299.494 25.9486C298.075 25.2877 298 23.0121 298 23.0121C298 23.0121 298.404 23.8246 299.013 24.083C299.013 24.083 296.646 20.6522 299.386 18.2994C302.127 15.9468 304.921 17.487 306.508 17.5887C310.002 17.8129 312.259 18.0351 313.401 20.4684C314.542 22.9017 314.071 29.6579 311.829 32Z" fill="#785A38"/>
<path fill-rule="evenodd" clip-rule="evenodd" d="M271.967 55.5773L267.887 48.1622C267.808 48.0186 267.612 47.9591 267.452 48.0298L265.181 49.0326C265.021 49.1035 264.954 49.279 265.033 49.4227L269.113 56.8378C269.192 56.9812 269.388 57.041 269.548 56.9702L271.819 55.9673C271.979 55.8964 272.046 55.7211 271.967 55.5773Z" fill="#563F2C"/>
<path fill-rule="evenodd" clip-rule="evenodd" d="M269.975 56.1531L265.853 49.1153C265.793 49.0133 265.645 48.9709 265.524 49.0211L264.201 49.5699C264.08 49.6202 263.885 49.7449 264.089 49.8471L268.211 56.8846C268.271 56.9868 268.419 57.0291 268.54 56.9788L269.863 56.4303C269.984 56.38 270.035 56.2552 269.975 56.1531Z" fill="#A67A4A"/>
<path fill-rule="evenodd" clip-rule="evenodd" d="M73.0001 102C73.0001 102 52 76.3842 52 64.8622C52 53.3403 61.4022 44 73.0001 44C84.5979 44 94 53.3403 94 64.8622C94 76.3842 73.0001 102 73.0001 102ZM73.0001 54.899C67.579 54.899 63.1842 59.2647 63.1842 64.6503C63.1842 70.0359 67.579 74.4018 73.0001 74.4018C78.421 74.4018 82.8159 70.0359 82.8159 64.6503C82.8159 59.2647 78.421 54.899 73.0001 54.899Z" fill="#A07855"/>
<path d="M73.0001 102C73.0001 102 52 76.3842 52 64.8622C52 53.3403 61.4022 44 73.0001 44C84.5979 44 94 53.3403 94 64.8622C94 76.3842 73.0001 102 73.0001 102ZM73.0001 54.899C67.579 54.899 63.1842 59.2647 63.1842 64.6503C63.1842 70.0359 67.579 74.4018 73.0001 74.4018C78.421 74.4018 82.8159 70.0359 82.8159 64.6503C82.8159 59.2647 78.421 54.899 73.0001 54.899Z" fill="url(#paint7_linear_1_66)"/>
<path fill-rule="evenodd" clip-rule="evenodd" d="M31.6306 156C27.0084 156 18 161.372 18 168C18 174.627 21.7471 180 26.3694 180C27.0115 180 31.6306 180 31.6306 180C36.2529 180 40 174.627 40 168C40 161.372 36.2529 156 31.6306 156Z" fill="#805C35"/>
<path fill-rule="evenodd" clip-rule="evenodd" d="M126.662 171H82.9969C83.2105 169.709 83.3174 168.369 83.3174 166.982C83.3174 156.814 77.387 148.567 70.0804 148.567C62.774 148.567 56.8567 156.814 56.8567 166.982C56.8567 168.369 56.9636 169.709 57.1774 171H38.5705C38.5705 171 32.7869 156.2 38.5705 151.085C44.3543 145.984 76.6387 142.482 76.6387 142.482C76.6387 142.482 88.8874 126.069 96.3808 120.969C97.6633 120.097 100.001 119.468 103.019 119C118.687 121.098 119.262 138.044 128.211 140.868C137.561 143.822 126.662 171 126.662 171Z" fill="#A07855"/>
<path fill-rule="evenodd" clip-rule="evenodd" d="M84.7205 164.5C84.7205 171.871 81.0588 180 81.0588 180C81.0588 180 75.6166 180 74.8603 180C69.4147 180 65 173.06 65 164.5C65 155.94 75.6132 149 81.0588 149C86.5045 149 84.7205 155.94 84.7205 164.5Z" fill="#A07855"/>
<path fill-rule="evenodd" clip-rule="evenodd" d="M92 164.5C92 173.06 87.2991 180 81.4999 180C75.7009 180 71 173.06 71 164.5C71 155.94 75.7009 149 81.4999 149C87.2991 149 92 155.94 92 164.5Z" fill="#8B6339"/>
<path fill-rule="evenodd" clip-rule="evenodd" d="M88 164.5C88 170.851 84.6421 176 80.5 176C76.3579 176 73 170.851 73 164.5C73 158.149 76.3579 153 80.5 153C84.6421 153 88 158.149 88 164.5Z" fill="#A07855"/>
<path fill-rule="evenodd" clip-rule="evenodd" d="M139.606 171H95.4815C95.6975 169.714 95.8054 168.379 95.8054 166.997C95.8054 156.866 89.8126 148.65 82.4292 148.65C75.046 148.65 69.0664 156.866 69.0664 166.997C69.0664 168.379 69.1745 169.714 69.3904 171H2.60363C2.60363 171 -3.25454 156.255 2.60363 151.159C8.44811 146.077 42.4277 141.124 42.4277 141.124C42.4277 141.124 57.9171 129.462 65.5028 124.381C73.0885 119.284 113.501 119 113.501 119C114.27 119.032 115.013 119.097 115.715 119.193C131.547 121.283 132.128 138.166 141.171 140.98C150.62 143.923 139.606 171 139.606 171Z" fill="#A07855"/>
<path d="M139.606 171H95.4815C95.6975 169.714 95.8054 168.379 95.8054 166.997C95.8054 156.866 89.8126 148.65 82.4292 148.65C75.046 148.65 69.0664 156.866 69.0664 166.997C69.0664 168.379 69.1745 169.714 69.3904 171H2.60363C2.60363 171 -3.25454 156.255 2.60363 151.159C8.44811 146.077 42.4277 141.124 42.4277 141.124C42.4277 141.124 57.9171 129.462 65.5028 124.381C73.0885 119.284 113.501 119 113.501 119C114.27 119.032 115.013 119.097 115.715 119.193C131.547 121.283 132.128 138.166 141.171 140.98C150.62 143.923 139.606 171 139.606 171Z" fill="url(#paint8_linear_1_66)"/>
<path fill-rule="evenodd" clip-rule="evenodd" d="M139.606 171H95.4864C95.7024 169.709 95.8102 168.369 95.8102 166.982C95.8102 156.814 89.818 148.567 82.4353 148.567C75.0528 148.567 69.0739 156.814 69.0739 166.982C69.0739 168.369 69.182 169.709 69.3979 171H50.5973C50.5973 171 44.7534 156.2 50.5973 151.085C56.4412 145.984 89.0621 142.482 89.0621 142.482C89.0621 142.482 101.438 126.069 109.01 120.969C110.306 120.097 112.667 119.468 115.718 119C131.549 121.098 132.129 138.044 141.172 140.868C150.619 143.822 139.606 171 139.606 171Z" fill="#8D6949"/>
<path d="M139.606 171H95.4864C95.7024 169.709 95.8102 168.369 95.8102 166.982C95.8102 156.814 89.818 148.567 82.4353 148.567C75.0528 148.567 69.0739 156.814 69.0739 166.982C69.0739 168.369 69.182 169.709 69.3979 171H50.5973C50.5973 171 44.7534 156.2 50.5973 151.085C56.4412 145.984 89.0621 142.482 89.0621 142.482C89.0621 142.482 101.438 126.069 109.01 120.969C110.306 120.097 112.667 119.468 115.718 119C131.549 121.098 132.129 138.044 141.172 140.868C150.619 143.822 139.606 171 139.606 171Z" fill="url(#paint9_linear_1_66)"/>
<path fill-rule="evenodd" clip-rule="evenodd" d="M97 141C97 141 109.492 120.913 117.245 122.046C129.892 123.895 134 138.498 134 138.498C134 138.498 122.952 139.254 97 141Z" fill="#F2DAB4"/>
<path fill-rule="evenodd" clip-rule="evenodd" d="M106 122.002C106 122.002 105.968 122.033 105.904 122.08C104.868 122.863 95.459 130.071 88.9044 138.324L48 139C49.164 138.108 50.5834 137.032 52.1143 135.865C58.2539 131.223 66.2914 125.276 67.8064 124.799C69.5604 124.262 76.2903 123.201 82.5894 122.725C83.1157 122.678 83.6579 122.648 84.2002 122.602C90.0208 122.218 96.0329 122.08 100.259 122.033H100.658C103.895 121.987 106 122.002 106 122.002Z" fill="#FFF1E4"/>
<path fill-rule="evenodd" clip-rule="evenodd" d="M45 157.23V157.769C45 159.552 43.6118 161 41.9008 161H26.0989C24.4042 161 23 159.552 23 157.769V157.23C23 155.447 24.4042 154 26.0989 154H41.9008C43.6118 154 45 155.447 45 157.23Z" fill="#F2DAB4"/>
<path fill-rule="evenodd" clip-rule="evenodd" d="M46 157.23V157.769C46 159.552 44.6261 161 42.9328 161H28.9329C27.3738 161 26 159.552 26 157.769V157.23C26 155.447 27.3738 154 28.9329 154H42.9328C44.6261 154 46 155.447 46 157.23Z" fill="#FFF1E4"/>
<path fill-rule="evenodd" clip-rule="evenodd" d="M14 157.23V157.769C14 159.552 13.2428 161 12.3096 161H3.6903C2.76593 161 2 159.552 2 157.769V157.23C2 155.447 2.76593 154 3.6903 154H12.3096C13.2428 154 14 155.447 14 157.23Z" fill="#A2C2DD"/>
<path fill-rule="evenodd" clip-rule="evenodd" d="M13 157.23V157.769C13 159.552 12.313 161 11.4664 161H4.53346C3.68682 161 3 159.552 3 157.769V157.23C3 155.447 3.68682 154 4.53346 154H11.4664C12.313 154 13 155.447 13 157.23Z" fill="#FFF1E4"/>
<path fill-rule="evenodd" clip-rule="evenodd" d="M106 122.046C104.962 122.832 95.5375 130.053 88.972 138.323L48 139C49.166 138.107 50.5877 137.029 52.1211 135.859C61.4177 133.61 76.417 129.176 84.26 122.57C90.0902 122.185 96.1123 122.046 100.345 122H100.745C102.582 122.015 104.339 122.031 106 122.046Z" fill="#F2DAB4"/>
<path fill-rule="evenodd" clip-rule="evenodd" d="M195.497 180H116.503C114.027 180 112 177.901 112 175.335V11.6655C112 9.09948 114.027 7 116.503 7H195.497C197.974 7 200 9.09948 200 11.6655V175.335C200 177.901 197.974 180 195.497 180Z" fill="#FFF394"/>
<path d="M195.497 180H116.503C114.027 180 112 177.901 112 175.335V11.6655C112 9.09948 114.027 7 116.503 7H195.497C197.974 7 200 9.09948 200 11.6655V175.335C200 177.901 197.974 180 195.497 180Z" fill="url(#paint10_linear_1_66)"/>
<path fill-rule="evenodd" clip-rule="evenodd" d="M205.395 180H124.605C122.072 180 120 177.901 120 175.335V11.6655C120 9.09948 122.072 7 124.605 7H205.395C207.927 7 210 9.09948 210 11.6655V175.335C210 177.901 207.927 180 205.395 180Z" fill="#FFE630"/>
<path d="M205.395 180H124.605C122.072 180 120 177.901 120 175.335V11.6655C120 9.09948 122.072 7 124.605 7H205.395C207.927 7 210 9.09948 210 11.6655V175.335C210 177.901 207.927 180 205.395 180Z" fill="url(#paint11_linear_1_66)"/>
<path opacity="0.4" fill-rule="evenodd" clip-rule="evenodd" d="M179.097 14H155.903C155.406 14 155 14.45 155 15.0001C155 15.55 155.406 16 155.903 16H179.097C179.594 16 180 15.55 180 15.0001C180 14.45 179.594 14 179.097 14Z" fill="#A07855"/>
<path opacity="0.4" fill-rule="evenodd" clip-rule="evenodd" d="M151 14C150.45 14 150 14.45 150 15.0001C150 15.55 150.45 16 151 16C151.55 16 152 15.55 152 15.0001C152 14.45 151.55 14 151 14Z" fill="#A07855"/>
<path opacity="0.4" fill-rule="evenodd" clip-rule="evenodd" d="M161 170.5C161 167.462 163.462 165 166.5 165C169.538 165 172 167.462 172 170.5C172 173.538 169.538 176 166.5 176C163.462 176 161 173.538 161 170.5Z" fill="#F7B36B"/>
<path fill-rule="evenodd" clip-rule="evenodd" d="M200 161H127V21H200V161Z" fill="#F7E2C0"/>
<path fill-rule="evenodd" clip-rule="evenodd" d="M200 161H127V144H200V161Z" fill="#C9B99E"/>
<path fill-rule="evenodd" clip-rule="evenodd" d="M202.971 119.549C202.622 119.765 202.236 119.868 201.855 119.868C201.131 119.868 200.425 119.497 200.021 118.825L184.646 93.2906C180.434 95.5528 169.383 101.482 158.307 107.384C129.728 122.614 128.903 122.811 128.358 122.941C128.192 122.981 128.027 123 127.864 123C126.891 123 126.009 122.325 125.776 121.323C125.514 120.197 126.167 119.069 127.246 118.741C129.644 117.794 160.752 101.203 182.406 89.57L171.64 71.6889C170.62 69.9948 168.471 69.4053 166.747 70.3463L154.606 76.9737C150.988 78.9488 146.499 77.6976 144.386 74.1253L125.306 41.8628C124.696 40.8322 125.026 39.496 126.043 38.8783C127.06 38.2606 128.378 38.5954 128.988 39.626L141.722 61.1568C145.97 59.0108 157.988 52.1321 169.122 45.5933C168.821 44.612 168.659 43.5699 168.659 42.4898C168.659 36.7058 173.303 32 179.01 32C184.717 32 189.36 36.7058 189.36 42.4898C189.36 45.4386 188.153 48.1068 186.213 50.0143C189.107 54.5984 197.811 69.6989 194.998 81.4473C194.025 85.511 191.803 88.7625 188.381 91.1401L203.685 116.559C204.303 117.584 203.983 118.923 202.971 119.549ZM179.01 36.351C175.67 36.351 172.952 39.1049 172.952 42.4898C172.952 45.8748 175.67 48.6286 179.01 48.6286C182.35 48.6286 185.067 45.8748 185.067 42.4898C185.067 39.1049 182.35 36.351 179.01 36.351ZM190.825 80.427C192.278 74.3674 189.804 66.8074 187.473 61.5321C185.662 57.4356 183.65 54.0443 182.577 52.337C181.465 52.7524 180.263 52.9795 179.01 52.9795C175.907 52.9795 173.118 51.588 171.22 49.3887C168.76 50.8306 163.53 53.8882 158.19 56.9557C150.183 61.5545 146.094 63.7876 143.931 64.8919L148.068 71.8884C148.999 73.4621 150.976 74.0132 152.57 73.1433L164.711 66.5157C168.444 64.4786 173.097 65.7552 175.305 69.4227L186.141 87.4196C188.581 85.6653 190.121 83.3628 190.825 80.427Z" fill="#FFE630"/>
<path fill-rule="evenodd" clip-rule="evenodd" d="M186.587 39C186.381 39 186.182 38.8703 186.074 38.64C185.917 38.3013 186.018 37.8735 186.3 37.6842L202.128 27.0893C202.41 26.9002 202.768 27.0212 202.925 27.36C203.083 27.6987 202.982 28.1265 202.7 28.3158L186.872 38.9107C186.782 38.9713 186.684 39 186.587 39Z" fill="#FFE630"/>
<path fill-rule="evenodd" clip-rule="evenodd" d="M175.411 36C175.222 36 175.036 35.8886 174.922 35.6821L169.101 25.1222C168.919 24.7924 168.99 24.345 169.26 24.1229C169.53 23.9007 169.896 23.9881 170.078 24.3178L175.899 34.8778C176.081 35.2075 176.01 35.655 175.74 35.8771C175.639 35.9602 175.524 36 175.411 36Z" fill="#FFE630"/>
<path fill-rule="evenodd" clip-rule="evenodd" d="M173.357 145C173.141 145 172.93 144.893 172.808 144.699L151.095 109.958C150.909 109.661 151.005 109.274 151.308 109.093C151.611 108.911 152.007 109.005 152.192 109.301L173.905 144.042C174.091 144.339 173.995 144.726 173.692 144.907C173.588 144.97 173.472 145 173.357 145Z" fill="#FFE630"/>
<path fill-rule="evenodd" clip-rule="evenodd" d="M177 41.9999C177 40.3431 178.343 39 180 39C181.657 39 183 40.3431 183 41.9999C183 43.6569 181.657 45 180 45C178.343 45 177 43.6569 177 41.9999Z" fill="#A67A4A"/>
<path fill-rule="evenodd" clip-rule="evenodd" d="M185.173 148H145.827C145.372 148 145 148.45 145 149C145 149.55 145.372 150 145.827 150H185.173C185.628 150 186 149.55 186 149C186 148.45 185.628 148 185.173 148Z" fill="#FFF394"/>
<path fill-rule="evenodd" clip-rule="evenodd" d="M185.173 152H145.827C145.372 152 145 152.45 145 153C145 153.55 145.372 154 145.827 154H185.173C185.628 154 186 153.55 186 153C186 152.45 185.628 152 185.173 152Z" fill="#FFF394"/>
<path fill-rule="evenodd" clip-rule="evenodd" d="M135 156C135 156 131 151.584 131 149.597C131 147.611 132.791 146 135 146C137.209 146 139 147.611 139 149.597C139 151.584 135 156 135 156ZM135 147.879C133.968 147.879 133.131 148.632 133.131 149.561C133.131 150.489 133.968 151.242 135 151.242C136.033 151.242 136.87 150.489 136.87 149.561C136.87 148.632 136.033 147.879 135 147.879Z" fill="#A67A4A"/>
<path fill-rule="evenodd" clip-rule="evenodd" d="M161.5 91C161.5 91 158 86.1419 158 83.9566C158 81.7715 159.567 80 161.5 80C163.433 80 165 81.7715 165 83.9566C165 86.1419 161.5 91 161.5 91ZM161.5 82.0669C160.596 82.0669 159.864 82.895 159.864 83.9165C159.864 84.9378 160.596 85.7657 161.5 85.7657C162.403 85.7657 163.136 84.9378 163.136 83.9165C163.136 82.895 162.403 82.0669 161.5 82.0669Z" fill="#A67A4A"/>
<path fill-rule="evenodd" clip-rule="evenodd" d="M265.95 57C265.95 57 269.207 53.8691 267.51 52.0575C267.136 51.6579 265 53.4714 265 53.4714C265 53.4714 265.623 56.3842 265.95 57Z" fill="#FBB37E"/>
<defs>
<linearGradient id="paint0_linear_1_66" x1="269" y1="3440.34" x2="420.378" y2="42.4168" gradientUnits="userSpaceOnUse">
<stop stop-color="#A07855"/>
<stop offset="1" stop-color="#DDB592"/>
</linearGradient>
<linearGradient id="paint1_linear_1_66" x1="477.036" y1="95" x2="-1931.98" y2="7322.58" gradientUnits="userSpaceOnUse">
<stop stop-color="#FFDE03"/>
<stop offset="1" stop-color="#FFF890"/>
</linearGradient>
<linearGradient id="paint2_linear_1_66" x1="663.072" y1="90" x2="-639.082" y2="7903.52" gradientUnits="userSpaceOnUse">
<stop stop-color="#FFDE03"/>
<stop offset="1" stop-color="#FFF890"/>
</linearGradient>
<linearGradient id="paint3_linear_1_66" x1="293" y1="5634.33" x2="895.47" y2="92.1299" gradientUnits="userSpaceOnUse">
<stop stop-color="#A07855"/>
<stop offset="1" stop-color="#DDB592"/>
</linearGradient>
<linearGradient id="paint4_linear_1_66" x1="312" y1="3252.62" x2="955.509" y2="183.131" gradientUnits="userSpaceOnUse">
<stop stop-color="#A07855"/>
<stop offset="1" stop-color="#DDB592"/>
</linearGradient>
<linearGradient id="paint5_linear_1_66" x1="317" y1="2392.85" x2="398.556" y2="92.5821" gradientUnits="userSpaceOnUse">
<stop stop-color="#A07855"/>
<stop offset="1" stop-color="#DDB592"/>
</linearGradient>
<linearGradient id="paint6_linear_1_66" x1="307" y1="5035.15" x2="788.426" y2="75.0104" gradientUnits="userSpaceOnUse">
<stop stop-color="#A07855"/>
<stop offset="1" stop-color="#DDB592"/>
</linearGradient>
<linearGradient id="paint7_linear_1_66" x1="52.0001" y1="5836.05" x2="470.179" y2="58.3562" gradientUnits="userSpaceOnUse">
<stop stop-color="#A07855"/>
<stop offset="1" stop-color="#DDB592"/>
</linearGradient>
<linearGradient id="paint8_linear_1_66" x1="0.000204205" y1="5311.88" x2="97.8388" y2="106.574" gradientUnits="userSpaceOnUse">
<stop stop-color="#A07855"/>
<stop offset="1" stop-color="#DDB592"/>
</linearGradient>
<linearGradient id="paint9_linear_1_66" x1="48.0001" y1="5311.88" x2="194.19" y2="108.843" gradientUnits="userSpaceOnUse">
<stop stop-color="#A07855"/>
<stop offset="1" stop-color="#DDB592"/>
</linearGradient>
<linearGradient id="paint10_linear_1_66" x1="112" y1="17283.3" x2="1878.23" y2="141.529" gradientUnits="userSpaceOnUse">
<stop stop-color="#FFDE03"/>
<stop offset="1" stop-color="#FFF890"/>
</linearGradient>
<linearGradient id="paint11_linear_1_66" x1="904.44" y1="6.99997" x2="-1935.87" y2="16895.3" gradientUnits="userSpaceOnUse">
<stop stop-color="#FFDE03"/>
<stop offset="1" stop-color="#FFF890"/>
</linearGradient>
</defs>
</svg>
