<svg width="18" height="18" viewBox="0 0 18 18" fill="none" xmlns="http://www.w3.org/2000/svg">
<path d="M12.7428 7.28247H5.25781C4.95031 7.28247 4.69531 7.02747 4.69531 6.71997C4.69531 6.41247 4.95031 6.15747 5.25781 6.15747H12.7428C13.0503 6.15747 13.3053 6.41247 13.3053 6.71997C13.3053 7.02747 13.0503 7.28247 12.7428 7.28247Z" fill="#040404"/>
<path d="M9 7.28258C8.6925 7.28258 8.4375 7.02758 8.4375 6.72008V5.46008C8.4375 5.15258 8.6925 4.89758 9 4.89758C9.3075 4.89758 9.5625 5.15258 9.5625 5.46008V6.72008C9.5625 7.02758 9.3075 7.28258 9 7.28258Z" fill="#040404"/>
<path d="M5.25 13.1024C4.9425 13.1024 4.6875 12.8474 4.6875 12.5399C4.6875 12.2324 4.9425 11.9774 5.25 11.9774C8.04 11.9774 10.3125 9.61496 10.3125 6.70496C10.3125 6.39746 10.5675 6.14246 10.875 6.14246C11.1825 6.14246 11.4375 6.39746 11.4375 6.70496C11.4375 10.2375 8.6625 13.1024 5.25 13.1024Z" fill="#040404"/>
<path d="M12.7509 13.1024C11.2734 13.1024 9.9009 12.3675 8.8959 11.025C8.7084 10.7775 8.76092 10.425 9.00842 10.2375C9.25592 10.05 9.60841 10.1024 9.79591 10.3499C10.5909 11.3999 11.6409 11.9774 12.7584 11.9774C13.0659 11.9774 13.3209 12.2324 13.3209 12.5399C13.3209 12.8474 13.0584 13.1024 12.7509 13.1024Z" fill="#040404"/>
<path d="M9 17.0625C4.5525 17.0625 0.9375 13.4475 0.9375 9C0.9375 4.5525 4.5525 0.9375 9 0.9375C13.4475 0.9375 17.0625 4.5525 17.0625 9C17.0625 13.4475 13.4475 17.0625 9 17.0625ZM9 2.0625C5.175 2.0625 2.0625 5.175 2.0625 9C2.0625 12.825 5.175 15.9375 9 15.9375C12.825 15.9375 15.9375 12.825 15.9375 9C15.9375 5.175 12.825 2.0625 9 2.0625Z" fill="#040404"/>
</svg>
