<svg width="20" height="20" viewBox="0 0 20 20" fill="none" xmlns="http://www.w3.org/2000/svg">
<path d="M12.6 8.59229C12.6 9.10653 12.4475 9.60921 12.1618 10.0368C11.8762 10.4643 11.4701 10.7976 10.995 10.9944C10.5199 11.1912 9.99714 11.2427 9.49279 11.1423C8.98844 11.042 8.52516 10.7944 8.16155 10.4308C7.79793 10.0672 7.55031 9.60388 7.44998 9.09953C7.34966 8.59518 7.40115 8.07241 7.59794 7.59732C7.79473 7.12223 8.12798 6.71616 8.55554 6.43047C8.98311 6.14478 9.48579 5.99229 10 5.99229C10.6896 5.99229 11.3509 6.26622 11.8385 6.75382C12.3261 7.24141 12.6 7.90273 12.6 8.59229Z" stroke="#101010"/>
<path d="M3.01667 7.07546C4.65778 -0.146766 15.35 -0.132322 16.9833 7.08435C17.9411 11.3177 15.3078 14.901 13 17.1177C12.1927 17.8944 11.1159 18.3283 9.99556 18.3283C8.87523 18.3283 7.79844 17.8944 6.99111 17.1177C4.69222 14.8999 2.05889 11.3088 3.01667 7.07546Z" stroke="#101010"/>
</svg>
