<svg width="20" height="20" viewBox="0 0 20 20" fill="none" xmlns="http://www.w3.org/2000/svg">
<path d="M5.46693 12.8083C5.62526 12.8083 5.78359 12.75 5.90859 12.625C6.15026 12.3833 6.15026 11.9833 5.90859 11.7416L4.21693 10.05L5.90859 8.35828C6.15026 8.11662 6.15026 7.71662 5.90859 7.47495C5.66693 7.23328 5.26693 7.23328 5.02526 7.47495L2.89193 9.60828C2.65026 9.84995 2.65026 10.25 2.89193 10.4916L5.02526 12.625C5.15026 12.75 5.30859 12.8083 5.46693 12.8083Z" fill="#FF4F4F"/>
<path d="M3.39219 10.675H11.8672C12.2089 10.675 12.4922 10.3917 12.4922 10.05C12.4922 9.70838 12.2089 9.42505 11.8672 9.42505H3.39219C3.05052 9.42505 2.76719 9.70838 2.76719 10.05C2.76719 10.3917 3.05052 10.675 3.39219 10.675Z" fill="#FF4F4F"/>
<path d="M10.2005 17.2916C14.4922 17.2916 17.4922 14.2916 17.4922 9.99992C17.4922 5.70825 14.4922 2.70825 10.2005 2.70825C9.85885 2.70825 9.57552 2.99159 9.57552 3.33325C9.57552 3.67492 9.85885 3.95825 10.2005 3.95825C13.7589 3.95825 16.2422 6.44159 16.2422 9.99992C16.2422 13.5583 13.7589 16.0416 10.2005 16.0416C9.85885 16.0416 9.57552 16.3249 9.57552 16.6666C9.57552 17.0083 9.85885 17.2916 10.2005 17.2916Z" fill="#FF4F4F"/>
</svg>
