<svg width="18" height="18" viewBox="0 0 18 18" fill="none" xmlns="http://www.w3.org/2000/svg">
<rect width="18" height="18" fill="white"/>
<path d="M8.67302 4.33V6.8275M8.68802 1C5.92802 1 3.69302 3.235 3.69302 5.995V7.57C3.69302 8.08 3.48302 8.845 3.22052 9.28L2.26802 10.87C1.68302 11.8525 2.08802 12.9475 3.16802 13.3075C6.75398 14.5 10.6296 14.5 14.2155 13.3075C14.4521 13.2286 14.668 13.0975 14.8472 12.9239C15.0263 12.7504 15.1642 12.5388 15.2506 12.3048C15.337 12.0708 15.3697 11.8204 15.3463 11.572C15.3229 11.3237 15.2441 11.0838 15.1155 10.87L14.163 9.28C13.9005 8.845 13.6905 8.0725 13.6905 7.57V5.995C13.683 3.25 11.433 1 8.68802 1Z" stroke="#040404" stroke-miterlimit="10" stroke-linecap="round"/>
<path d="M11.1708 13.6152C11.1708 14.9877 10.0458 16.1127 8.67328 16.1127C7.99078 16.1127 7.36078 15.8277 6.91078 15.3777C6.46078 14.9277 6.17578 14.2977 6.17578 13.6152" stroke="#040404" stroke-miterlimit="10"/>
</svg>
