<svg width="24" height="24" viewBox="0 0 24 24" fill="none" xmlns="http://www.w3.org/2000/svg">
<path d="M12 10.6431C11.6242 10.6431 11.3125 10.3314 11.3125 9.95558V6.90308C11.3125 6.52724 11.6242 6.21558 12 6.21558C12.3758 6.21558 12.6875 6.52724 12.6875 6.90308V9.95558C12.6875 10.3406 12.3758 10.6431 12 10.6431Z" fill="#B6AFA9"/>
<path d="M12.0178 19.6542C9.65281 19.6542 7.29697 19.2784 5.05114 18.5267C4.21697 18.2517 3.58447 17.6559 3.30947 16.9042C3.03447 16.1526 3.12614 15.2909 3.5753 14.5392L4.73947 12.5959C4.99614 12.1651 5.2253 11.3584 5.2253 10.8542V8.92922C5.2253 5.18005 8.26864 2.13672 12.0178 2.13672C15.767 2.13672 18.8103 5.18005 18.8103 8.92922V10.8542C18.8103 11.3492 19.0395 12.1651 19.2961 12.5959L20.4603 14.5392C20.8911 15.2542 20.9645 16.1067 20.6803 16.8859C20.3961 17.6651 19.7728 18.2609 18.9845 18.5267C16.7386 19.2876 14.3828 19.6542 12.0178 19.6542ZM12.0178 3.52089C9.02947 3.52089 6.6003 5.95005 6.6003 8.93839V10.8634C6.6003 11.6059 6.30697 12.6784 5.92197 13.3109L4.7578 15.2634C4.51947 15.6576 4.46447 16.0792 4.60197 16.4459C4.73947 16.8126 5.05114 17.0876 5.49114 17.2342C9.7078 18.6367 14.3461 18.6367 18.5628 17.2342C18.957 17.1059 19.2595 16.8126 19.397 16.4276C19.5436 16.0426 19.4978 15.6209 19.287 15.2634L18.1228 13.3201C17.7378 12.6876 17.4445 11.6151 17.4445 10.8726V8.94755C17.4353 5.95005 15.0061 3.52089 12.0178 3.52089Z" fill="#B6AFA9"/>
<path d="M11.9998 21.9915C11.0189 21.9915 10.0564 21.5881 9.35977 20.8915C8.6631 20.1948 8.25977 19.2323 8.25977 18.2515H9.63477C9.63477 18.8748 9.89143 19.4798 10.3314 19.9198C10.7714 20.3598 11.3764 20.6165 11.9998 20.6165C13.3014 20.6165 14.3648 19.5531 14.3648 18.2515H15.7398C15.7398 20.314 14.0623 21.9915 11.9998 21.9915Z" fill="#B6AFA9"/>
</svg>
