<svg width="24" height="24" viewBox="0 0 24 24" fill="none" xmlns="http://www.w3.org/2000/svg">
<path d="M19.5083 13.8886L18.4724 12.1652C18.2433 11.7894 18.0416 11.0652 18.0416 10.6252V8.91106C18.0416 5.58356 15.3374 2.87939 12.0191 2.87939C8.69159 2.88856 5.98742 5.58356 5.98742 8.91106V10.6161C5.98742 11.0561 5.78576 11.7802 5.56576 12.1561L4.52992 13.8794C4.13576 14.5486 4.04409 15.3094 4.29159 15.9694C4.53909 16.6386 5.09826 17.1702 5.83159 17.4086C6.82159 17.7386 7.82076 17.9769 8.83826 18.1511C8.93909 18.1694 9.03992 18.1786 9.14076 18.1969C9.26909 18.2152 9.40659 18.2336 9.54409 18.2519C9.78242 18.2886 10.0208 18.3161 10.2683 18.3344C10.8458 18.3894 11.4324 18.4169 12.0191 18.4169C12.5966 18.4169 13.1741 18.3894 13.7424 18.3344C13.9533 18.3161 14.1641 18.2977 14.3658 18.2702C14.5308 18.2519 14.6958 18.2336 14.8608 18.2061C14.9616 18.1969 15.0624 18.1786 15.1633 18.1602C16.1899 17.9952 17.2074 17.7386 18.1974 17.4086C18.9033 17.1702 19.4441 16.6386 19.7008 15.9602C19.9574 15.2727 19.8841 14.5211 19.5083 13.8886ZM12.6883 10.1669C12.6883 10.5519 12.3766 10.8636 11.9916 10.8636C11.6066 10.8636 11.2949 10.5519 11.2949 10.1669V7.32523C11.2949 6.94023 11.6066 6.62856 11.9916 6.62856C12.3766 6.62856 12.6883 6.94023 12.6883 7.32523V10.1669Z" fill="#090909"/>
<path d="M14.5952 19.3429C14.2102 20.4062 13.1927 21.1671 12.001 21.1671C11.2768 21.1671 10.5618 20.8737 10.0577 20.3512C9.76435 20.0762 9.54435 19.7096 9.41602 19.3337C9.53518 19.3521 9.65435 19.3612 9.78268 19.3796C9.99352 19.4071 10.2135 19.4346 10.4335 19.4529C10.956 19.4987 11.4877 19.5262 12.0193 19.5262C12.5418 19.5262 13.0643 19.4987 13.5777 19.4529C13.7702 19.4346 13.9627 19.4254 14.146 19.3979C14.2927 19.3796 14.4393 19.3612 14.5952 19.3429Z" fill="#090909"/>
</svg>
