<svg width="30" height="30" viewBox="0 0 30 30" fill="none" xmlns="http://www.w3.org/2000/svg">
    <g clip-path="url(#clip0_258_4332)">
        <path
            d="M16.6895 5.84445C16.2235 5.84445 15.8457 5.46668 15.8457 5.0007V3.13135C15.8457 2.6661 15.4672 2.2876 15.002 2.2876C14.5367 2.2876 14.1582 2.6661 14.1582 3.13135V5.0007C14.1582 5.46668 13.7804 5.84445 13.3145 5.84445C12.8485 5.84445 12.4707 5.46668 12.4707 5.0007V3.13135C12.4707 1.73562 13.6062 0.600098 15.002 0.600098C16.3977 0.600098 17.5332 1.73562 17.5332 3.13135V5.0007C17.5332 5.46668 17.1554 5.84445 16.6895 5.84445Z"
            fill="#ED9422" />
        <path
            d="M15.8457 3.13135V5.0007C15.8457 5.46668 16.2235 5.84445 16.6895 5.84445C17.1554 5.84445 17.5332 5.46668 17.5332 5.0007V3.13135C17.5332 1.73562 16.3977 0.600098 15.002 0.600098V2.2876C15.4673 2.2876 15.8457 2.6661 15.8457 3.13135Z"
            fill="#C97307" />
        <path
            d="M15.002 29.4001C12.6757 29.4001 10.7832 27.5076 10.7832 25.1813C10.7832 24.7154 11.161 24.3376 11.627 24.3376H18.377C18.8429 24.3376 19.2207 24.7154 19.2207 25.1813C19.2207 27.5076 17.3282 29.4001 15.002 29.4001Z"
            fill="#ED9422" />
        <path
            d="M18.377 24.3376H15.002V29.4001C17.3282 29.4001 19.2207 27.5076 19.2207 25.1813C19.2207 24.7154 18.8429 24.3376 18.377 24.3376Z"
            fill="#C97307" />
        <path
            d="M26.8144 26.0251H3.18942C3.02405 26.0251 2.86233 25.9765 2.72435 25.8853C2.58638 25.7942 2.47823 25.6645 2.41335 25.5124C2.34847 25.3603 2.32972 25.1924 2.35943 25.0298C2.38914 24.8671 2.466 24.7167 2.58046 24.5974C4.96816 22.1073 6.28317 18.836 6.28317 15.3861V12.6938C6.28317 7.88633 10.1944 3.9751 15.0019 3.9751C19.8094 3.9751 23.7207 7.88633 23.7207 12.6938V15.3861C23.7207 18.836 25.0357 22.1073 27.4234 24.5974C27.5379 24.7167 27.6148 24.8671 27.6445 25.0298C27.6742 25.1925 27.6554 25.3603 27.5905 25.5124C27.5257 25.6645 27.4175 25.7942 27.2795 25.8854C27.1415 25.9765 26.9798 26.0251 26.8144 26.0251Z"
            fill="#FFBC66" />
        <path
            d="M26.8145 26.0251C26.9798 26.0251 27.1416 25.9765 27.2795 25.8854C27.4175 25.7942 27.5257 25.6645 27.5906 25.5124C27.6555 25.3603 27.6742 25.1925 27.6445 25.0298C27.6148 24.8671 27.5379 24.7167 27.4235 24.5974C25.0357 22.1073 23.7207 18.836 23.7207 15.3861V12.6938C23.7207 7.88633 19.8095 3.9751 15.002 3.9751V26.0251H26.8145Z"
            fill="#ED9422" />
        <path
            d="M26.8153 13.5376C26.3493 13.5376 25.9715 13.1598 25.9715 12.6938C25.9715 9.76393 24.8306 7.00943 22.7589 4.93774C22.4293 4.60823 22.4293 4.07402 22.7589 3.74451C23.0883 3.415 23.6226 3.415 23.9521 3.74451C26.3425 6.13491 27.659 9.3132 27.659 12.6938C27.659 13.1598 27.2812 13.5376 26.8153 13.5376Z"
            fill="#08475E" />
        <path
            d="M3.18945 13.5376C2.72348 13.5376 2.3457 13.1598 2.3457 12.6938C2.3457 9.3132 3.66218 6.13497 6.05263 3.74451C6.38209 3.415 6.91635 3.415 7.24586 3.74451C7.57538 4.07402 7.57538 4.60823 7.24586 4.93774C5.17418 7.00948 4.0332 9.76399 4.0332 12.6938C4.0332 13.1598 3.65543 13.5376 3.18945 13.5376Z"
            fill="#0A789B" />
    </g>
    <defs>
        <clipPath id="clip0_258_4332">
            <rect width="28.8" height="28.8" fill="white" transform="translate(0.601562 0.600098)" />
        </clipPath>
    </defs>
</svg>