<svg width="20" height="20" viewBox="0 0 20 20" fill="none" xmlns="http://www.w3.org/2000/svg">
<path d="M12.1892 17.92H7.74642C3.72569 17.92 2.00781 16.2021 2.00781 12.1814V7.7386C2.00781 3.71788 3.72569 2 7.74642 2H12.1892C16.2099 2 17.9278 3.71788 17.9278 7.7386V12.1814C17.9278 16.2021 16.2099 17.92 12.1892 17.92ZM7.74642 3.1107C4.33287 3.1107 3.11851 4.32506 3.11851 7.7386V12.1814C3.11851 15.5949 4.33287 16.8093 7.74642 16.8093H12.1892C15.6028 16.8093 16.8171 15.5949 16.8171 12.1814V7.7386C16.8171 4.32506 15.6028 3.1107 12.1892 3.1107H7.74642Z" fill="#040404"/>
<path d="M11.2706 14.2178H8.65678C7.84227 14.2178 7.19806 13.818 6.83524 13.0923L6.17622 11.7669C6.02073 11.4485 5.70233 11.256 5.3469 11.256H2.55535C2.25176 11.256 2 11.0042 2 10.7006C2 10.397 2.25916 10.1453 2.56275 10.1453H5.3469C6.12439 10.1453 6.82043 10.5747 7.16845 11.2708L7.82746 12.5962C7.99777 12.9368 8.27174 13.1071 8.65678 13.1071H11.2706C11.626 13.1071 11.9444 12.9146 12.0999 12.5962L12.759 11.2708C13.107 10.5747 13.803 10.1453 14.5805 10.1453H17.3498C17.6534 10.1453 17.9052 10.397 17.9052 10.7006C17.9052 11.0042 17.6534 11.256 17.3498 11.256H14.5805C14.2251 11.256 13.9067 11.4485 13.7512 11.7669L13.0922 13.0923C12.7441 13.7884 12.0481 14.2178 11.2706 14.2178Z" fill="#040404"/>
<path d="M11.2043 6.81309H8.73853C8.42754 6.81309 8.17578 6.56133 8.17578 6.25774C8.17578 5.95415 8.42754 5.70239 8.73113 5.70239H11.1969C11.5005 5.70239 11.7522 5.95415 11.7522 6.25774C11.7522 6.56133 11.5079 6.81309 11.2043 6.81309Z" fill="#040404"/>
<path d="M11.8182 9.03453H8.1159C7.81231 9.03453 7.56055 8.78277 7.56055 8.47918C7.56055 8.17559 7.81231 7.92383 8.1159 7.92383H11.8182C12.1218 7.92383 12.3736 8.17559 12.3736 8.47918C12.3736 8.78277 12.1218 9.03453 11.8182 9.03453Z" fill="#040404"/>
</svg>
