<svg width="25" height="24" viewBox="0 0 25 24" fill="none" xmlns="http://www.w3.org/2000/svg">
<path d="M13.178 19.957C13.4528 20.0209 13.4779 20.3807 13.2103 20.4699L11.6303 20.9899C7.66034 22.2699 5.57034 21.1999 4.28034 17.2299L3.00034 13.2799C1.72034 9.30992 2.78034 7.20992 6.75034 5.92992L7.27434 5.75639C7.6772 5.62297 8.06927 6.02703 7.95487 6.43571C7.89817 6.63828 7.84362 6.84968 7.79034 7.06992L6.81034 11.2599C5.71034 15.9699 7.32034 18.5699 12.0303 19.6899L13.178 19.957Z" fill="#090909"/>
<path d="M17.6702 3.21001L16.0002 2.82001C12.6602 2.03001 10.6702 2.68001 9.50018 5.10001C9.20018 5.71001 8.96018 6.45001 8.76018 7.30001L7.78018 11.49C6.80018 15.67 8.09018 17.73 12.2602 18.72L13.9402 19.12C14.5202 19.26 15.0602 19.35 15.5602 19.39C18.6802 19.69 20.3402 18.23 21.1802 14.62L22.1602 10.44C23.1402 6.26001 21.8602 4.19001 17.6702 3.21001ZM15.7902 13.33C15.7002 13.67 15.4002 13.89 15.0602 13.89C15.0002 13.89 14.9402 13.88 14.8702 13.87L11.9602 13.13C11.5602 13.03 11.3202 12.62 11.4202 12.22C11.5202 11.82 11.9302 11.58 12.3302 11.68L15.2402 12.42C15.6502 12.52 15.8902 12.93 15.7902 13.33ZM18.7202 9.95001C18.6302 10.29 18.3302 10.51 17.9902 10.51C17.9302 10.51 17.8702 10.5 17.8002 10.49L12.9502 9.26001C12.5502 9.16001 12.3102 8.75001 12.4102 8.35001C12.5102 7.95001 12.9202 7.71001 13.3202 7.81001L18.1702 9.04001C18.5802 9.13001 18.8202 9.54001 18.7202 9.95001Z" fill="#090909"/>
</svg>
