<svg width="20" height="20" viewBox="0 0 20 20" fill="none" xmlns="http://www.w3.org/2000/svg">
<path d="M14.6833 8.0166H10.3083C9.96665 8.0166 9.68332 7.73327 9.68332 7.3916C9.68332 7.04993 9.96665 6.7666 10.3083 6.7666H14.6833C15.025 6.7666 15.3083 7.04993 15.3083 7.3916C15.3083 7.73327 15.0333 8.0166 14.6833 8.0166Z" fill="#292D32"/>
<path d="M5.93334 8.64977C5.77501 8.64977 5.61667 8.59144 5.49167 8.46644L4.86667 7.84144C4.62501 7.59977 4.62501 7.19977 4.86667 6.95811C5.10834 6.71644 5.50834 6.71644 5.75001 6.95811L5.93334 7.14144L7.36667 5.70811C7.60834 5.46644 8.00834 5.46644 8.25001 5.70811C8.49167 5.94977 8.49167 6.34977 8.25001 6.59144L6.37501 8.46644C6.25834 8.58311 6.10001 8.64977 5.93334 8.64977Z" fill="#292D32"/>
<path d="M14.6833 13.8501H10.3083C9.96665 13.8501 9.68332 13.5668 9.68332 13.2251C9.68332 12.8834 9.96665 12.6001 10.3083 12.6001H14.6833C15.025 12.6001 15.3083 12.8834 15.3083 13.2251C15.3083 13.5668 15.0333 13.8501 14.6833 13.8501Z" fill="#292D32"/>
<path d="M5.93334 14.4833C5.77501 14.4833 5.61667 14.4249 5.49167 14.2999L4.86667 13.6749C4.62501 13.4333 4.62501 13.0333 4.86667 12.7916C5.10834 12.5499 5.50834 12.5499 5.75001 12.7916L5.93334 12.9749L7.36667 11.5416C7.60834 11.2999 8.00834 11.2999 8.25001 11.5416C8.49167 11.7833 8.49167 12.1833 8.25001 12.4249L6.37501 14.2999C6.25834 14.4166 6.10001 14.4833 5.93334 14.4833Z" fill="#292D32"/>
<path d="M12.5 18.9582H7.49999C2.97499 18.9582 1.04166 17.0248 1.04166 12.4998V7.49984C1.04166 2.97484 2.97499 1.0415 7.49999 1.0415H12.5C17.025 1.0415 18.9583 2.97484 18.9583 7.49984V12.4998C18.9583 17.0248 17.025 18.9582 12.5 18.9582ZM7.49999 2.2915C3.65832 2.2915 2.29166 3.65817 2.29166 7.49984V12.4998C2.29166 16.3415 3.65832 17.7082 7.49999 17.7082H12.5C16.3417 17.7082 17.7083 16.3415 17.7083 12.4998V7.49984C17.7083 3.65817 16.3417 2.2915 12.5 2.2915H7.49999Z" fill="#292D32"/>
</svg>
