<svg width="20" height="20" viewBox="0 0 20 20" fill="none" xmlns="http://www.w3.org/2000/svg">
<path d="M10.8749 13.5419H9.3083C8.19997 13.5419 7.29163 12.6085 7.29163 11.4585C7.29163 11.1169 7.57496 10.8335 7.91663 10.8335C8.25829 10.8335 8.54163 11.1169 8.54163 11.4585C8.54163 11.9169 8.8833 12.2919 9.3083 12.2919H10.8749C11.1999 12.2919 11.4583 12.0002 11.4583 11.6419C11.4583 11.1919 11.3333 11.1252 11.05 11.0252L8.54163 10.1502C8.00829 9.95852 7.29163 9.57519 7.29163 8.35019C7.29163 7.30853 8.11664 6.4502 9.12497 6.4502H10.6916C11.7999 6.4502 12.7083 7.38353 12.7083 8.53353C12.7083 8.8752 12.425 9.15853 12.0833 9.15853C11.7416 9.15853 11.4583 8.8752 11.4583 8.53353C11.4583 8.0752 11.1166 7.7002 10.6916 7.7002H9.12497C8.79997 7.7002 8.54163 7.99186 8.54163 8.35019C8.54163 8.80019 8.66662 8.86685 8.94995 8.96685L11.4583 9.84186C11.9916 10.0335 12.7083 10.4169 12.7083 11.6419C12.7083 12.6919 11.8833 13.5419 10.8749 13.5419Z" fill="#292D32"/>
<path d="M10 14.375C9.65833 14.375 9.375 14.0917 9.375 13.75V6.25C9.375 5.90833 9.65833 5.625 10 5.625C10.3417 5.625 10.625 5.90833 10.625 6.25V13.75C10.625 14.0917 10.3417 14.375 10 14.375Z" fill="#292D32"/>
<path d="M9.99996 18.9582C5.05829 18.9582 1.04163 14.9415 1.04163 9.99984C1.04163 5.05817 5.05829 1.0415 9.99996 1.0415C10.3416 1.0415 10.625 1.32484 10.625 1.6665C10.625 2.00817 10.3416 2.2915 9.99996 2.2915C5.74996 2.2915 2.29163 5.74984 2.29163 9.99984C2.29163 14.2498 5.74996 17.7082 9.99996 17.7082C14.25 17.7082 17.7083 14.2498 17.7083 9.99984C17.7083 9.65817 17.9916 9.37484 18.3333 9.37484C18.675 9.37484 18.9583 9.65817 18.9583 9.99984C18.9583 14.9415 14.9416 18.9582 9.99996 18.9582Z" fill="#292D32"/>
<path d="M18.3333 5.62484C17.9917 5.62484 17.7083 5.3415 17.7083 4.99984V2.2915H15C14.6583 2.2915 14.375 2.00817 14.375 1.6665C14.375 1.32484 14.6583 1.0415 15 1.0415H18.3333C18.675 1.0415 18.9583 1.32484 18.9583 1.6665V4.99984C18.9583 5.3415 18.675 5.62484 18.3333 5.62484Z" fill="#292D32"/>
<path d="M14.1666 6.45853C14.0083 6.45853 13.85 6.40019 13.725 6.27519C13.4833 6.03353 13.4833 5.63353 13.725 5.39186L17.8916 1.2252C18.1333 0.983529 18.5333 0.983529 18.775 1.2252C19.0166 1.46686 19.0166 1.86686 18.775 2.10853L14.6083 6.27519C14.4833 6.40019 14.325 6.45853 14.1666 6.45853Z" fill="#292D32"/>
</svg>
