<svg width="57" height="56" viewBox="0 0 57 56" fill="none" xmlns="http://www.w3.org/2000/svg">
<path d="M29.5267 10.4898H19.2393L18.4201 19.0453H30.346L29.5267 10.4898ZM19.903 28.6172L23.8749 26.4186C24.186 26.232 24.5697 26.232 24.8912 26.4186L28.863 28.6172C29.5578 29.0112 30.4186 28.4927 30.4186 27.7046V20.6009H18.3475V27.7046C18.3475 28.4927 19.2082 29.0112 19.903 28.6172ZM44.3771 3.9668C41.987 3.9668 39.6948 4.91626 38.0047 6.60631C36.3147 8.29636 35.3652 10.5886 35.3652 12.9786C35.3652 18.0083 39.4522 21.9905 44.3771 21.9905C49.3549 21.9905 53.3889 17.9564 53.3889 12.9786C53.3889 8.00087 49.3549 3.9668 44.3771 3.9668ZM47.5193 15.0009C47.8201 15.312 47.8201 15.8098 47.5193 16.1209C47.1771 16.4424 46.7001 16.4216 46.3993 16.1209L44.3771 14.0986L42.3652 16.1209C42.023 16.4424 41.5564 16.4216 41.2349 16.1209C41.0901 15.9704 41.0093 15.7697 41.0093 15.5609C41.0093 15.3521 41.0901 15.1514 41.2349 15.0009L43.2571 12.9786L41.2349 10.9564C41.0901 10.8059 41.0093 10.6052 41.0093 10.3964C41.0093 10.1876 41.0901 9.98692 41.2349 9.83643C41.5564 9.53569 42.0541 9.53569 42.3652 9.83643L44.3771 11.869L46.3993 9.83643C46.7104 9.53569 47.2082 9.53569 47.5193 9.83643C47.8201 10.1579 47.8201 10.6557 47.5193 10.9564L45.4971 12.9786L47.5193 15.0009ZM35.7178 19.0246C34.4725 17.2548 33.8059 15.1427 33.8097 12.9786C33.8097 12.1179 33.9134 11.2883 34.1104 10.4898H31.103L31.9326 19.0246H35.7178ZM17.6589 10.4949H8.95605C7.5965 10.4949 6.3842 11.3692 5.96316 12.6644L3.87354 19.0298H16.8323L17.6589 10.4949Z" fill="black"/>
<path d="M37.0763 20.6113H31.9948V27.7047C31.9948 29.6647 29.9 31.0024 28.0852 29.9965L24.3829 27.9432L20.6703 29.9965C18.9074 31.0024 16.7607 29.6647 16.7607 27.7047V20.6113H3.61108V48.8913C3.61108 50.6232 5.01108 52.0335 6.75331 52.0335H41.9918C43.734 52.0335 45.1444 50.6232 45.1444 48.8913V23.515C42.3278 23.7494 39.3246 22.7611 37.0763 20.6113ZM25.2333 39.361L27.0378 37.5565C27.3385 37.2558 27.8466 37.2558 28.1474 37.5565L29.9415 39.361C30.2629 39.6721 30.2629 40.1595 29.9415 40.481C29.6407 40.7817 29.1429 40.7817 28.8215 40.481L28.3859 40.035V43.7165C28.3755 43.9199 28.2874 44.1115 28.1397 44.2518C27.9921 44.3921 27.7962 44.4703 27.5926 44.4703C27.3889 44.4703 27.193 44.3921 27.0454 44.2518C26.8978 44.1115 26.8096 43.9199 26.7992 43.7165V40.0247L26.3533 40.481C26.0526 40.7713 25.5859 40.7921 25.2333 40.481C25.0888 40.3303 25.0081 40.1297 25.0081 39.921C25.0081 39.7122 25.0888 39.5116 25.2333 39.361ZM18.8037 39.361L20.6081 37.5565C20.8881 37.2765 21.3963 37.235 21.7281 37.5565L23.5118 39.361C23.8333 39.6721 23.8333 40.1595 23.5118 40.481C23.2111 40.7817 22.7133 40.7817 22.4022 40.481L21.9563 40.035V43.7165C21.9563 43.9255 21.8732 44.126 21.7254 44.2738C21.5776 44.4216 21.3772 44.5047 21.1681 44.5047C20.9591 44.5047 20.7586 44.4216 20.6108 44.2738C20.463 44.126 20.38 43.9255 20.38 43.7165V40.035L19.934 40.481C19.6022 40.7921 19.1252 40.7713 18.8037 40.481C18.6592 40.3303 18.5785 40.1297 18.5785 39.921C18.5785 39.7122 18.6592 39.5116 18.8037 39.361ZM29.454 47.5121H19.3015C18.8555 47.5121 18.5133 47.1491 18.5133 46.7135C18.5133 46.278 18.8555 45.9254 19.3015 45.9254H29.454C29.9 45.9254 30.2526 46.278 30.2526 46.7135C30.2526 47.1491 29.9 47.5121 29.454 47.5121Z" fill="black"/>
</svg>
