<svg width="18" height="18" viewBox="0 0 18 18" fill="none" xmlns="http://www.w3.org/2000/svg">
<path d="M8.99969 16.9725C8.49719 16.9725 7.98719 16.86 7.58969 16.6275L3.46469 14.25C1.78469 13.1175 1.67969 12.945 1.67969 11.1675V6.83248C1.67969 5.05498 1.77719 4.88248 3.42719 3.76498L7.58219 1.36498C8.36969 0.907476 9.60719 0.907476 10.3947 1.36498L14.5347 3.74998C16.2147 4.88248 16.3197 5.05498 16.3197 6.83248V11.16C16.3197 12.9375 16.2222 13.11 14.5722 14.2275L10.4172 16.6275C10.0122 16.86 9.50219 16.9725 8.99969 16.9725ZM8.99969 2.15248C8.68469 2.15248 8.37719 2.21248 8.15969 2.33998L4.03469 4.72498C2.81219 5.54998 2.81219 5.54998 2.81219 6.83248V11.16C2.81219 12.4425 2.81219 12.4425 4.06469 13.29L8.15969 15.6525C8.60219 15.9075 9.40469 15.9075 9.84719 15.6525L13.9722 13.2675C15.1872 12.4425 15.1872 12.4425 15.1872 11.16V6.83248C15.1872 5.54998 15.1872 5.54998 13.9347 4.70248L9.83969 2.33998C9.62219 2.21248 9.31469 2.15248 8.99969 2.15248Z" fill="#040404"/>
<path d="M9 11.8125C7.4475 11.8125 6.1875 10.5525 6.1875 9C6.1875 7.4475 7.4475 6.1875 9 6.1875C10.5525 6.1875 11.8125 7.4475 11.8125 9C11.8125 10.5525 10.5525 11.8125 9 11.8125ZM9 7.3125C8.07 7.3125 7.3125 8.07 7.3125 9C7.3125 9.93 8.07 10.6875 9 10.6875C9.93 10.6875 10.6875 9.93 10.6875 9C10.6875 8.07 9.93 7.3125 9 7.3125Z" fill="#040404"/>
</svg>
