<svg width="31" height="30" viewBox="0 0 31 30" fill="none" xmlns="http://www.w3.org/2000/svg">
<path d="M19.0665 2.56126L20.1665 5.89459C20.6636 7.43741 22.0957 8.48624 23.7165 8.49459H27.1832C28.8091 8.48426 30.2546 9.52733 30.7573 11.0735C31.26 12.6197 30.7043 14.3135 29.3832 15.2613L26.5332 17.3279C25.2213 18.2804 24.6699 19.968 25.1665 21.5113L26.2665 24.8446C26.8106 26.3931 26.2795 28.1154 24.9577 29.0885C23.6359 30.0616 21.8336 30.0573 20.5165 29.0779L17.7165 26.9946C16.404 26.0437 14.6291 26.0437 13.3165 26.9946L10.5165 29.0779C9.20679 30.0366 7.4277 30.0391 6.11521 29.0842C4.80272 28.1293 4.25757 26.4358 4.76655 24.8946L5.86655 21.5613C6.36315 20.018 5.81181 18.3304 4.49988 17.3779L1.58321 15.2779C0.235377 14.3282 -0.329823 12.6068 0.192736 11.0429C0.715295 9.47909 2.20185 8.44324 3.84988 8.49459H7.31655C8.92854 8.49098 10.3579 7.45757 10.8665 5.92792L11.9665 2.59459C12.4597 1.05494 13.8878 0.00763156 15.5044 4.15135e-05C17.1211 -0.00754853 18.559 1.0263 19.0665 2.56126Z" fill="#F5BE0B"/>
</svg>
