<svg width="20" height="20" viewBox="0 0 20 20" fill="none" xmlns="http://www.w3.org/2000/svg">
<path d="M9.92094 17.92C9.11411 17.92 8.31469 17.6831 7.68551 17.2168L4.50262 14.8407C3.65878 14.2116 3 12.9014 3 11.8503V6.34316C3 5.20325 3.83643 3.98931 4.90973 3.58959L8.60337 2.20541C9.33617 1.93153 10.4909 1.93153 11.2237 2.20541L14.9247 3.58959C15.998 3.98931 16.8345 5.20325 16.8345 6.34316V11.8429C16.8345 12.894 16.1757 14.2042 15.3318 14.8333L12.149 17.2094C11.5272 17.6831 10.7278 17.92 9.92094 17.92ZM8.99568 3.2491L5.30204 4.63329C4.66547 4.87015 4.11031 5.66958 4.11031 6.35057V11.8503C4.11031 12.5535 4.60625 13.538 5.1614 13.9525L8.34429 16.3286C9.19553 16.9651 10.6389 16.9651 11.4902 16.3286L14.6731 13.9525C15.2356 13.5306 15.7242 12.5461 15.7242 11.8503V6.34316C15.7242 5.66958 15.169 4.87015 14.5324 4.62588L10.8388 3.2417C10.3503 3.06405 9.49162 3.06405 8.99568 3.2491Z" fill="#040404"/>
<path d="M9.92033 10.8807C8.79522 10.8807 7.88477 9.97025 7.88477 8.84514C7.88477 7.72002 8.79522 6.80957 9.92033 6.80957C11.0454 6.80957 11.9559 7.72002 11.9559 8.84514C11.9559 9.97025 11.0454 10.8807 9.92033 10.8807ZM9.92033 7.91988C9.40959 7.91988 8.99508 8.3344 8.99508 8.84514C8.99508 9.35588 9.40959 9.7704 9.92033 9.7704C10.4311 9.7704 10.8456 9.35588 10.8456 8.84514C10.8456 8.3344 10.4311 7.91988 9.92033 7.91988Z" fill="#040404"/>
<path d="M9.92039 13.1013C9.6169 13.1013 9.36523 12.8496 9.36523 12.5462V10.3255C9.36523 10.0221 9.6169 9.77039 9.92039 9.77039C10.2239 9.77039 10.4755 10.0221 10.4755 10.3255V12.5462C10.4755 12.8496 10.2239 13.1013 9.92039 13.1013Z" fill="#040404"/>
</svg>
