<svg width="24" height="24" viewBox="0 0 24 24" fill="none" xmlns="http://www.w3.org/2000/svg">
<path d="M15.2129 1.50977C16.8582 1.50977 18.3476 2.17677 19.4259 3.25485C20.5041 4.33307 21.1709 5.82264 21.1709 7.46779C21.1709 9.11294 20.5041 10.6027 19.4259 11.6807C18.3476 12.7591 16.8582 13.426 15.2129 13.426C13.5676 13.426 12.0782 12.7588 11 11.6809C9.92175 10.6027 9.25488 9.11308 9.25488 7.46779C9.25488 5.8225 9.92175 4.33307 11 3.25485C12.0782 2.17663 13.5676 1.50977 15.2129 1.50977Z" fill="#FFC720"/>
<path d="M15.2125 2.86475C16.4837 2.86475 17.6344 3.38005 18.4674 4.213C19.3005 5.04596 19.8156 6.19685 19.8156 7.46787C19.8156 8.7389 19.3005 9.88978 18.4675 10.7229C17.6344 11.5558 16.4835 12.071 15.2125 12.071C13.9415 12.071 12.7906 11.5558 11.9576 10.7229C11.1245 9.88978 10.6094 8.73903 10.6094 7.46787C10.6094 6.19671 11.1245 5.04596 11.9575 4.213C12.7906 3.38005 13.9413 2.86488 15.2125 2.86488V2.86475Z" fill="#FFB31D"/>
<path d="M16.2205 6.23062C16.2219 6.29046 16.2467 6.34734 16.2896 6.38914C16.3324 6.43094 16.3899 6.45434 16.4497 6.45434C16.5096 6.45434 16.5671 6.43094 16.6099 6.38914C16.6527 6.34734 16.6775 6.29046 16.679 6.23062C16.679 5.82563 16.5149 5.45898 16.2495 5.19365C16.1135 5.05728 15.9519 4.94914 15.7739 4.87543C15.5959 4.80173 15.4052 4.76391 15.2126 4.76416C15.0199 4.76391 14.8292 4.80173 14.6512 4.87543C14.4733 4.94914 14.3116 5.05728 14.1756 5.19365C14.0392 5.32968 13.9311 5.49132 13.8574 5.66928C13.7836 5.84723 13.7458 6.038 13.7461 6.23062C13.7461 6.63547 13.9102 7.00212 14.1756 7.2676C14.3116 7.40396 14.4733 7.51211 14.6512 7.58581C14.8292 7.65952 15.0199 7.69733 15.2126 7.69708C15.345 7.69691 15.4761 7.7229 15.5984 7.77356C15.7208 7.82423 15.8319 7.89857 15.9254 7.99231C16.0191 8.08581 16.0934 8.19691 16.144 8.31921C16.1947 8.44151 16.2206 8.57262 16.2205 8.70499C16.2206 8.8374 16.1947 8.96853 16.144 9.09086C16.0933 9.21319 16.019 9.3243 15.9252 9.41781C15.8317 9.51151 15.7206 9.58582 15.5983 9.63646C15.476 9.6871 15.3449 9.71308 15.2126 9.7129C15.0802 9.71306 14.9491 9.68706 14.8268 9.63639C14.7045 9.58573 14.5934 9.5114 14.4999 9.41767C14.4061 9.32416 14.3318 9.21305 14.2811 9.09072C14.2305 8.96839 14.2045 8.83726 14.2047 8.70485C14.2032 8.64502 14.1784 8.58813 14.1355 8.54633C14.0927 8.50454 14.0352 8.48114 13.9754 8.48114C13.9155 8.48114 13.858 8.50454 13.8152 8.54633C13.7724 8.58813 13.7476 8.64502 13.7461 8.70485C13.7461 9.10984 13.9102 9.47649 14.1756 9.74196C14.3116 9.87833 14.4733 9.98648 14.6512 10.0602C14.8292 10.1339 15.0199 10.1717 15.2126 10.1715C15.6175 10.1715 15.9842 10.0073 16.2495 9.74196C16.3859 9.60593 16.494 9.44429 16.5677 9.26633C16.6415 9.08838 16.6793 8.89761 16.679 8.70499C16.679 8.3 16.5149 7.93335 16.2495 7.66802C16.1135 7.53165 15.9519 7.42351 15.7739 7.3498C15.5959 7.2761 15.4052 7.23828 15.2126 7.23853C15.0802 7.23869 14.9491 7.21269 14.8268 7.16203C14.7045 7.11136 14.5934 7.03703 14.4999 6.9433C14.4061 6.8498 14.3318 6.73869 14.2811 6.61636C14.2305 6.49403 14.2045 6.36289 14.2047 6.23048C14.2045 6.09813 14.2305 5.96704 14.2812 5.84476C14.3318 5.72248 14.4062 5.61142 14.4999 5.51795C14.5934 5.4242 14.7045 5.34986 14.8268 5.29919C14.9492 5.24853 15.0803 5.22254 15.2127 5.22272C15.3451 5.22257 15.4761 5.24858 15.5984 5.29925C15.7207 5.34991 15.8318 5.42423 15.9252 5.51795C16.019 5.61143 16.0933 5.72252 16.144 5.84483C16.1946 5.96713 16.2206 6.09824 16.2205 6.23062Z" fill="white"/>
<path d="M14.9834 4.99358C14.9849 5.05341 15.0097 5.1103 15.0525 5.1521C15.0953 5.1939 15.1528 5.21729 15.2127 5.21729C15.2725 5.21729 15.33 5.1939 15.3728 5.1521C15.4157 5.1103 15.4405 5.05341 15.442 4.99358V4.6578C15.4405 4.59796 15.4157 4.54107 15.3728 4.49928C15.33 4.45748 15.2725 4.43408 15.2127 4.43408C15.1528 4.43408 15.0953 4.45748 15.0525 4.49928C15.0097 4.54107 14.9849 4.59796 14.9834 4.6578V4.99358ZM14.9834 10.2784C14.9849 10.3382 15.0097 10.3951 15.0525 10.4369C15.0953 10.4787 15.1528 10.5021 15.2127 10.5021C15.2725 10.5021 15.33 10.4787 15.3728 10.4369C15.4157 10.3951 15.4405 10.3382 15.442 10.2784V9.94232C15.4405 9.88248 15.4157 9.82559 15.3728 9.7838C15.33 9.742 15.2725 9.7186 15.2127 9.7186C15.1528 9.7186 15.0953 9.742 15.0525 9.7838C15.0097 9.82559 14.9849 9.88248 14.9834 9.94232V10.2784Z" fill="white"/>
<path fill-rule="evenodd" clip-rule="evenodd" d="M12.5262 4.79876C13.3592 3.9658 14.5101 3.45064 15.7811 3.45064C16.9318 3.45064 17.9839 3.87279 18.7908 4.5708C18.6896 4.44597 18.582 4.3265 18.4683 4.21287C17.6354 3.37991 16.4846 2.86475 15.2135 2.86475C13.9423 2.86475 12.7916 3.37991 11.9586 4.21287C11.1257 5.04582 10.6104 6.19671 10.6104 7.46773C10.6104 8.73876 11.1257 9.88964 11.9586 10.7227C12.0375 10.8017 12.1193 10.8777 12.2037 10.9507C11.5387 10.1318 11.1764 9.10867 11.178 8.05376C11.178 6.7826 11.6933 5.63185 12.5262 4.79876Z" fill="#FFA11A"/>
<path d="M19.4956 16.048C19.4989 16.0583 19.5016 16.0688 19.5039 16.0793C19.5052 16.0839 19.5066 16.0884 19.5077 16.0931C19.5159 16.1254 19.5083 16.0967 19.5091 16.1016L19.5133 16.1157C19.5314 16.1832 19.5219 16.2552 19.4869 16.3158C19.452 16.3763 19.3944 16.4205 19.3268 16.4386L19.3267 16.4383L15.7428 17.3986C15.7027 17.4118 15.66 17.4152 15.6183 17.4084C15.5767 17.4017 15.5372 17.385 15.5033 17.3598C15.4694 17.3346 15.4421 17.3017 15.4236 17.2637C15.405 17.2258 15.3959 17.184 15.3969 17.1417H15.3979C15.4054 16.8262 15.3273 16.5125 15.1733 16.237C15.0235 15.9687 14.8051 15.7451 14.5403 15.5892C14.5353 15.5867 14.5304 15.5841 14.5255 15.5813L14.5259 15.5807L14.5255 15.5806L14.5258 15.5801L14.461 15.5427C14.4118 15.52 14.3707 15.4827 14.3435 15.4359C14.3162 15.3891 14.304 15.335 14.3086 15.281C14.3131 15.227 14.3342 15.1757 14.369 15.1341C14.4037 15.0925 14.4505 15.0626 14.5028 15.0486L14.5031 15.0488L16.7008 14.4599C16.7105 14.4567 16.7205 14.4541 16.7305 14.452C17.3202 14.2984 17.9198 14.3939 18.4158 14.6731C18.4238 14.6766 18.4316 14.6807 18.4393 14.6851V14.6858C18.9394 14.9745 19.3311 15.4515 19.4956 16.048Z" fill="#FB9F95"/>
<path d="M15.6301 15.9771C15.7743 16.2344 15.8676 16.5172 15.9047 16.8098L19.6842 15.7972C20.2876 15.6355 20.9026 15.7355 21.4074 16.0269C21.9126 16.3186 22.3073 16.8016 22.469 17.4052C22.629 18.0022 22.5331 18.6102 22.2493 19.1118C22.2466 19.1178 22.2434 19.1237 22.2401 19.1296L22.2395 19.1293L22.2392 19.1296L22.2388 19.1293C21.9471 19.6343 21.4643 20.0285 20.8609 20.1902L12.6172 22.3992C12.4396 22.4718 11.5979 22.7397 10.2327 21.9754C9.94366 21.8138 9.63722 21.6308 9.33992 21.4531C8.33755 20.8544 7.44743 20.3229 7.0243 20.5066C7.00687 20.5157 6.98832 20.5232 6.96853 20.5285L6.96825 20.5282L5.76587 20.8503C5.73184 20.8613 5.69592 20.8653 5.66029 20.862C5.62466 20.8588 5.59008 20.8483 5.55864 20.8312C5.5272 20.8141 5.49956 20.7908 5.47742 20.7627C5.45527 20.7346 5.43907 20.7023 5.42981 20.6677L5.43023 20.6676C4.86482 18.5575 4.29651 16.448 3.73359 14.3372C3.7155 14.2697 3.72497 14.1977 3.75994 14.1372C3.7949 14.0766 3.85249 14.0324 3.92003 14.0143L3.92031 14.0146L9.91155 12.4093C9.94663 12.3979 9.98372 12.3941 10.0204 12.3979C10.0571 12.4018 10.0925 12.4134 10.1244 12.4319V12.4326L14.7886 15.1253C15.1407 15.3283 15.4315 15.6226 15.6301 15.9771Z" fill="#F9C5B8"/>
<path d="M15.9048 16.81L16.446 16.6649C16.4382 16.8337 16.4114 17.0011 16.3661 17.1639C16.315 17.347 16.2409 17.5228 16.1458 17.6874C15.9965 17.946 15.7977 18.1726 15.5607 18.3541C15.3237 18.5357 15.0531 18.6686 14.7646 18.7454C14.4765 18.8232 14.176 18.8434 13.8802 18.8047C13.5843 18.7661 13.299 18.6694 13.0407 18.5202L9.00184 16.1884C8.94147 16.1537 8.89736 16.0964 8.8792 16.0292C8.86104 15.962 8.87033 15.8903 8.90502 15.83C8.93971 15.7696 8.99696 15.7255 9.06418 15.7073C9.13139 15.6892 9.20307 15.6985 9.26344 15.7331L13.3023 18.065C13.718 18.305 14.195 18.3528 14.6287 18.2366C15.062 18.1206 15.4508 17.8409 15.6905 17.4258C15.8002 17.2359 15.8729 17.0269 15.9048 16.81Z" fill="#FAB1A6"/>
<path d="M4.14602 13.8387L6.03643 20.894C6.07818 21.0502 6.05918 21.2163 5.98328 21.359C5.97996 21.366 5.97636 21.3731 5.97221 21.3801L5.97165 21.3797V21.3801L5.9711 21.3799C5.92924 21.4528 5.87341 21.5167 5.80682 21.568C5.74022 21.6193 5.66416 21.657 5.583 21.6788L4.77205 21.8961C4.40217 21.995 4.00834 21.946 3.6739 21.7597C3.66553 21.7559 3.65735 21.7518 3.6494 21.7472V21.7465C3.48091 21.6497 3.33318 21.5206 3.21471 21.3666C3.09623 21.2126 3.00934 21.0367 2.95901 20.8491L1.5032 15.4157C1.45301 15.228 1.44039 15.0322 1.46606 14.8395C1.49174 14.6468 1.55521 14.4612 1.65283 14.2931C1.74958 14.1246 1.87866 13.9769 2.03264 13.8584C2.18663 13.74 2.36249 13.653 2.55014 13.6027L3.36123 13.3854C3.44254 13.3637 3.52733 13.3583 3.61075 13.3694C3.69417 13.3805 3.77456 13.408 3.84733 13.4503C3.92022 13.4922 3.98413 13.5481 4.03539 13.6147C4.08665 13.6814 4.12424 13.7575 4.14602 13.8387Z" fill="#3B566A"/>
</svg>
