<svg width="20" height="20" viewBox="0 0 20 20" fill="none" xmlns="http://www.w3.org/2000/svg">
<path d="M12.1887 17.92H7.74593C3.7252 17.92 2.00732 16.2021 2.00732 12.1814V7.7386C2.00732 3.71788 3.7252 2 7.74593 2H12.1887C16.2094 2 17.9273 3.71788 17.9273 7.7386V12.1814C17.9273 16.2021 16.2094 17.92 12.1887 17.92ZM7.74593 3.1107C4.33238 3.1107 3.11802 4.32506 3.11802 7.7386V12.1814C3.11802 15.5949 4.33238 16.8093 7.74593 16.8093H12.1887C15.6023 16.8093 16.8166 15.5949 16.8166 12.1814V7.7386C16.8166 4.32506 15.6023 3.1107 12.1887 3.1107H7.74593Z" fill="#040404"/>
<path d="M11.2706 14.2176H8.65678C7.84227 14.2176 7.19806 13.8177 6.83524 13.0921L6.17622 11.7666C6.02073 11.4482 5.70233 11.2557 5.3469 11.2557H2.55535C2.25176 11.2557 2 11.004 2 10.7004C2 10.3968 2.25916 10.145 2.56275 10.145H5.3469C6.12439 10.145 6.82043 10.5745 7.16845 11.2705L7.82746 12.596C7.99777 12.9366 8.27174 13.1069 8.65678 13.1069H11.2706C11.626 13.1069 11.9444 12.9144 12.0999 12.596L12.759 11.2705C13.107 10.5745 13.803 10.145 14.5805 10.145H17.3498C17.6534 10.145 17.9052 10.3968 17.9052 10.7004C17.9052 11.004 17.6534 11.2557 17.3498 11.2557H14.5805C14.2251 11.2557 13.9067 11.4482 13.7512 11.7666L13.0922 13.0921C12.7441 13.7881 12.0481 14.2176 11.2706 14.2176Z" fill="#040404"/>
<path d="M11.204 6.81285H8.73829C8.4273 6.81285 8.17554 6.56109 8.17554 6.2575C8.17554 5.95391 8.4273 5.70215 8.73089 5.70215H11.1966C11.5002 5.70215 11.752 5.95391 11.752 6.2575C11.752 6.56109 11.5076 6.81285 11.204 6.81285Z" fill="#040404"/>
<path d="M11.8186 9.03453H8.11626C7.81267 9.03453 7.56091 8.78277 7.56091 8.47918C7.56091 8.17559 7.81267 7.92383 8.11626 7.92383H11.8186C12.1222 7.92383 12.3739 8.17559 12.3739 8.47918C12.3739 8.78277 12.1222 9.03453 11.8186 9.03453Z" fill="#040404"/>
</svg>
